<svg width="852" height="232" viewBox="0 0 852 232" fill="none" xmlns="http://www.w3.org/2000/svg">
<path opacity="0.18" d="M88.8931 23.8446H60.1784C57.7593 23.8446 55.7986 22.1064 55.7986 19.9618V5.22845C55.7986 3.08391 57.7593 1.3457 60.1784 1.3457H88.8931C91.3121 1.3457 93.2729 3.08391 93.2729 5.22845V19.9618C93.2729 22.1064 91.3121 23.8446 88.8931 23.8446Z" stroke="#1D1D1B" stroke-width="2" stroke-miterlimit="10"/>
<path opacity="0.18" d="M34.4512 23.4989H5.73647C3.31741 23.4989 1.35669 21.7607 1.35669 19.6161V4.88275C1.35669 2.73821 3.31741 1 5.73647 1H34.4512C36.8703 1 38.831 2.73821 38.831 4.88275V19.6161C38.831 21.7607 36.8703 23.4989 34.4512 23.4989Z" stroke="#1D1D1B" stroke-width="2" stroke-miterlimit="10"/>
<path opacity="0.18" d="M34.0945 65.0503H5.37978C2.96071 65.0503 1 63.3121 1 61.1675V35.8544C1 33.7099 2.96071 31.9717 5.37978 31.9717H34.0945C36.5136 31.9717 38.4743 33.7099 38.4743 35.8544V61.1675C38.4743 63.3121 36.5136 65.0503 34.0945 65.0503Z" stroke="#1D1D1B" stroke-width="2" stroke-miterlimit="10"/>
<path opacity="0.18" d="M63.6071 106.511H5.37978C2.96071 106.511 1 104.773 1 102.628V77.3154C1 75.1708 2.96071 73.4326 5.37978 73.4326H63.6071C66.0262 73.4326 67.9869 75.1708 67.9869 77.3154V102.628C67.9869 104.773 66.0262 106.511 63.6071 106.511Z" stroke="#1D1D1B" stroke-width="2" stroke-miterlimit="10"/>
<path opacity="0.18" d="M47.794 230.556H5.37978C2.96071 230.556 1 228.818 1 226.673V201.36C1 199.216 2.96071 197.478 5.37978 197.478H47.794C50.2131 197.478 52.1738 199.216 52.1738 201.36V226.673C52.1738 228.818 50.2131 230.556 47.794 230.556Z" stroke="#08080A" stroke-opacity="0.3" stroke-width="2" stroke-miterlimit="10"/>
<path opacity="0.18" d="M99.1631 188.372H5.37978C2.96071 188.372 1 186.634 1 184.49V159.169C1 157.024 2.96071 155.286 5.37978 155.286H99.1631C101.582 155.286 103.543 157.024 103.543 159.169V184.482C103.543 186.634 101.582 188.372 99.1631 188.372Z" stroke="#1D1D1B" stroke-opacity="0.6" stroke-width="2" stroke-miterlimit="10"/>
<path opacity="0.18" d="M88.8931 65.0503H60.1784C57.7593 65.0503 55.7986 63.3121 55.7986 61.1675V35.8544C55.7986 33.7099 57.7593 31.9717 60.1784 31.9717H88.8931C91.3121 31.9717 93.2729 33.7099 93.2729 35.8544V61.1675C93.2729 63.3121 91.3121 65.0503 88.8931 65.0503Z" stroke="#1D1D1B" stroke-width="2" stroke-miterlimit="10"/>
<path opacity="0.18" d="M112.005 106.511H83.2904C80.8714 106.511 78.9106 104.773 78.9106 102.628V77.3154C78.9106 75.1708 80.8714 73.4326 83.2904 73.4326H112.005C114.424 73.4326 116.385 75.1708 116.385 77.3154V102.628C116.385 104.773 114.424 106.511 112.005 106.511Z" stroke="#1D1D1B" stroke-width="2" stroke-miterlimit="10"/>
<path opacity="0.18" d="M149.675 188.372H120.96C118.541 188.372 116.581 186.634 116.581 184.49V159.169C116.581 157.024 118.541 155.286 120.96 155.286H149.675C152.094 155.286 154.055 157.024 154.055 159.169V184.482C154.063 186.634 152.103 188.372 149.675 188.372Z" stroke="#1D1D1B" stroke-opacity="0.6" stroke-width="2" stroke-miterlimit="10"/>
<path opacity="0.18" d="M95.7342 230.556H67.0194C64.6004 230.556 62.6396 228.818 62.6396 226.673V201.36C62.6396 199.216 64.6004 197.478 67.0194 197.478H95.7342C98.1532 197.478 100.114 199.216 100.114 201.36V226.673C100.122 228.818 98.1617 230.556 95.7342 230.556Z" stroke="#08080A" stroke-opacity="0.3" stroke-width="2" stroke-miterlimit="10"/>
<path opacity="0.18" d="M317.515 148.258H288.801C286.382 148.258 284.421 146.52 284.421 144.376V119.062C284.421 116.918 286.382 115.18 288.801 115.18H317.515C319.934 115.18 321.895 116.918 321.895 119.062V144.376C321.895 146.52 319.934 148.258 317.515 148.258Z" stroke="#1D1D1B" stroke-opacity="0.9" stroke-width="2" stroke-miterlimit="10"/>
<path opacity="0.18" d="M268.727 148.258H240.012C237.593 148.258 235.632 146.52 235.632 144.376V119.062C235.632 116.918 237.593 115.18 240.012 115.18H268.727C271.146 115.18 273.106 116.918 273.106 119.062V144.376C273.106 146.52 271.146 148.258 268.727 148.258Z" stroke="#1D1D1B" stroke-opacity="0.9" stroke-width="2" stroke-miterlimit="10"/>
<path d="M216.518 148.258H187.803C185.384 148.258 183.423 146.52 183.423 144.376V119.062C183.423 116.918 185.384 115.18 187.803 115.18H216.518C218.937 115.18 220.898 116.918 220.898 119.062V144.376C220.906 146.52 218.945 148.258 216.518 148.258Z" stroke="#D6D6D6" stroke-opacity="0.9" stroke-width="2" stroke-miterlimit="10"/>
<path d="M166.96 148.343L5.37978 148.378C2.96072 148.378 1 146.64 1 144.495V119.182C1 117.037 2.96072 115.299 5.37978 115.299L166.96 115.265C169.379 115.265 171.34 117.003 171.34 119.147V144.46C171.348 146.605 169.388 148.343 166.96 148.343Z" stroke="#D6D6D6" stroke-opacity="0.9" stroke-width="2" stroke-miterlimit="10"/>
<path opacity="0.18" d="M199.338 188.372H170.623C168.204 188.372 166.243 186.634 166.243 184.49V159.169C166.243 157.024 168.204 155.286 170.623 155.286H199.338C201.757 155.286 203.718 157.024 203.718 159.169V184.482C203.718 186.634 201.757 188.372 199.338 188.372Z" stroke="#1D1D1B" stroke-opacity="0.6" stroke-width="2" stroke-miterlimit="10"/>
<path opacity="0.18" d="M149.675 230.556H120.96C118.541 230.556 116.581 228.818 116.581 226.673V201.36C116.581 199.216 118.541 197.478 120.96 197.478H149.675C152.094 197.478 154.055 199.216 154.055 201.36V226.673C154.063 228.818 152.103 230.556 149.675 230.556Z" stroke="#08080A" stroke-opacity="0.3" stroke-width="2" stroke-miterlimit="10"/>
<path opacity="0.18" d="M199.338 230.556H170.623C168.204 230.556 166.243 228.818 166.243 226.673V201.36C166.243 199.216 168.204 197.478 170.623 197.478H199.338C201.757 197.478 203.718 199.216 203.718 201.36V226.673C203.718 228.818 201.757 230.556 199.338 230.556Z" stroke="#08080A" stroke-opacity="0.3" stroke-width="2" stroke-miterlimit="10"/>
<path opacity="0.18" d="M440.786 230.556H220.286C217.867 230.556 215.906 228.818 215.906 226.673V201.36C215.906 199.216 217.867 197.478 220.286 197.478H440.786C443.205 197.478 445.166 199.216 445.166 201.36V226.673C445.166 228.818 443.205 230.556 440.786 230.556Z" stroke="#08080A" stroke-opacity="0.3" stroke-width="2" stroke-miterlimit="10"/>
<path opacity="0.18" d="M370.573 148.258H341.859C339.439 148.258 337.479 146.52 337.479 144.376V119.062C337.479 116.918 339.439 115.18 341.859 115.18H370.573C372.992 115.18 374.953 116.918 374.953 119.062V144.376C374.962 146.52 372.992 148.258 370.573 148.258Z" stroke="#1D1D1B" stroke-opacity="0.9" stroke-width="2" stroke-miterlimit="10"/>
<path opacity="0.18" d="M417.665 148.258H388.95C386.531 148.258 384.57 146.52 384.57 144.376V119.062C384.57 116.918 386.531 115.18 388.95 115.18H417.665C420.084 115.18 422.044 116.918 422.044 119.062V144.376C422.053 146.52 420.084 148.258 417.665 148.258Z" stroke="#1D1D1B" stroke-opacity="0.9" stroke-width="2" stroke-miterlimit="10"/>
<path opacity="0.18" d="M557.223 148.258H528.508C526.089 148.258 524.128 146.52 524.128 144.376V119.062C524.128 116.918 526.089 115.18 528.508 115.18H557.223C559.642 115.18 561.602 116.918 561.602 119.062V144.376C561.611 146.52 559.642 148.258 557.223 148.258Z" stroke="#1D1D1B" stroke-opacity="0.9" stroke-width="2" stroke-miterlimit="10"/>
<path opacity="0.18" d="M603.457 148.258H574.743C572.324 148.258 570.363 146.52 570.363 144.376V119.062C570.363 116.918 572.324 115.18 574.743 115.18H603.457C605.876 115.18 607.837 116.918 607.837 119.062V144.376C607.846 146.52 605.876 148.258 603.457 148.258Z" stroke="#1D1D1B" stroke-opacity="0.9" stroke-width="2" stroke-miterlimit="10"/>
<path opacity="0.18" d="M582.051 188.372H553.337C550.917 188.372 548.957 186.634 548.957 184.49V159.169C548.957 157.024 550.917 155.286 553.337 155.286H582.051C584.47 155.286 586.431 157.024 586.431 159.169V184.482C586.44 186.634 584.479 188.372 582.051 188.372Z" stroke="#1D1D1B" stroke-opacity="0.6" stroke-width="2" stroke-miterlimit="10"/>
<path opacity="0.18" d="M534.96 188.372H506.245C503.826 188.372 501.865 186.634 501.865 184.49V159.169C501.865 157.024 503.826 155.286 506.245 155.286H534.96C537.379 155.286 539.34 157.024 539.34 159.169V184.482C539.348 186.634 537.387 188.372 534.96 188.372Z" stroke="#1D1D1B" stroke-opacity="0.6" stroke-width="2" stroke-miterlimit="10"/>
<path opacity="0.18" d="M695.925 148.258H620.119C617.7 148.258 615.739 146.52 615.739 144.376V119.062C615.739 116.918 617.7 115.18 620.119 115.18H695.925C698.344 115.18 700.305 116.918 700.305 119.062V144.376C700.313 146.52 698.344 148.258 695.925 148.258Z" stroke="#1D1D1B" stroke-opacity="0.9" stroke-width="2" stroke-miterlimit="10"/>
<path opacity="0.18" d="M659.113 188.372H598.721C596.302 188.372 594.341 186.634 594.341 184.49V159.169C594.341 157.024 596.302 155.286 598.721 155.286H659.113C661.532 155.286 663.492 157.024 663.492 159.169V184.482C663.492 186.634 661.532 188.372 659.113 188.372Z" stroke="#1D1D1B" stroke-opacity="0.6" stroke-width="2" stroke-miterlimit="10"/>
<path opacity="0.18" d="M618.872 230.556H554.007C551.588 230.556 549.628 228.818 549.628 226.673V201.36C549.628 199.216 551.588 197.478 554.007 197.478H618.872C621.291 197.478 623.252 199.216 623.252 201.36V226.673C623.252 228.818 621.291 230.556 618.872 230.556Z" stroke="#08080A" stroke-opacity="0.3" stroke-width="2" stroke-miterlimit="10"/>
<path opacity="0.18" d="M510.133 148.258H481.418C478.999 148.258 477.038 146.52 477.038 144.376V119.062C477.038 116.918 478.999 115.18 481.418 115.18H510.133C512.552 115.18 514.513 116.918 514.513 119.062V144.376C514.521 146.52 512.552 148.258 510.133 148.258Z" stroke="#1D1D1B" stroke-opacity="0.9" stroke-width="2" stroke-miterlimit="10"/>
<path opacity="0.18" d="M462.185 148.258H433.479C431.06 148.258 429.099 146.52 429.099 144.376V119.062C429.099 116.918 431.06 115.18 433.479 115.18H462.193C464.612 115.18 466.573 116.918 466.573 119.062V144.376C466.573 146.52 464.612 148.258 462.185 148.258Z" stroke="#1D1D1B" stroke-opacity="0.9" stroke-width="2" stroke-miterlimit="10"/>
<path opacity="0.18" d="M487.02 188.372H458.305C455.886 188.372 453.925 186.634 453.925 184.49V159.169C453.925 157.024 455.886 155.286 458.305 155.286H487.02C489.439 155.286 491.4 157.024 491.4 159.169V184.482C491.4 186.634 489.439 188.372 487.02 188.372Z" stroke="#1D1D1B" stroke-opacity="0.6" stroke-width="2" stroke-miterlimit="10"/>
<path opacity="0.18" d="M534.111 230.556H505.396C502.977 230.556 501.017 228.818 501.017 226.673V201.36C501.017 199.216 502.977 197.478 505.396 197.478H534.111C536.53 197.478 538.491 199.216 538.491 201.36V226.673C538.491 228.818 536.53 230.556 534.111 230.556Z" stroke="#08080A" stroke-opacity="0.3" stroke-width="2" stroke-miterlimit="10"/>
<path opacity="0.18" d="M486.163 230.556H457.448C455.029 230.556 453.068 228.818 453.068 226.673V201.36C453.068 199.216 455.029 197.478 457.448 197.478H486.163C488.582 197.478 490.543 199.216 490.543 201.36V226.673C490.543 228.818 488.582 230.556 486.163 230.556Z" stroke="#08080A" stroke-opacity="0.3" stroke-width="2" stroke-miterlimit="10"/>
<path opacity="0.18" d="M439.929 188.372H411.214C408.795 188.372 406.834 186.634 406.834 184.49V159.169C406.834 157.024 408.795 155.286 411.214 155.286H439.929C442.348 155.286 444.308 157.024 444.308 159.169V184.482C444.308 186.634 442.348 188.372 439.929 188.372Z" stroke="#1D1D1B" stroke-opacity="0.6" stroke-width="2" stroke-miterlimit="10"/>
<path opacity="0.18" d="M391.98 188.372H363.265C360.846 188.372 358.885 186.634 358.885 184.49V159.169C358.885 157.024 360.846 155.286 363.265 155.286H391.98C394.399 155.286 396.359 157.024 396.359 159.169V184.482C396.359 186.634 394.399 188.372 391.98 188.372Z" stroke="#1D1D1B" stroke-opacity="0.6" stroke-width="2" stroke-miterlimit="10"/>
<path opacity="0.18" d="M344.031 188.372H315.317C312.897 188.372 310.937 186.634 310.937 184.49V159.169C310.937 157.024 312.897 155.286 315.317 155.286H344.031C346.45 155.286 348.411 157.024 348.411 159.169V184.482C348.42 186.634 346.45 188.372 344.031 188.372Z" stroke="#1D1D1B" stroke-opacity="0.6" stroke-width="2" stroke-miterlimit="10"/>
<path opacity="0.18" d="M296.94 188.372H268.225C265.806 188.372 263.846 186.634 263.846 184.49V159.169C263.846 157.024 265.806 155.286 268.225 155.286H296.94C299.359 155.286 301.32 157.024 301.32 159.169V184.482C301.328 186.634 299.359 188.372 296.94 188.372Z" stroke="#1D1D1B" stroke-opacity="0.6" stroke-width="2" stroke-miterlimit="10"/>
<path opacity="0.18" d="M248.992 188.372H220.277C217.858 188.372 215.897 186.634 215.897 184.49V159.169C215.897 157.024 217.858 155.286 220.277 155.286H248.992C251.411 155.286 253.372 157.024 253.372 159.169V184.482C253.38 186.634 251.42 188.372 248.992 188.372Z" stroke="#1D1D1B" stroke-opacity="0.6" stroke-width="2" stroke-miterlimit="10"/>
<path d="M161.669 106.511H132.954C130.535 106.511 128.574 104.773 128.574 102.628V77.3154C128.574 75.1708 130.535 73.4326 132.954 73.4326H161.669C164.088 73.4326 166.048 75.1708 166.048 77.3154V102.628C166.048 104.773 164.088 106.511 161.669 106.511Z" stroke="#D6D6D6" stroke-width="2" stroke-miterlimit="10"/>
<path opacity="0.18" d="M211.323 106.511H182.608C180.189 106.511 178.229 104.773 178.229 102.628V77.3154C178.229 75.1708 180.189 73.4326 182.608 73.4326H211.323C213.742 73.4326 215.703 75.1708 215.703 77.3154V102.628C215.711 104.773 213.742 106.511 211.323 106.511Z" stroke="#1D1D1B" stroke-width="2" stroke-miterlimit="10"/>
<path opacity="0.18" d="M259.271 106.511H230.557C228.137 106.511 226.177 104.773 226.177 102.628V77.3154C226.177 75.1708 228.137 73.4326 230.557 73.4326H259.271C261.69 73.4326 263.651 75.1708 263.651 77.3154V102.628C263.651 104.773 261.69 106.511 259.271 106.511Z" stroke="#1D1D1B" stroke-width="2" stroke-miterlimit="10"/>
<path opacity="0.18" d="M307.22 106.511H278.505C276.086 106.511 274.125 104.773 274.125 102.628V77.3154C274.125 75.1708 276.086 73.4326 278.505 73.4326H307.22C309.639 73.4326 311.599 75.1708 311.599 77.3154V102.628C311.599 104.773 309.639 106.511 307.22 106.511Z" stroke="#1D1D1B" stroke-width="2" stroke-miterlimit="10"/>
<path opacity="0.18" d="M354.311 106.511H325.596C323.177 106.511 321.216 104.773 321.216 102.628V77.3154C321.216 75.1708 323.177 73.4326 325.596 73.4326H354.311C356.73 73.4326 358.691 75.1708 358.691 77.3154V102.628C358.691 104.773 356.73 106.511 354.311 106.511Z" stroke="#1D1D1B" stroke-width="2" stroke-miterlimit="10"/>
<path opacity="0.18" d="M403.108 106.511H374.393C371.974 106.511 370.013 104.773 370.013 102.628V77.3154C370.013 75.1708 371.974 73.4326 374.393 73.4326H403.108C405.527 73.4326 407.487 75.1708 407.487 77.3154V102.628C407.496 104.773 405.527 106.511 403.108 106.511Z" stroke="#1D1D1B" stroke-width="2" stroke-miterlimit="10"/>
<path opacity="0.18" d="M450.199 106.511H421.484C419.065 106.511 417.105 104.773 417.105 102.628V77.3154C417.105 75.1708 419.065 73.4326 421.484 73.4326H450.199C452.618 73.4326 454.579 75.1708 454.579 77.3154V102.628C454.588 104.773 452.618 106.511 450.199 106.511Z" stroke="#1D1D1B" stroke-width="2" stroke-miterlimit="10"/>
<path opacity="0.18" d="M497.291 106.511H468.576C466.157 106.511 464.196 104.773 464.196 102.628V77.3154C464.196 75.1708 466.157 73.4326 468.576 73.4326H497.291C499.71 73.4326 501.67 75.1708 501.67 77.3154V102.628C501.679 104.773 499.71 106.511 497.291 106.511Z" stroke="#1D1D1B" stroke-width="2" stroke-miterlimit="10"/>
<path opacity="0.18" d="M544.381 106.511H515.666C513.247 106.511 511.287 104.773 511.287 102.628V77.3154C511.287 75.1708 513.247 73.4326 515.666 73.4326H544.381C546.8 73.4326 548.761 75.1708 548.761 77.3154V102.628C548.761 104.773 546.8 106.511 544.381 106.511Z" stroke="#1D1D1B" stroke-width="2" stroke-miterlimit="10"/>
<path opacity="0.18" d="M589.758 106.511H561.044C558.625 106.511 556.664 104.773 556.664 102.628V77.3154C556.664 75.1708 558.625 73.4326 561.044 73.4326H589.758C592.177 73.4326 594.138 75.1708 594.138 77.3154V102.628C594.147 104.773 592.177 106.511 589.758 106.511Z" stroke="#1D1D1B" stroke-width="2" stroke-miterlimit="10"/>
<path opacity="0.18" d="M636.849 106.511H608.134C605.715 106.511 603.754 104.773 603.754 102.628V77.3154C603.754 75.1708 605.715 73.4326 608.134 73.4326H636.849C639.268 73.4326 641.229 75.1708 641.229 77.3154V102.628C641.237 104.773 639.268 106.511 636.849 106.511Z" stroke="#1D1D1B" stroke-width="2" stroke-miterlimit="10"/>
<path opacity="0.18" d="M695.925 106.511H653.51C651.091 106.511 649.131 104.773 649.131 102.628V77.3154C649.131 75.1708 651.091 73.4326 653.51 73.4326H695.925C698.344 73.4326 700.304 75.1708 700.304 77.3154V102.628C700.313 104.773 698.344 106.511 695.925 106.511Z" stroke="#1D1D1B" stroke-width="2" stroke-miterlimit="10"/>
<path opacity="0.18" d="M133.413 65.0503H104.698C102.279 65.0503 100.318 63.3121 100.318 61.1675V35.8544C100.318 33.7099 102.279 31.9717 104.698 31.9717H133.413C135.832 31.9717 137.792 33.7099 137.792 35.8544V61.1675C137.792 63.3121 135.832 65.0503 133.413 65.0503Z" stroke="#1D1D1B" stroke-width="2" stroke-miterlimit="10"/>
<path opacity="0.18" d="M185.638 65.0503H156.923C154.504 65.0503 152.544 63.3121 152.544 61.1675V35.8544C152.544 33.7099 154.504 31.9717 156.923 31.9717H185.638C188.057 31.9717 190.018 33.7099 190.018 35.8544V61.1675C190.018 63.3121 188.057 65.0503 185.638 65.0503Z" stroke="#1D1D1B" stroke-width="2" stroke-miterlimit="10"/>
<path opacity="0.18" d="M235.293 65.0503H206.579C204.16 65.0503 202.199 63.3121 202.199 61.1675V35.8544C202.199 33.7099 204.16 31.9717 206.579 31.9717H235.293C237.713 31.9717 239.673 33.7099 239.673 35.8544V61.1675C239.682 63.3121 237.721 65.0503 235.293 65.0503Z" stroke="#1D1D1B" stroke-width="2" stroke-miterlimit="10"/>
<path opacity="0.18" d="M282.383 65.0503H253.669C251.25 65.0503 249.289 63.3121 249.289 61.1675V35.8544C249.289 33.7099 251.25 31.9717 253.669 31.9717H282.383C284.802 31.9717 286.763 33.7099 286.763 35.8544V61.1675C286.772 63.3121 284.811 65.0503 282.383 65.0503Z" stroke="#1D1D1B" stroke-width="2" stroke-miterlimit="10"/>
<path opacity="0.18" d="M330.333 65.0503H301.618C299.199 65.0503 297.239 63.3121 297.239 61.1675V35.8544C297.239 33.7099 299.199 31.9717 301.618 31.9717H330.333C332.752 31.9717 334.713 33.7099 334.713 35.8544V61.1675C334.721 63.3121 332.752 65.0503 330.333 65.0503Z" stroke="#1D1D1B" stroke-width="2" stroke-miterlimit="10"/>
<path opacity="0.18" d="M379.995 65.0503H351.281C348.862 65.0503 346.901 63.3121 346.901 61.1675V35.8544C346.901 33.7099 348.862 31.9717 351.281 31.9717H379.995C382.414 31.9717 384.375 33.7099 384.375 35.8544V61.1675C384.375 63.3121 382.414 65.0503 379.995 65.0503Z" stroke="#1D1D1B" stroke-width="2" stroke-miterlimit="10"/>
<path opacity="0.18" d="M424.515 65.0503H395.8C393.381 65.0503 391.42 63.3121 391.42 61.1675V35.8544C391.42 33.7099 393.381 31.9717 395.8 31.9717H424.515C426.934 31.9717 428.895 33.7099 428.895 35.8544V61.1675C428.895 63.3121 426.934 65.0503 424.515 65.0503Z" stroke="#1D1D1B" stroke-width="2" stroke-miterlimit="10"/>
<path opacity="0.18" d="M472.463 65.0503H443.748C441.329 65.0503 439.369 63.3121 439.369 61.1675V35.8544C439.369 33.7099 441.329 31.9717 443.748 31.9717H472.463C474.882 31.9717 476.843 33.7099 476.843 35.8544V61.1675C476.843 63.3121 474.882 65.0503 472.463 65.0503Z" stroke="#1D1D1B" stroke-width="2" stroke-miterlimit="10"/>
<path opacity="0.18" d="M519.554 65.0503H490.839C488.42 65.0503 486.459 63.3121 486.459 61.1675V35.8544C486.459 33.7099 488.42 31.9717 490.839 31.9717H519.554C521.973 31.9717 523.933 33.7099 523.933 35.8544V61.1675C523.933 63.3121 521.973 65.0503 519.554 65.0503Z" stroke="#1D1D1B" stroke-width="2" stroke-miterlimit="10"/>
<path opacity="0.18" d="M565.788 65.0503H537.073C534.654 65.0503 532.693 63.3121 532.693 61.1675V35.8544C532.693 33.7099 534.654 31.9717 537.073 31.9717H565.788C568.207 31.9717 570.168 33.7099 570.168 35.8544V61.1675C570.168 63.3121 568.207 65.0503 565.788 65.0503Z" stroke="#1D1D1B" stroke-width="2" stroke-miterlimit="10"/>
<path opacity="0.18" d="M612.878 65.0503H584.164C581.744 65.0503 579.784 63.3121 579.784 61.1675V35.8544C579.784 33.7099 581.744 31.9717 584.164 31.9717H612.878C615.297 31.9717 617.258 33.7099 617.258 35.8544V61.1675C617.258 63.3121 615.297 65.0503 612.878 65.0503Z" stroke="#1D1D1B" stroke-width="2" stroke-miterlimit="10"/>
<path opacity="0.18" d="M695.925 65.0503H630.398C627.979 65.0503 626.018 63.3121 626.018 61.1675V35.8544C626.018 33.7099 627.979 31.9717 630.398 31.9717H695.925C698.344 31.9717 700.304 33.7099 700.304 35.8544V61.1675C700.313 63.3121 698.344 65.0503 695.925 65.0503Z" stroke="#1D1D1B" stroke-width="2" stroke-miterlimit="10"/>
<path opacity="0.18" d="M131.315 23.8446H102.6C100.181 23.8446 98.2207 22.1064 98.2207 19.9618V5.22845C98.2207 3.08391 100.181 1.3457 102.6 1.3457H131.315C133.734 1.3457 135.695 3.08391 135.695 5.22845V19.9618C135.703 22.1064 133.734 23.8446 131.315 23.8446Z" stroke="#1D1D1B" stroke-width="2" stroke-miterlimit="10"/>
<path opacity="0.18" d="M173.747 23.8446H145.032C142.613 23.8446 140.652 22.1064 140.652 19.9618V5.22845C140.652 3.08391 142.613 1.3457 145.032 1.3457H173.747C176.166 1.3457 178.126 3.08391 178.126 5.22845V19.9618C178.126 22.1064 176.166 23.8446 173.747 23.8446Z" stroke="#1D1D1B" stroke-width="2" stroke-miterlimit="10"/>
<path opacity="0.18" d="M216.178 23.8446H187.464C185.045 23.8446 183.084 22.1064 183.084 19.9618V5.22845C183.084 3.08391 185.045 1.3457 187.464 1.3457H216.178C218.598 1.3457 220.558 3.08391 220.558 5.22845V19.9618C220.558 22.1064 218.598 23.8446 216.178 23.8446Z" stroke="#1D1D1B" stroke-width="2" stroke-miterlimit="10"/>
<path opacity="0.18" d="M258.601 23.8446H229.886C227.467 23.8446 225.507 22.1064 225.507 19.9618V5.22845C225.507 3.08391 227.467 1.3457 229.886 1.3457H258.601C261.02 1.3457 262.981 3.08391 262.981 5.22845V19.9618C262.989 22.1064 261.029 23.8446 258.601 23.8446Z" stroke="#1D1D1B" stroke-width="2" stroke-miterlimit="10"/>
<path opacity="0.18" d="M301.032 23.8446H272.317C269.898 23.8446 267.938 22.1064 267.938 19.9618V5.22845C267.938 3.08391 269.898 1.3457 272.317 1.3457H301.032C303.451 1.3457 305.412 3.08391 305.412 5.22845V19.9618C305.42 22.1064 303.451 23.8446 301.032 23.8446Z" stroke="#1D1D1B" stroke-width="2" stroke-miterlimit="10"/>
<path opacity="0.18" d="M343.463 23.8446H314.748C312.329 23.8446 310.368 22.1064 310.368 19.9618V5.22845C310.368 3.08391 312.329 1.3457 314.748 1.3457H343.463C345.882 1.3457 347.842 3.08391 347.842 5.22845V19.9618C347.842 22.1064 345.882 23.8446 343.463 23.8446Z" stroke="#1D1D1B" stroke-width="2" stroke-miterlimit="10"/>
<path opacity="0.18" d="M385.895 23.8446H357.18C354.761 23.8446 352.8 22.1064 352.8 19.9618V5.22845C352.8 3.08391 354.761 1.3457 357.18 1.3457H385.895C388.314 1.3457 390.274 3.08391 390.274 5.22845V19.9618C390.274 22.1064 388.314 23.8446 385.895 23.8446Z" stroke="#1D1D1B" stroke-width="2" stroke-miterlimit="10"/>
<path opacity="0.18" d="M428.317 23.8446H399.611C397.192 23.8446 395.231 22.1064 395.231 19.9618V5.22845C395.231 3.08391 397.192 1.3457 399.611 1.3457H428.326C430.745 1.3457 432.705 3.08391 432.705 5.22845V19.9618C432.705 22.1064 430.745 23.8446 428.317 23.8446Z" stroke="#1D1D1B" stroke-width="2" stroke-miterlimit="10"/>
<path opacity="0.18" d="M466.47 23.8446H446.32C443.901 23.8446 441.94 22.1064 441.94 19.9618V5.22845C441.94 3.08391 443.901 1.3457 446.32 1.3457H466.47C468.889 1.3457 470.85 3.08391 470.85 5.22845V19.9618C470.85 22.1064 468.889 23.8446 466.47 23.8446Z" stroke="#1D1D1B" stroke-width="2" stroke-miterlimit="10"/>
<path opacity="0.18" d="M510.183 23.8446H487.461C485.042 23.8446 483.081 22.1064 483.081 19.9618V5.22845C483.081 3.08391 485.042 1.3457 487.461 1.3457H510.183C512.602 1.3457 514.563 3.08391 514.563 5.22845V19.9618C514.563 22.1064 512.602 23.8446 510.183 23.8446Z" stroke="#1D1D1B" stroke-width="2" stroke-miterlimit="10"/>
<path opacity="0.18" d="M552.606 23.8446H529.884C527.465 23.8446 525.504 22.1064 525.504 19.9618V5.22845C525.504 3.08391 527.465 1.3457 529.884 1.3457H552.606C555.025 1.3457 556.986 3.08391 556.986 5.22845V19.9618C556.994 22.1064 555.034 23.8446 552.606 23.8446Z" stroke="#1D1D1B" stroke-width="2" stroke-miterlimit="10"/>
<path opacity="0.18" d="M679.9 23.8446H657.178C654.759 23.8446 652.798 22.1064 652.798 19.9618V5.22845C652.798 3.08391 654.759 1.3457 657.178 1.3457H679.9C682.319 1.3457 684.28 3.08391 684.28 5.22845V19.9618C684.28 22.1064 682.319 23.8446 679.9 23.8446Z" stroke="#1D1D1B" stroke-width="2" stroke-miterlimit="10"/>
<path opacity="0.18" d="M596.752 23.8446H570.609C568.19 23.8446 566.229 22.1064 566.229 19.9618V5.22845C566.229 3.08391 568.19 1.3457 570.609 1.3457H596.752C599.171 1.3457 601.131 3.08391 601.131 5.22845V19.9618C601.131 22.1064 599.171 23.8446 596.752 23.8446Z" stroke="#1D1D1B" stroke-width="2" stroke-miterlimit="10"/>
<path opacity="0.18" d="M639.607 23.8446H612.607C610.188 23.8446 608.227 22.1064 608.227 19.9618V5.22845C608.227 3.08391 610.188 1.3457 612.607 1.3457H639.607C642.026 1.3457 643.987 3.08391 643.987 5.22845V19.9618C643.995 22.1064 642.026 23.8446 639.607 23.8446Z" stroke="#1D1D1B" stroke-width="2" stroke-miterlimit="10"/>
<path opacity="0.18" d="M723.18 23.8446H698.751C696.332 23.8446 694.372 22.1064 694.372 19.9618V5.22845C694.372 3.08391 696.332 1.3457 698.751 1.3457H723.18C725.599 1.3457 727.559 3.08391 727.559 5.22845V19.9618C727.568 22.1064 725.607 23.8446 723.18 23.8446Z" stroke="#1D1D1B" stroke-width="2" stroke-miterlimit="10"/>
<path opacity="0.18" d="M763.897 23.8446H742.889C740.47 23.8446 738.509 22.1064 738.509 19.9618V5.22845C738.509 3.08391 740.47 1.3457 742.889 1.3457H763.897C766.316 1.3457 768.277 3.08391 768.277 5.22845V19.9618C768.285 22.1064 766.316 23.8446 763.897 23.8446Z" stroke="#1D1D1B" stroke-width="2" stroke-miterlimit="10"/>
<path opacity="0.18" d="M806.328 23.8446H785.32C782.901 23.8446 780.94 22.1064 780.94 19.9618V5.22845C780.94 3.08391 782.901 1.3457 785.32 1.3457H806.328C808.747 1.3457 810.707 3.08391 810.707 5.22845V19.9618C810.707 22.1064 808.747 23.8446 806.328 23.8446Z" stroke="#1D1D1B" stroke-width="2" stroke-miterlimit="10"/>
<path opacity="0.18" d="M813.228 65.0504H792.221C789.802 65.0504 787.841 63.3122 787.841 61.1677V35.5009C787.841 33.3564 789.802 31.6182 792.221 31.6182H813.228C815.648 31.6182 817.608 33.3564 817.608 35.5009V61.1677C817.608 63.3122 815.648 65.0504 813.228 65.0504Z" stroke="#1D1D1B" stroke-width="2" stroke-miterlimit="10"/>
<path opacity="0.18" d="M776.976 65.0504H755.969C753.55 65.0504 751.589 63.3122 751.589 61.1677V35.5009C751.589 33.3564 753.55 31.6182 755.969 31.6182H776.976C779.395 31.6182 781.356 33.3564 781.356 35.5009V61.1677C781.365 63.3122 779.404 65.0504 776.976 65.0504Z" stroke="#1D1D1B" stroke-width="2" stroke-miterlimit="10"/>
<path opacity="0.18" d="M737.711 65.0504H716.703C714.284 65.0504 712.323 63.3122 712.323 61.1677V35.5009C712.323 33.3564 714.284 31.6182 716.703 31.6182H737.711C740.13 31.6182 742.09 33.3564 742.09 35.5009V61.1677C742.09 63.3122 740.13 65.0504 737.711 65.0504Z" stroke="#1D1D1B" stroke-width="2" stroke-miterlimit="10"/>
<path opacity="0.18" d="M813.228 106.512H792.221C789.802 106.512 787.841 104.773 787.841 102.629V77.248C787.841 75.1034 789.802 73.3652 792.221 73.3652H813.228C815.648 73.3652 817.608 75.1034 817.608 77.248V102.629C817.608 104.773 815.648 106.512 813.228 106.512Z" stroke="#1D1D1B" stroke-width="2" stroke-miterlimit="10"/>
<path opacity="0.18" d="M776.976 106.512H755.969C753.55 106.512 751.589 104.773 751.589 102.629V77.248C751.589 75.1034 753.55 73.3652 755.969 73.3652H776.976C779.395 73.3652 781.356 75.1034 781.356 77.248V102.629C781.365 104.773 779.404 106.512 776.976 106.512Z" stroke="#1D1D1B" stroke-width="2" stroke-miterlimit="10"/>
<path opacity="0.18" d="M737.711 106.512H716.703C714.284 106.512 712.323 104.773 712.323 102.629V77.248C712.323 75.1034 714.284 73.3652 716.703 73.3652H737.711C740.13 73.3652 742.09 75.1034 742.09 77.248V102.629C742.09 104.773 740.13 106.512 737.711 106.512Z" stroke="#1D1D1B" stroke-width="2" stroke-miterlimit="10"/>
<path opacity="0.18" d="M813.228 148.506H792.221C789.802 148.506 787.841 146.768 787.841 144.624V119.002C787.841 116.857 789.802 115.119 792.221 115.119H813.228C815.648 115.119 817.608 116.857 817.608 119.002V144.624C817.608 146.761 815.648 148.506 813.228 148.506Z" stroke="#1D1D1B" stroke-opacity="0.9" stroke-width="2" stroke-miterlimit="10"/>
<path opacity="0.18" d="M776.976 148.506H755.969C753.55 148.506 751.589 146.768 751.589 144.624V119.002C751.589 116.857 753.55 115.119 755.969 115.119H776.976C779.395 115.119 781.356 116.857 781.356 119.002V144.624C781.365 146.761 779.404 148.506 776.976 148.506Z" stroke="#1D1D1B" stroke-opacity="0.9" stroke-width="2" stroke-miterlimit="10"/>
<path opacity="0.18" d="M737.711 148.506H716.703C714.284 148.506 712.323 146.768 712.323 144.624V119.002C712.323 116.857 714.284 115.119 716.703 115.119H737.711C740.13 115.119 742.09 116.857 742.09 119.002V144.624C742.09 146.761 740.13 148.506 737.711 148.506Z" stroke="#1D1D1B" stroke-opacity="0.9" stroke-width="2" stroke-miterlimit="10"/>
<path opacity="0.18" d="M696.783 188.373H675.775C673.356 188.373 671.396 186.634 671.396 184.49V158.846C671.396 156.701 673.356 154.963 675.775 154.963H696.783C699.202 154.963 701.163 156.701 701.163 158.846V184.49C701.171 186.634 699.202 188.373 696.783 188.373Z" stroke="#1D1D1B" stroke-opacity="0.6" stroke-width="2" stroke-miterlimit="10"/>
<path opacity="0.18" d="M659.97 230.557H638.962C636.543 230.557 634.582 228.818 634.582 226.674V202.881C634.582 200.736 636.543 198.998 638.962 198.998H659.97C662.389 198.998 664.349 200.736 664.349 202.881V226.674C664.349 228.818 662.389 230.557 659.97 230.557Z" stroke="#1D1D1B" stroke-opacity="0.3" stroke-width="2" stroke-miterlimit="10"/>
<path opacity="0.18" d="M696.783 230.557H675.775C673.356 230.557 671.396 228.818 671.396 226.674V202.881C671.396 200.736 673.356 198.998 675.775 198.998H696.783C699.202 198.998 701.163 200.736 701.163 202.881V226.674C701.171 228.818 699.202 230.557 696.783 230.557Z" stroke="#1D1D1B" stroke-opacity="0.3" stroke-width="2" stroke-miterlimit="10"/>
<path opacity="0.18" d="M813.228 188.373H792.221C789.802 188.373 787.841 186.635 787.841 184.49V160.742C787.841 158.598 789.802 156.859 792.221 156.859H813.228C815.648 156.859 817.608 158.598 817.608 160.742V184.49C817.608 186.635 815.648 188.373 813.228 188.373Z" stroke="#1D1D1B" stroke-opacity="0.6" stroke-width="2" stroke-miterlimit="10"/>
<path opacity="0.18" d="M776.976 188.373H755.969C753.55 188.373 751.589 186.635 751.589 184.49V160.742C751.589 158.598 753.55 156.859 755.969 156.859H776.976C779.395 156.859 781.356 158.598 781.356 160.742V184.49C781.365 186.635 779.404 188.373 776.976 188.373Z" stroke="#1D1D1B" stroke-opacity="0.6" stroke-width="2" stroke-miterlimit="10"/>
<path opacity="0.18" d="M737.711 188.373H716.703C714.284 188.373 712.323 186.635 712.323 184.49V160.742C712.323 158.598 714.284 156.859 716.703 156.859H737.711C740.13 156.859 742.09 158.598 742.09 160.742V184.49C742.09 186.635 740.13 188.373 737.711 188.373Z" stroke="#1D1D1B" stroke-opacity="0.6" stroke-width="2" stroke-miterlimit="10"/>
<path opacity="0.18" d="M813.228 230.481H792.221C789.802 230.481 787.841 228.743 787.841 226.598V203.249C787.841 201.104 789.802 199.366 792.221 199.366H813.228C815.648 199.366 817.608 201.104 817.608 203.249V226.598C817.608 228.735 815.648 230.481 813.228 230.481Z" stroke="#1D1D1B" stroke-opacity="0.3" stroke-width="2" stroke-miterlimit="10"/>
<path opacity="0.18" d="M776.976 230.481H755.969C753.55 230.481 751.589 228.743 751.589 226.598V203.249C751.589 201.104 753.55 199.366 755.969 199.366H776.976C779.395 199.366 781.356 201.104 781.356 203.249V226.598C781.365 228.735 779.404 230.481 776.976 230.481Z" stroke="#1D1D1B" stroke-opacity="0.3" stroke-width="2" stroke-miterlimit="10"/>
<path opacity="0.18" d="M737.711 230.481H716.703C714.284 230.481 712.323 228.743 712.323 226.598V203.249C712.323 201.104 714.284 199.366 716.703 199.366H737.711C740.13 199.366 742.09 201.104 742.09 203.249V226.598C742.09 228.735 740.13 230.481 737.711 230.481Z" stroke="#1D1D1B" stroke-opacity="0.3" stroke-width="2" stroke-miterlimit="10"/>
<path opacity="0.18" d="M846.62 23.8446H829.891C827.471 23.8446 825.511 22.1064 825.511 19.9618V5.22845C825.511 3.08391 827.471 1.3457 829.891 1.3457H846.62C849.039 1.3457 851 3.08391 851 5.22845V19.9618C851 22.1064 849.039 23.8446 846.62 23.8446Z" stroke="#1D1D1B" stroke-width="2" stroke-miterlimit="10"/>
<path opacity="0.18" d="M846.62 65.0504H829.891C827.471 65.0504 825.511 63.3122 825.511 61.1677V35.5009C825.511 33.3564 827.471 31.6182 829.891 31.6182H846.62C849.039 31.6182 851 33.3564 851 35.5009V61.1677C851 63.3122 849.039 65.0504 846.62 65.0504Z" stroke="#1D1D1B" stroke-width="2" stroke-miterlimit="10"/>
<path opacity="0.18" d="M846.62 143.57H829.891C827.471 143.57 825.511 141.832 825.511 139.688V74.1474C825.511 72.0029 827.471 70.2646 829.891 70.2646H846.62C849.039 70.2646 851 72.0029 851 74.1474V139.688C851 141.832 849.039 143.57 846.62 143.57Z" stroke="#1D1D1B" stroke-opacity="0.9" stroke-width="2" stroke-miterlimit="10"/>
<path opacity="0.18" d="M846.62 230.858H829.891C827.471 230.858 825.511 229.119 825.511 226.975V155.362C825.511 153.218 827.471 151.479 829.891 151.479H846.62C849.039 151.479 851 153.218 851 155.362V226.975C851 229.119 849.039 230.858 846.62 230.858Z" stroke="#1D1D1B" stroke-opacity="0.3" stroke-width="2" stroke-miterlimit="10"/>
</svg>
