<svg width="1368" height="372" viewBox="0 0 1368 372" fill="none" xmlns="http://www.w3.org/2000/svg">
<path opacity="0.18" d="M142.249 37.7137H96.1024C92.2148 37.7137 89.0638 34.9203 89.0638 31.4738V7.79645C89.0638 4.35004 92.2148 1.55664 96.1024 1.55664H142.249C146.136 1.55664 149.287 4.35004 149.287 7.79645V31.4738C149.287 34.9203 146.136 37.7137 142.249 37.7137Z" stroke="#1D1D1B" stroke-width="2" stroke-miterlimit="10"/>
<path opacity="0.18" d="M54.7582 37.157H8.61194C4.72436 37.157 1.57336 34.3636 1.57336 30.9172V7.23981C1.57336 3.7934 4.72436 1 8.61194 1H54.7582C58.6458 1 61.7967 3.7934 61.7967 7.23981V30.9172C61.7967 34.3636 58.6458 37.157 54.7582 37.157Z" stroke="#1D1D1B" stroke-width="2" stroke-miterlimit="10"/>
<path opacity="0.18" d="M54.1848 103.933H8.03856C4.15098 103.933 1 101.139 1 97.6929V57.0132C1 53.5668 4.15098 50.7734 8.03856 50.7734H54.1848C58.0724 50.7734 61.2234 53.5668 61.2234 57.0132V97.6929C61.2234 101.139 58.0724 103.933 54.1848 103.933Z" stroke="#1D1D1B" stroke-width="2" stroke-miterlimit="10"/>
<path opacity="0.18" d="M101.613 170.564H8.03856C4.15098 170.564 1 167.77 1 164.324V123.644C1 120.198 4.15098 117.404 8.03856 117.404H101.613C105.501 117.404 108.652 120.198 108.652 123.644V164.324C108.652 167.77 105.501 170.564 101.613 170.564Z" stroke="#1D1D1B" stroke-width="2" stroke-miterlimit="10"/>
<path opacity="0.18" d="M76.2008 369.91H8.03856C4.15098 369.91 1 367.117 1 363.67V322.991C1 319.544 4.15098 316.751 8.03856 316.751H76.2008C80.0884 316.751 83.2394 319.544 83.2394 322.991V363.67C83.2394 367.117 80.0884 369.91 76.2008 369.91Z" stroke="#08080A" stroke-opacity="0.3" stroke-width="2" stroke-miterlimit="10"/>
<path opacity="0.18" d="M158.754 302.119H8.03856C4.15098 302.119 1 299.325 1 295.879V255.187C1 251.741 4.15098 248.947 8.03856 248.947H158.754C162.641 248.947 165.792 251.741 165.792 255.187V295.867C165.792 299.325 162.641 302.119 158.754 302.119Z" stroke="#1D1D1B" stroke-opacity="0.6" stroke-width="2" stroke-miterlimit="10"/>
<path opacity="0.18" d="M142.249 103.933H96.1024C92.2148 103.933 89.0638 101.139 89.0638 97.6929V57.0132C89.0638 53.5668 92.2148 50.7734 96.1024 50.7734H142.249C146.136 50.7734 149.287 53.5668 149.287 57.0132V97.6929C149.287 101.139 146.136 103.933 142.249 103.933Z" stroke="#1D1D1B" stroke-width="2" stroke-miterlimit="10"/>
<path opacity="0.18" d="M179.391 170.564H133.245C129.357 170.564 126.206 167.77 126.206 164.324V123.644C126.206 120.198 129.357 117.404 133.245 117.404H179.391C183.279 117.404 186.43 120.198 186.43 123.644V164.324C186.43 167.77 183.279 170.564 179.391 170.564Z" stroke="#1D1D1B" stroke-width="2" stroke-miterlimit="10"/>
<path opacity="0.18" d="M239.929 302.119H193.783C189.895 302.119 186.744 299.325 186.744 295.879V255.187C186.744 251.741 189.895 248.947 193.783 248.947H239.929C243.817 248.947 246.968 251.741 246.968 255.187V295.867C246.981 299.325 243.83 302.119 239.929 302.119Z" stroke="#1D1D1B" stroke-opacity="0.6" stroke-width="2" stroke-miterlimit="10"/>
<path opacity="0.18" d="M153.243 369.91H107.097C103.209 369.91 100.058 367.117 100.058 363.67V322.991C100.058 319.544 103.209 316.751 107.097 316.751H153.243C157.131 316.751 160.282 319.544 160.282 322.991V363.67C160.295 367.117 157.144 369.91 153.243 369.91Z" stroke="#08080A" stroke-opacity="0.3" stroke-width="2" stroke-miterlimit="10"/>
<path opacity="0.18" d="M509.659 237.653H463.513C459.625 237.653 456.474 234.86 456.474 231.414V190.734C456.474 187.288 459.625 184.494 463.513 184.494H509.659C513.547 184.494 516.698 187.288 516.698 190.734V231.414C516.698 234.86 513.547 237.653 509.659 237.653Z" stroke="#1D1D1B" stroke-opacity="0.9" stroke-width="2" stroke-miterlimit="10"/>
<path opacity="0.18" d="M431.252 237.653H385.106C381.219 237.653 378.068 234.86 378.068 231.414V190.734C378.068 187.288 381.219 184.494 385.106 184.494H431.252C435.14 184.494 438.291 187.288 438.291 190.734V231.414C438.291 234.86 435.14 237.653 431.252 237.653Z" stroke="#1D1D1B" stroke-opacity="0.9" stroke-width="2" stroke-miterlimit="10"/>
<path d="M347.35 237.653H301.204C297.316 237.653 294.165 234.86 294.165 231.414V190.734C294.165 187.288 297.316 184.494 301.204 184.494H347.35C351.237 184.494 354.388 187.288 354.388 190.734V231.414C354.402 234.86 351.251 237.653 347.35 237.653Z" stroke="#D6D6D6" stroke-opacity="0.9" stroke-width="2" stroke-miterlimit="10"/>
<path opacity="0.18" d="M319.74 302.119H273.594C269.707 302.119 266.556 299.325 266.556 295.879V255.187C266.556 251.741 269.707 248.947 273.594 248.947H319.74C323.628 248.947 326.779 251.741 326.779 255.187V295.867C326.779 299.325 323.628 302.119 319.74 302.119Z" stroke="#1D1D1B" stroke-opacity="0.6" stroke-width="2" stroke-miterlimit="10"/>
<path opacity="0.18" d="M239.929 369.91H193.783C189.895 369.91 186.744 367.117 186.744 363.67V322.991C186.744 319.544 189.895 316.751 193.783 316.751H239.929C243.817 316.751 246.968 319.544 246.968 322.991V363.67C246.981 367.117 243.83 369.91 239.929 369.91Z" stroke="#08080A" stroke-opacity="0.3" stroke-width="2" stroke-miterlimit="10"/>
<path opacity="0.18" d="M319.74 369.91H273.594C269.707 369.91 266.556 367.117 266.556 363.67V322.991C266.556 319.544 269.707 316.751 273.594 316.751H319.74C323.628 316.751 326.779 319.544 326.779 322.991V363.67C326.779 367.117 323.628 369.91 319.74 369.91Z" stroke="#08080A" stroke-opacity="0.3" stroke-width="2" stroke-miterlimit="10"/>
<path opacity="0.18" d="M707.763 369.91H353.406C349.519 369.91 346.368 367.117 346.368 363.67V322.991C346.368 319.544 349.519 316.751 353.406 316.751H707.763C711.65 316.751 714.801 319.544 714.801 322.991V363.67C714.801 367.117 711.65 369.91 707.763 369.91Z" stroke="#08080A" stroke-opacity="0.3" stroke-width="2" stroke-miterlimit="10"/>
<path opacity="0.18" d="M594.926 237.653H548.78C544.893 237.653 541.742 234.86 541.742 231.414V190.734C541.742 187.288 544.893 184.494 548.78 184.494H594.926C598.814 184.494 601.965 187.288 601.965 190.734V231.414C601.979 234.86 598.814 237.653 594.926 237.653Z" stroke="#1D1D1B" stroke-opacity="0.9" stroke-width="2" stroke-miterlimit="10"/>
<path opacity="0.18" d="M670.605 237.653H624.459C620.571 237.653 617.42 234.86 617.42 231.414V190.734C617.42 187.288 620.571 184.494 624.459 184.494H670.605C674.493 184.494 677.644 187.288 677.644 190.734V231.414C677.657 234.86 674.493 237.653 670.605 237.653Z" stroke="#1D1D1B" stroke-opacity="0.9" stroke-width="2" stroke-miterlimit="10"/>
<path opacity="0.18" d="M894.884 237.653H848.738C844.85 237.653 841.699 234.86 841.699 231.414V190.734C841.699 187.288 844.85 184.494 848.738 184.494H894.884C898.771 184.494 901.922 187.288 901.922 190.734V231.414C901.936 234.86 898.771 237.653 894.884 237.653Z" stroke="#1D1D1B" stroke-opacity="0.9" stroke-width="2" stroke-miterlimit="10"/>
<path opacity="0.18" d="M969.185 237.653H923.038C919.151 237.653 916 234.86 916 231.414V190.734C916 187.288 919.151 184.494 923.038 184.494H969.185C973.072 184.494 976.223 187.288 976.223 190.734V231.414C976.237 234.86 973.072 237.653 969.185 237.653Z" stroke="#1D1D1B" stroke-opacity="0.9" stroke-width="2" stroke-miterlimit="10"/>
<path opacity="0.18" d="M934.783 302.119H888.637C884.749 302.119 881.598 299.325 881.598 295.879V255.187C881.598 251.741 884.749 248.947 888.637 248.947H934.783C938.67 248.947 941.821 251.741 941.821 255.187V295.867C941.835 299.325 938.684 302.119 934.783 302.119Z" stroke="#1D1D1B" stroke-opacity="0.6" stroke-width="2" stroke-miterlimit="10"/>
<path opacity="0.18" d="M859.105 302.119H812.959C809.071 302.119 805.92 299.325 805.92 295.879V255.187C805.92 251.741 809.071 248.947 812.959 248.947H859.105C862.993 248.947 866.144 251.741 866.144 255.187V295.867C866.157 299.325 863.006 302.119 859.105 302.119Z" stroke="#1D1D1B" stroke-opacity="0.6" stroke-width="2" stroke-miterlimit="10"/>
<path opacity="0.18" d="M1117.79 237.653H995.962C992.074 237.653 988.923 234.86 988.923 231.414V190.734C988.923 187.288 992.074 184.494 995.962 184.494H1117.79C1121.67 184.494 1124.82 187.288 1124.82 190.734V231.414C1124.84 234.86 1121.67 237.653 1117.79 237.653Z" stroke="#1D1D1B" stroke-opacity="0.9" stroke-width="2" stroke-miterlimit="10"/>
<path opacity="0.18" d="M1058.63 302.119H961.574C957.686 302.119 954.535 299.325 954.535 295.879V255.187C954.535 251.741 957.686 248.947 961.574 248.947H1058.63C1062.51 248.947 1065.67 251.741 1065.67 255.187V295.867C1065.67 299.325 1062.51 302.119 1058.63 302.119Z" stroke="#1D1D1B" stroke-opacity="0.6" stroke-width="2" stroke-miterlimit="10"/>
<path opacity="0.18" d="M993.956 369.91H889.715C885.827 369.91 882.676 367.117 882.676 363.67V322.991C882.676 319.544 885.827 316.751 889.715 316.751H993.956C997.844 316.751 1000.99 319.544 1000.99 322.991V363.67C1000.99 367.117 997.844 369.91 993.956 369.91Z" stroke="#08080A" stroke-opacity="0.3" stroke-width="2" stroke-miterlimit="10"/>
<path opacity="0.18" d="M819.206 237.653H773.06C769.172 237.653 766.021 234.86 766.021 231.414V190.734C766.021 187.288 769.172 184.494 773.06 184.494H819.206C823.094 184.494 826.245 187.288 826.245 190.734V231.414C826.258 234.86 823.094 237.653 819.206 237.653Z" stroke="#1D1D1B" stroke-opacity="0.9" stroke-width="2" stroke-miterlimit="10"/>
<path opacity="0.18" d="M742.151 237.653H696.018C692.131 237.653 688.98 234.86 688.98 231.414V190.734C688.98 187.288 692.131 184.494 696.018 184.494H742.164C746.052 184.494 749.203 187.288 749.203 190.734V231.414C749.203 234.86 746.052 237.653 742.151 237.653Z" stroke="#1D1D1B" stroke-opacity="0.9" stroke-width="2" stroke-miterlimit="10"/>
<path opacity="0.18" d="M782.063 302.119H735.916C732.029 302.119 728.878 299.325 728.878 295.879V255.187C728.878 251.741 732.029 248.947 735.916 248.947H782.063C785.95 248.947 789.101 251.741 789.101 255.187V295.867C789.101 299.325 785.95 302.119 782.063 302.119Z" stroke="#1D1D1B" stroke-opacity="0.6" stroke-width="2" stroke-miterlimit="10"/>
<path opacity="0.18" d="M857.741 369.91H811.595C807.707 369.91 804.556 367.117 804.556 363.67V322.991C804.556 319.544 807.707 316.751 811.595 316.751H857.741C861.629 316.751 864.78 319.544 864.78 322.991V363.67C864.78 367.117 861.629 369.91 857.741 369.91Z" stroke="#08080A" stroke-opacity="0.3" stroke-width="2" stroke-miterlimit="10"/>
<path opacity="0.18" d="M780.685 369.91H734.538C730.651 369.91 727.5 367.117 727.5 363.67V322.991C727.5 319.544 730.651 316.751 734.538 316.751H780.685C784.572 316.751 787.723 319.544 787.723 322.991V363.67C787.723 367.117 784.572 369.91 780.685 369.91Z" stroke="#08080A" stroke-opacity="0.3" stroke-width="2" stroke-miterlimit="10"/>
<path opacity="0.18" d="M706.384 302.119H660.238C656.35 302.119 653.199 299.325 653.199 295.879V255.187C653.199 251.741 656.35 248.947 660.238 248.947H706.384C710.271 248.947 713.422 251.741 713.422 255.187V295.867C713.422 299.325 710.271 302.119 706.384 302.119Z" stroke="#1D1D1B" stroke-opacity="0.6" stroke-width="2" stroke-miterlimit="10"/>
<path opacity="0.18" d="M629.328 302.119H583.182C579.294 302.119 576.143 299.325 576.143 295.879V255.187C576.143 251.741 579.294 248.947 583.182 248.947H629.328C633.216 248.947 636.367 251.741 636.367 255.187V295.867C636.367 299.325 633.216 302.119 629.328 302.119Z" stroke="#1D1D1B" stroke-opacity="0.6" stroke-width="2" stroke-miterlimit="10"/>
<path opacity="0.18" d="M552.272 302.119H506.125C502.238 302.119 499.087 299.325 499.087 295.879V255.187C499.087 251.741 502.238 248.947 506.125 248.947H552.272C556.159 248.947 559.31 251.741 559.31 255.187V295.867C559.324 299.325 556.159 302.119 552.272 302.119Z" stroke="#1D1D1B" stroke-opacity="0.6" stroke-width="2" stroke-miterlimit="10"/>
<path opacity="0.18" d="M476.594 302.119H430.448C426.56 302.119 423.409 299.325 423.409 295.879V255.187C423.409 251.741 426.56 248.947 430.448 248.947H476.594C480.482 248.947 483.633 251.741 483.633 255.187V295.867C483.646 299.325 480.482 302.119 476.594 302.119Z" stroke="#1D1D1B" stroke-opacity="0.6" stroke-width="2" stroke-miterlimit="10"/>
<path opacity="0.18" d="M399.538 302.119H353.392C349.505 302.119 346.354 299.325 346.354 295.879V255.187C346.354 251.741 349.505 248.947 353.392 248.947H399.538C403.426 248.947 406.577 251.741 406.577 255.187V295.867C406.591 299.325 403.44 302.119 399.538 302.119Z" stroke="#1D1D1B" stroke-opacity="0.6" stroke-width="2" stroke-miterlimit="10"/>
<path d="M259.204 170.564H213.058C209.171 170.564 206.02 167.77 206.02 164.324V123.644C206.02 120.198 209.171 117.404 213.058 117.404H259.204C263.092 117.404 266.243 120.198 266.243 123.644V164.324C266.243 167.77 263.092 170.564 259.204 170.564Z" stroke="#D6D6D6" stroke-width="2" stroke-miterlimit="10"/>
<path opacity="0.18" d="M339.001 170.564H292.855C288.968 170.564 285.817 167.77 285.817 164.324V123.644C285.817 120.198 288.968 117.404 292.855 117.404H339.001C342.889 117.404 346.04 120.198 346.04 123.644V164.324C346.054 167.77 342.889 170.564 339.001 170.564Z" stroke="#1D1D1B" stroke-width="2" stroke-miterlimit="10"/>
<path opacity="0.18" d="M416.057 170.564H369.911C366.023 170.564 362.872 167.77 362.872 164.324V123.644C362.872 120.198 366.023 117.404 369.911 117.404H416.057C419.945 117.404 423.096 120.198 423.096 123.644V164.324C423.096 167.77 419.945 170.564 416.057 170.564Z" stroke="#1D1D1B" stroke-width="2" stroke-miterlimit="10"/>
<path opacity="0.18" d="M493.114 170.564H446.967C443.08 170.564 439.929 167.77 439.929 164.324V123.644C439.929 120.198 443.08 117.404 446.967 117.404H493.114C497.001 117.404 500.152 120.198 500.152 123.644V164.324C500.152 167.77 497.001 170.564 493.114 170.564Z" stroke="#1D1D1B" stroke-width="2" stroke-miterlimit="10"/>
<path opacity="0.18" d="M568.791 170.564H522.645C518.757 170.564 515.606 167.77 515.606 164.324V123.644C515.606 120.198 518.757 117.404 522.645 117.404H568.791C572.679 117.404 575.83 120.198 575.83 123.644V164.324C575.83 167.77 572.679 170.564 568.791 170.564Z" stroke="#1D1D1B" stroke-width="2" stroke-miterlimit="10"/>
<path opacity="0.18" d="M647.211 170.564H601.064C597.177 170.564 594.026 167.77 594.026 164.324V123.644C594.026 120.198 597.177 117.404 601.064 117.404H647.211C651.098 117.404 654.249 120.198 654.249 123.644V164.324C654.263 167.77 651.098 170.564 647.211 170.564Z" stroke="#1D1D1B" stroke-width="2" stroke-miterlimit="10"/>
<path opacity="0.18" d="M722.889 170.564H676.743C672.856 170.564 669.705 167.77 669.705 164.324V123.644C669.705 120.198 672.856 117.404 676.743 117.404H722.889C726.777 117.404 729.928 120.198 729.928 123.644V164.324C729.942 167.77 726.777 170.564 722.889 170.564Z" stroke="#1D1D1B" stroke-width="2" stroke-miterlimit="10"/>
<path opacity="0.18" d="M798.568 170.564H752.422C748.534 170.564 745.383 167.77 745.383 164.324V123.644C745.383 120.198 748.534 117.404 752.422 117.404H798.568C802.456 117.404 805.607 120.198 805.607 123.644V164.324C805.62 167.77 802.456 170.564 798.568 170.564Z" stroke="#1D1D1B" stroke-width="2" stroke-miterlimit="10"/>
<path opacity="0.18" d="M874.246 170.564H828.1C824.212 170.564 821.061 167.77 821.061 164.324V123.644C821.061 120.198 824.212 117.404 828.1 117.404H874.246C878.133 117.404 881.284 120.198 881.284 123.644V164.324C881.284 167.77 878.133 170.564 874.246 170.564Z" stroke="#1D1D1B" stroke-width="2" stroke-miterlimit="10"/>
<path opacity="0.18" d="M947.169 170.564H901.023C897.135 170.564 893.984 167.77 893.984 164.324V123.644C893.984 120.198 897.135 117.404 901.023 117.404H947.169C951.057 117.404 954.208 120.198 954.208 123.644V164.324C954.221 167.77 951.057 170.564 947.169 170.564Z" stroke="#1D1D1B" stroke-width="2" stroke-miterlimit="10"/>
<path opacity="0.18" d="M1022.85 170.564H976.7C972.813 170.564 969.662 167.77 969.662 164.324V123.644C969.662 120.198 972.813 117.404 976.7 117.404H1022.85C1026.73 117.404 1029.89 120.198 1029.89 123.644V164.324C1029.9 167.77 1026.73 170.564 1022.85 170.564Z" stroke="#1D1D1B" stroke-width="2" stroke-miterlimit="10"/>
<path opacity="0.18" d="M1117.79 170.564H1049.62C1045.74 170.564 1042.58 167.77 1042.58 164.324V123.644C1042.58 120.198 1045.74 117.404 1049.62 117.404H1117.79C1121.67 117.404 1124.82 120.198 1124.82 123.644V164.324C1124.84 167.77 1121.67 170.564 1117.79 170.564Z" stroke="#1D1D1B" stroke-width="2" stroke-miterlimit="10"/>
<path opacity="0.18" d="M213.794 103.933H167.648C163.76 103.933 160.609 101.139 160.609 97.6929V57.0132C160.609 53.5668 163.76 50.7734 167.648 50.7734H213.794C217.682 50.7734 220.833 53.5668 220.833 57.0132V97.6929C220.833 101.139 217.682 103.933 213.794 103.933Z" stroke="#1D1D1B" stroke-width="2" stroke-miterlimit="10"/>
<path opacity="0.18" d="M297.725 103.933H251.578C247.691 103.933 244.54 101.139 244.54 97.6929V57.0132C244.54 53.5668 247.691 50.7734 251.578 50.7734H297.725C301.612 50.7734 304.763 53.5668 304.763 57.0132V97.6929C304.763 101.139 301.612 103.933 297.725 103.933Z" stroke="#1D1D1B" stroke-width="2" stroke-miterlimit="10"/>
<path opacity="0.18" d="M377.523 103.933H331.376C327.489 103.933 324.338 101.139 324.338 97.6929V57.0132C324.338 53.5668 327.489 50.7734 331.376 50.7734H377.523C381.41 50.7734 384.561 53.5668 384.561 57.0132V97.6929C384.575 101.139 381.424 103.933 377.523 103.933Z" stroke="#1D1D1B" stroke-width="2" stroke-miterlimit="10"/>
<path opacity="0.18" d="M453.2 103.933H407.054C403.167 103.933 400.016 101.139 400.016 97.6929V57.0132C400.016 53.5668 403.167 50.7734 407.054 50.7734H453.2C457.088 50.7734 460.239 53.5668 460.239 57.0132V97.6929C460.253 101.139 457.102 103.933 453.2 103.933Z" stroke="#1D1D1B" stroke-width="2" stroke-miterlimit="10"/>
<path opacity="0.18" d="M530.257 103.933H484.111C480.223 103.933 477.072 101.139 477.072 97.6929V57.0132C477.072 53.5668 480.223 50.7734 484.111 50.7734H530.257C534.145 50.7734 537.296 53.5668 537.296 57.0132V97.6929C537.309 101.139 534.145 103.933 530.257 103.933Z" stroke="#1D1D1B" stroke-width="2" stroke-miterlimit="10"/>
<path opacity="0.18" d="M610.068 103.933H563.922C560.034 103.933 556.883 101.139 556.883 97.6929V57.0132C556.883 53.5668 560.034 50.7734 563.922 50.7734H610.068C613.956 50.7734 617.107 53.5668 617.107 57.0132V97.6929C617.107 101.139 613.956 103.933 610.068 103.933Z" stroke="#1D1D1B" stroke-width="2" stroke-miterlimit="10"/>
<path opacity="0.18" d="M681.614 103.933H635.467C631.58 103.933 628.429 101.139 628.429 97.6929V57.0132C628.429 53.5668 631.58 50.7734 635.467 50.7734H681.614C685.501 50.7734 688.652 53.5668 688.652 57.0132V97.6929C688.652 101.139 685.501 103.933 681.614 103.933Z" stroke="#1D1D1B" stroke-width="2" stroke-miterlimit="10"/>
<path opacity="0.18" d="M758.669 103.933H712.523C708.635 103.933 705.484 101.139 705.484 97.6929V57.0132C705.484 53.5668 708.635 50.7734 712.523 50.7734H758.669C762.557 50.7734 765.708 53.5668 765.708 57.0132V97.6929C765.708 101.139 762.557 103.933 758.669 103.933Z" stroke="#1D1D1B" stroke-width="2" stroke-miterlimit="10"/>
<path opacity="0.18" d="M834.347 103.933H788.2C784.313 103.933 781.162 101.139 781.162 97.6929V57.0132C781.162 53.5668 784.313 50.7734 788.2 50.7734H834.347C838.234 50.7734 841.385 53.5668 841.385 57.0132V97.6929C841.385 101.139 838.234 103.933 834.347 103.933Z" stroke="#1D1D1B" stroke-width="2" stroke-miterlimit="10"/>
<path opacity="0.18" d="M908.648 103.933H862.502C858.614 103.933 855.463 101.139 855.463 97.6929V57.0132C855.463 53.5668 858.614 50.7734 862.502 50.7734H908.648C912.535 50.7734 915.686 53.5668 915.686 57.0132V97.6929C915.686 101.139 912.535 103.933 908.648 103.933Z" stroke="#1D1D1B" stroke-width="2" stroke-miterlimit="10"/>
<path opacity="0.18" d="M984.326 103.933H938.179C934.292 103.933 931.141 101.139 931.141 97.6929V57.0132C931.141 53.5668 934.292 50.7734 938.179 50.7734H984.326C988.213 50.7734 991.364 53.5668 991.364 57.0132V97.6929C991.364 101.139 988.213 103.933 984.326 103.933Z" stroke="#1D1D1B" stroke-width="2" stroke-miterlimit="10"/>
<path opacity="0.18" d="M1117.79 103.933H1012.48C1008.59 103.933 1005.44 101.139 1005.44 97.6929V57.0132C1005.44 53.5668 1008.59 50.7734 1012.48 50.7734H1117.79C1121.67 50.7734 1124.82 53.5668 1124.82 57.0132V97.6929C1124.84 101.139 1121.67 103.933 1117.79 103.933Z" stroke="#1D1D1B" stroke-width="2" stroke-miterlimit="10"/>
<path opacity="0.18" d="M210.424 37.7137H164.278C160.39 37.7137 157.24 34.9203 157.24 31.4738V7.79645C157.24 4.35004 160.39 1.55664 164.278 1.55664H210.424C214.312 1.55664 217.463 4.35004 217.463 7.79645V31.4738C217.477 34.9203 214.312 37.7137 210.424 37.7137Z" stroke="#1D1D1B" stroke-width="2" stroke-miterlimit="10"/>
<path opacity="0.18" d="M278.614 37.7137H232.468C228.58 37.7137 225.429 34.9203 225.429 31.4738V7.79645C225.429 4.35004 228.58 1.55664 232.468 1.55664H278.614C282.501 1.55664 285.652 4.35004 285.652 7.79645V31.4738C285.652 34.9203 282.501 37.7137 278.614 37.7137Z" stroke="#1D1D1B" stroke-width="2" stroke-miterlimit="10"/>
<path opacity="0.18" d="M346.804 37.7137H300.658C296.77 37.7137 293.619 34.9203 293.619 31.4738V7.79645C293.619 4.35004 296.77 1.55664 300.658 1.55664H346.804C350.692 1.55664 353.843 4.35004 353.843 7.79645V31.4738C353.843 34.9203 350.692 37.7137 346.804 37.7137Z" stroke="#1D1D1B" stroke-width="2" stroke-miterlimit="10"/>
<path opacity="0.18" d="M414.98 37.7137H368.834C364.946 37.7137 361.795 34.9203 361.795 31.4738V7.79645C361.795 4.35004 364.946 1.55664 368.834 1.55664H414.98C418.867 1.55664 422.018 4.35004 422.018 7.79645V31.4738C422.032 34.9203 418.881 37.7137 414.98 37.7137Z" stroke="#1D1D1B" stroke-width="2" stroke-miterlimit="10"/>
<path opacity="0.18" d="M483.169 37.7137H437.023C433.135 37.7137 429.984 34.9203 429.984 31.4738V7.79645C429.984 4.35004 433.135 1.55664 437.023 1.55664H483.169C487.057 1.55664 490.208 4.35004 490.208 7.79645V31.4738C490.222 34.9203 487.057 37.7137 483.169 37.7137Z" stroke="#1D1D1B" stroke-width="2" stroke-miterlimit="10"/>
<path opacity="0.18" d="M551.358 37.7137H505.212C501.324 37.7137 498.173 34.9203 498.173 31.4738V7.79645C498.173 4.35004 501.324 1.55664 505.212 1.55664H551.358C555.245 1.55664 558.396 4.35004 558.396 7.79645V31.4738C558.396 34.9203 555.245 37.7137 551.358 37.7137Z" stroke="#1D1D1B" stroke-width="2" stroke-miterlimit="10"/>
<path opacity="0.18" d="M619.548 37.7137H573.402C569.515 37.7137 566.364 34.9203 566.364 31.4738V7.79645C566.364 4.35004 569.515 1.55664 573.402 1.55664H619.548C623.436 1.55664 626.587 4.35004 626.587 7.79645V31.4738C626.587 34.9203 623.436 37.7137 619.548 37.7137Z" stroke="#1D1D1B" stroke-width="2" stroke-miterlimit="10"/>
<path opacity="0.18" d="M687.724 37.7137H641.592C637.704 37.7137 634.553 34.9203 634.553 31.4738V7.79645C634.553 4.35004 637.704 1.55664 641.592 1.55664H687.738C691.625 1.55664 694.776 4.35004 694.776 7.79645V31.4738C694.776 34.9203 691.625 37.7137 687.724 37.7137Z" stroke="#1D1D1B" stroke-width="2" stroke-miterlimit="10"/>
<path opacity="0.18" d="M749.039 37.7137H716.656C712.769 37.7137 709.618 34.9203 709.618 31.4738V7.79645C709.618 4.35004 712.769 1.55664 716.656 1.55664H749.039C752.927 1.55664 756.078 4.35004 756.078 7.79645V31.4738C756.078 34.9203 752.927 37.7137 749.039 37.7137Z" stroke="#1D1D1B" stroke-width="2" stroke-miterlimit="10"/>
<path opacity="0.18" d="M819.288 37.7137H782.772C778.884 37.7137 775.733 34.9203 775.733 31.4738V7.79645C775.733 4.35004 778.884 1.55664 782.772 1.55664H819.288C823.176 1.55664 826.327 4.35004 826.327 7.79645V31.4738C826.327 34.9203 823.176 37.7137 819.288 37.7137Z" stroke="#1D1D1B" stroke-width="2" stroke-miterlimit="10"/>
<path opacity="0.18" d="M887.463 37.7137H850.947C847.06 37.7137 843.909 34.9203 843.909 31.4738V7.79645C843.909 4.35004 847.06 1.55664 850.947 1.55664H887.463C891.351 1.55664 894.502 4.35004 894.502 7.79645V31.4738C894.516 34.9203 891.365 37.7137 887.463 37.7137Z" stroke="#1D1D1B" stroke-width="2" stroke-miterlimit="10"/>
<path opacity="0.18" d="M1092.03 37.7137H1055.52C1051.63 37.7137 1048.48 34.9203 1048.48 31.4738V7.79645C1048.48 4.35004 1051.63 1.55664 1055.52 1.55664H1092.03C1095.92 1.55664 1099.07 4.35004 1099.07 7.79645V31.4738C1099.07 34.9203 1095.92 37.7137 1092.03 37.7137Z" stroke="#1D1D1B" stroke-width="2" stroke-miterlimit="10"/>
<path opacity="0.18" d="M958.409 37.7137H916.395C912.508 37.7137 909.357 34.9203 909.357 31.4738V7.79645C909.357 4.35004 912.508 1.55664 916.395 1.55664H958.409C962.296 1.55664 965.447 4.35004 965.447 7.79645V31.4738C965.447 34.9203 962.296 37.7137 958.409 37.7137Z" stroke="#1D1D1B" stroke-width="2" stroke-miterlimit="10"/>
<path opacity="0.18" d="M1027.28 37.7137H983.889C980.001 37.7137 976.85 34.9203 976.85 31.4738V7.79645C976.85 4.35004 980.001 1.55664 983.889 1.55664H1027.28C1031.17 1.55664 1034.32 4.35004 1034.32 7.79645V31.4738C1034.33 34.9203 1031.17 37.7137 1027.28 37.7137Z" stroke="#1D1D1B" stroke-width="2" stroke-miterlimit="10"/>
<path opacity="0.18" d="M1161.59 37.7137H1122.33C1118.44 37.7137 1115.29 34.9203 1115.29 31.4738V7.79645C1115.29 4.35004 1118.44 1.55664 1122.33 1.55664H1161.59C1165.47 1.55664 1168.62 4.35004 1168.62 7.79645V31.4738C1168.64 34.9203 1165.49 37.7137 1161.59 37.7137Z" stroke="#1D1D1B" stroke-width="2" stroke-miterlimit="10"/>
<path opacity="0.18" d="M1227.02 37.7137H1193.26C1189.37 37.7137 1186.22 34.9203 1186.22 31.4738V7.79645C1186.22 4.35004 1189.37 1.55664 1193.26 1.55664H1227.02C1230.91 1.55664 1234.06 4.35004 1234.06 7.79645V31.4738C1234.07 34.9203 1230.91 37.7137 1227.02 37.7137Z" stroke="#1D1D1B" stroke-width="2" stroke-miterlimit="10"/>
<path opacity="0.18" d="M1295.21 37.7137H1261.45C1257.56 37.7137 1254.41 34.9203 1254.41 31.4738V7.79645C1254.41 4.35004 1257.56 1.55664 1261.45 1.55664H1295.21C1299.1 1.55664 1302.25 4.35004 1302.25 7.79645V31.4738C1302.25 34.9203 1299.1 37.7137 1295.21 37.7137Z" stroke="#1D1D1B" stroke-width="2" stroke-miterlimit="10"/>
<path opacity="0.18" d="M1306.3 103.933H1272.54C1268.65 103.933 1265.5 101.139 1265.5 97.6929V56.4449C1265.5 52.9985 1268.65 50.2051 1272.54 50.2051H1306.3C1310.19 50.2051 1313.34 52.9985 1313.34 56.4449V97.6929C1313.34 101.139 1310.19 103.933 1306.3 103.933Z" stroke="#1D1D1B" stroke-width="2" stroke-miterlimit="10"/>
<path opacity="0.18" d="M1248.04 103.933H1214.28C1210.39 103.933 1207.24 101.139 1207.24 97.6929V56.4449C1207.24 52.9985 1210.39 50.2051 1214.28 50.2051H1248.04C1251.93 50.2051 1255.08 52.9985 1255.08 56.4449V97.6929C1255.09 101.139 1251.94 103.933 1248.04 103.933Z" stroke="#1D1D1B" stroke-width="2" stroke-miterlimit="10"/>
<path opacity="0.18" d="M1184.94 103.933H1151.18C1147.29 103.933 1144.14 101.139 1144.14 97.6929V56.4449C1144.14 52.9985 1147.29 50.2051 1151.18 50.2051H1184.94C1188.83 50.2051 1191.98 52.9985 1191.98 56.4449V97.6929C1191.98 101.139 1188.83 103.933 1184.94 103.933Z" stroke="#1D1D1B" stroke-width="2" stroke-miterlimit="10"/>
<path opacity="0.18" d="M1306.3 170.563H1272.54C1268.65 170.563 1265.5 167.77 1265.5 164.323V123.535C1265.5 120.088 1268.65 117.295 1272.54 117.295H1306.3C1310.19 117.295 1313.34 120.088 1313.34 123.535V164.323C1313.34 167.77 1310.19 170.563 1306.3 170.563Z" stroke="#1D1D1B" stroke-width="2" stroke-miterlimit="10"/>
<path opacity="0.18" d="M1248.04 170.563H1214.28C1210.39 170.563 1207.24 167.77 1207.24 164.323V123.535C1207.24 120.088 1210.39 117.295 1214.28 117.295H1248.04C1251.93 117.295 1255.08 120.088 1255.08 123.535V164.323C1255.09 167.77 1251.94 170.563 1248.04 170.563Z" stroke="#1D1D1B" stroke-width="2" stroke-miterlimit="10"/>
<path opacity="0.18" d="M1184.94 170.563H1151.18C1147.29 170.563 1144.14 167.77 1144.14 164.323V123.535C1144.14 120.088 1147.29 117.295 1151.18 117.295H1184.94C1188.83 117.295 1191.98 120.088 1191.98 123.535V164.323C1191.98 167.77 1188.83 170.563 1184.94 170.563Z" stroke="#1D1D1B" stroke-width="2" stroke-miterlimit="10"/>
<path opacity="0.18" d="M1306.3 238.053H1272.54C1268.65 238.053 1265.5 235.259 1265.5 231.813V190.637C1265.5 187.191 1268.65 184.397 1272.54 184.397H1306.3C1310.19 184.397 1313.34 187.191 1313.34 190.637V231.813C1313.34 235.247 1310.19 238.053 1306.3 238.053Z" stroke="#1D1D1B" stroke-opacity="0.9" stroke-width="2" stroke-miterlimit="10"/>
<path opacity="0.18" d="M1248.04 238.053H1214.28C1210.39 238.053 1207.24 235.259 1207.24 231.813V190.637C1207.24 187.191 1210.39 184.397 1214.28 184.397H1248.04C1251.93 184.397 1255.08 187.191 1255.08 190.637V231.813C1255.09 235.247 1251.94 238.053 1248.04 238.053Z" stroke="#1D1D1B" stroke-opacity="0.9" stroke-width="2" stroke-miterlimit="10"/>
<path opacity="0.18" d="M1184.94 238.053H1151.18C1147.29 238.053 1144.14 235.259 1144.14 231.813V190.637C1144.14 187.191 1147.29 184.397 1151.18 184.397H1184.94C1188.83 184.397 1191.98 187.191 1191.98 190.637V231.813C1191.98 235.247 1188.83 238.053 1184.94 238.053Z" stroke="#1D1D1B" stroke-opacity="0.9" stroke-width="2" stroke-miterlimit="10"/>
<path opacity="0.18" d="M1119.16 302.119H1085.4C1081.52 302.119 1078.36 299.326 1078.36 295.879V254.668C1078.36 251.221 1081.52 248.428 1085.4 248.428H1119.16C1123.05 248.428 1126.2 251.221 1126.2 254.668V295.879C1126.22 299.326 1123.05 302.119 1119.16 302.119Z" stroke="#1D1D1B" stroke-opacity="0.6" stroke-width="2" stroke-miterlimit="10"/>
<path opacity="0.18" d="M1060 369.91H1026.24C1022.36 369.91 1019.2 367.117 1019.2 363.67V325.433C1019.2 321.987 1022.36 319.193 1026.24 319.193H1060C1063.89 319.193 1067.04 321.987 1067.04 325.433V363.67C1067.04 367.117 1063.89 369.91 1060 369.91Z" stroke="#1D1D1B" stroke-opacity="0.3" stroke-width="2" stroke-miterlimit="10"/>
<path opacity="0.18" d="M1119.16 369.91H1085.4C1081.52 369.91 1078.36 367.117 1078.36 363.67V325.433C1078.36 321.987 1081.52 319.193 1085.4 319.193H1119.16C1123.05 319.193 1126.2 321.987 1126.2 325.433V363.67C1126.22 367.117 1123.05 369.91 1119.16 369.91Z" stroke="#1D1D1B" stroke-opacity="0.3" stroke-width="2" stroke-miterlimit="10"/>
<path opacity="0.18" d="M1306.3 302.119H1272.54C1268.65 302.119 1265.5 299.325 1265.5 295.879V257.714C1265.5 254.268 1268.65 251.475 1272.54 251.475H1306.3C1310.19 251.475 1313.34 254.268 1313.34 257.714V295.879C1313.34 299.325 1310.19 302.119 1306.3 302.119Z" stroke="#1D1D1B" stroke-opacity="0.6" stroke-width="2" stroke-miterlimit="10"/>
<path opacity="0.18" d="M1248.04 302.119H1214.28C1210.39 302.119 1207.24 299.325 1207.24 295.879V257.714C1207.24 254.268 1210.39 251.475 1214.28 251.475H1248.04C1251.93 251.475 1255.08 254.268 1255.08 257.714V295.879C1255.09 299.325 1251.94 302.119 1248.04 302.119Z" stroke="#1D1D1B" stroke-opacity="0.6" stroke-width="2" stroke-miterlimit="10"/>
<path opacity="0.18" d="M1184.94 302.119H1151.18C1147.29 302.119 1144.14 299.325 1144.14 295.879V257.714C1144.14 254.268 1147.29 251.475 1151.18 251.475H1184.94C1188.83 251.475 1191.98 254.268 1191.98 257.714V295.879C1191.98 299.325 1188.83 302.119 1184.94 302.119Z" stroke="#1D1D1B" stroke-opacity="0.6" stroke-width="2" stroke-miterlimit="10"/>
<path opacity="0.18" d="M1306.3 369.789H1272.54C1268.65 369.789 1265.5 366.996 1265.5 363.549V326.026C1265.5 322.58 1268.65 319.786 1272.54 319.786H1306.3C1310.19 319.786 1313.34 322.58 1313.34 326.026V363.549C1313.34 366.984 1310.19 369.789 1306.3 369.789Z" stroke="#1D1D1B" stroke-opacity="0.3" stroke-width="2" stroke-miterlimit="10"/>
<path opacity="0.18" d="M1248.04 369.789H1214.28C1210.39 369.789 1207.24 366.996 1207.24 363.549V326.026C1207.24 322.58 1210.39 319.786 1214.28 319.786H1248.04C1251.93 319.786 1255.08 322.58 1255.08 326.026V363.549C1255.09 366.984 1251.94 369.789 1248.04 369.789Z" stroke="#1D1D1B" stroke-opacity="0.3" stroke-width="2" stroke-miterlimit="10"/>
<path opacity="0.18" d="M1184.94 369.789H1151.18C1147.29 369.789 1144.14 366.996 1144.14 363.549V326.026C1144.14 322.58 1147.29 319.786 1151.18 319.786H1184.94C1188.83 319.786 1191.98 322.58 1191.98 326.026V363.549C1191.98 366.984 1188.83 369.789 1184.94 369.789Z" stroke="#1D1D1B" stroke-opacity="0.3" stroke-width="2" stroke-miterlimit="10"/>
<path opacity="0.18" d="M1359.96 37.7137H1333.08C1329.19 37.7137 1326.04 34.9203 1326.04 31.4738V7.79645C1326.04 4.35004 1329.19 1.55664 1333.08 1.55664H1359.96C1363.85 1.55664 1367 4.35004 1367 7.79645V31.4738C1367 34.9203 1363.85 37.7137 1359.96 37.7137Z" stroke="#1D1D1B" stroke-width="2" stroke-miterlimit="10"/>
<path opacity="0.18" d="M1359.96 103.933H1333.08C1329.19 103.933 1326.04 101.139 1326.04 97.6929V56.4449C1326.04 52.9985 1329.19 50.2051 1333.08 50.2051H1359.96C1363.85 50.2051 1367 52.9985 1367 56.4449V97.6929C1367 101.139 1363.85 103.933 1359.96 103.933Z" stroke="#1D1D1B" stroke-width="2" stroke-miterlimit="10"/>
<path opacity="0.18" d="M1359.96 230.119H1333.08C1329.19 230.119 1326.04 227.326 1326.04 223.879V118.552C1326.04 115.106 1329.19 112.312 1333.08 112.312H1359.96C1363.85 112.312 1367 115.106 1367 118.552V223.879C1367 227.326 1363.85 230.119 1359.96 230.119Z" stroke="#1D1D1B" stroke-opacity="0.9" stroke-width="2" stroke-miterlimit="10"/>
<path opacity="0.18" d="M1359.96 370.394H1333.08C1329.19 370.394 1326.04 367.601 1326.04 364.155V249.069C1326.04 245.623 1329.19 242.829 1333.08 242.829H1359.96C1363.85 242.829 1367 245.623 1367 249.069V364.155C1367 367.601 1363.85 370.394 1359.96 370.394Z" stroke="#1D1D1B" stroke-opacity="0.3" stroke-width="2" stroke-miterlimit="10"/>
</svg>
