<svg width="177" height="22" viewBox="0 0 177 22" fill="none" xmlns="http://www.w3.org/2000/svg">
<g clip-path="url(#clip0_1_1713)">
<path d="M0 21.3023V0.4085C0 0.193866 0.174147 0.0205078 0.389758 0.0205078H5.3032C5.4732 0.0205078 5.62247 0.127825 5.67637 0.2888L12.2732 20.7162C12.323 20.8772 12.4764 20.9845 12.6423 20.9845H12.8537C13.0237 20.9845 13.173 20.8772 13.2228 20.7162L19.8569 0.2888C19.9108 0.127825 20.0601 0.0205078 20.2301 0.0205078H25.1104C25.326 0.0205078 25.5001 0.193866 25.5001 0.4085V21.3064C25.5001 21.5211 25.326 21.6944 25.1104 21.6944H23.116C22.9004 21.6944 22.7262 21.5211 22.7262 21.3064V3.91282C22.7262 3.00062 22.8423 2.09668 23.0745 1.21338C23.1367 0.965724 22.9543 0.726324 22.6972 0.726324H22.6723C22.5023 0.726324 22.3531 0.833641 22.3033 0.994617L15.6318 21.4261C15.5779 21.5871 15.4286 21.6944 15.2628 21.6944H10.2374C10.0674 21.6944 9.9181 21.5871 9.8642 21.4261L3.20099 0.994617C3.15124 0.833641 3.00197 0.726324 2.83197 0.726324C2.57904 0.726324 2.39245 0.961596 2.45465 1.20512L2.64953 2.00175C2.73245 2.35672 2.77806 2.72407 2.77806 3.09555V21.3064C2.77806 21.5211 2.60392 21.6944 2.38831 21.6944H0.389758C0.174147 21.6944 0 21.5169 0 21.3023Z" fill="#313131"/>
<path d="M36.8071 21.3023V0.4085C36.8071 0.193866 36.9813 0.0205078 37.1969 0.0205078H51.2157C51.4314 0.0205078 51.6055 0.193866 51.6055 0.4085V1.78298C51.6055 1.99762 51.4314 2.17098 51.2157 2.17098H39.975C39.7593 2.17098 39.5852 2.34434 39.5852 2.55897V9.37773C39.5852 9.59237 39.7593 9.76572 39.975 9.76572H49.524C49.7396 9.76572 49.9138 9.93908 49.9138 10.1537V11.5282C49.9138 11.7428 49.7396 11.9162 49.524 11.9162H39.975C39.7593 11.9162 39.5852 12.0896 39.5852 12.3042V19.1518C39.5852 19.3665 39.7593 19.5398 39.975 19.5398H51.2157C51.4314 19.5398 51.6055 19.7132 51.6055 19.9278V21.3023C51.6055 21.5169 51.4314 21.6903 51.2157 21.6903H37.1969C36.9813 21.6944 36.8071 21.5169 36.8071 21.3023Z" fill="#313131"/>
<path d="M62.3076 21.3023V0.4085C62.3076 0.193866 62.4818 0.0205078 62.6974 0.0205078H67.6689C67.8098 0.0205078 67.9384 0.0948042 68.0089 0.218632L79.7058 20.7905C79.7762 20.9102 79.9048 20.9886 80.0458 20.9886H80.0997C80.3526 20.9886 80.5392 20.7533 80.477 20.5098C80.2614 19.6224 80.1536 18.7143 80.1536 17.8021V0.4085C80.1536 0.193866 80.3277 0.0205078 80.5433 0.0205078H82.5087C82.7243 0.0205078 82.8985 0.193866 82.8985 0.4085V21.3064C82.8985 21.5211 82.7243 21.6944 82.5087 21.6944H77.5372C77.3962 21.6944 77.2677 21.6201 77.1972 21.4963L65.5335 0.924448C65.463 0.804748 65.3345 0.726324 65.1935 0.726324H65.1354C64.8825 0.726324 64.6959 0.961596 64.7581 1.20512L64.7664 1.22989C64.9779 2.10081 65.0857 2.99236 65.0857 3.88392V21.3023C65.0857 21.5169 64.9115 21.6903 64.6959 21.6903H62.7015C62.4818 21.6944 62.3076 21.5169 62.3076 21.3023Z" fill="#313131"/>
<path d="M93.9028 13.6376V0.404594C93.9028 0.18996 94.077 0.0166016 94.2926 0.0166016H96.287C96.5026 0.0166016 96.6768 0.18996 96.6768 0.404594V13.2372C96.6768 15.5115 97.1826 17.1832 98.1985 18.2481C99.2143 19.313 100.931 19.8455 103.344 19.8455C105.757 19.8455 107.482 19.313 108.506 18.2481C109.535 17.1832 110.049 15.5115 110.049 13.2372V0.404594C110.049 0.18996 110.223 0.0166016 110.439 0.0166016H112.437C112.653 0.0166016 112.827 0.18996 112.827 0.404594V13.6376C112.827 19.214 109.667 22.0001 103.344 22.0001C97.0499 22.0001 93.9028 19.214 93.9028 13.6376Z" fill="#313131"/>
<path d="M156.413 21.3023V0.4085C156.413 0.193866 156.587 0.0205078 156.803 0.0205078H161.774C161.915 0.0205078 162.044 0.0948042 162.114 0.218632L173.811 20.7905C173.882 20.9102 174.01 20.9886 174.151 20.9886H174.205C174.458 20.9886 174.645 20.7533 174.582 20.5098C174.367 19.6224 174.259 18.7143 174.259 17.8021V0.4085C174.259 0.193866 174.433 0.0205078 174.649 0.0205078H176.614C176.83 0.0205078 177.004 0.193866 177.004 0.4085V21.3064C177.004 21.5211 176.83 21.6944 176.614 21.6944H171.643C171.502 21.6944 171.373 21.6201 171.303 21.4963L159.639 0.924448C159.568 0.804748 159.44 0.726324 159.299 0.726324H159.241C158.988 0.726324 158.801 0.961596 158.864 1.20512C159.079 2.09255 159.187 3.00062 159.187 3.91282V21.3064C159.187 21.5211 159.013 21.6944 158.797 21.6944H156.803C156.587 21.6944 156.413 21.5169 156.413 21.3023Z" fill="#313131"/>
<path d="M142.237 21.7111H126.982C125.175 21.7111 123.703 20.2458 123.703 18.4462V3.26492C123.703 1.46529 125.175 0 126.982 0H142.237C144.045 0 145.517 1.46529 145.517 3.26492V18.4503C145.517 20.2458 144.045 21.7111 142.237 21.7111ZM126.982 2.25366C126.423 2.25366 125.971 2.70769 125.971 3.26079V18.4462C125.971 19.0034 126.423 19.4533 126.982 19.4533H142.237C142.797 19.4533 143.249 18.9993 143.249 18.4462V3.26492C143.249 2.70769 142.793 2.25779 142.237 2.25779H126.982V2.25366Z" fill="#313131"/>
<path d="M135.573 14.1656H132.364C131.775 14.1656 131.294 13.6868 131.294 13.1006V8.60984C131.294 8.02372 131.775 7.54492 132.364 7.54492H136.875C137.468 7.54492 137.945 8.02372 137.945 8.60984V11.8046C138.169 14.793 136.884 14.1656 135.573 14.1656Z" fill="#FE572D"/>
</g>
<defs>
<clipPath id="clip0_1_1713">
<rect width="177" height="22" fill="white"/>
</clipPath>
</defs>
</svg>
