<svg width="77" height="77" viewBox="0 0 77 77" fill="none" xmlns="http://www.w3.org/2000/svg">
<rect x="1" y="1" width="75" height="75" rx="12" stroke="#636363" stroke-width="2"/>
<path d="M44.14 46.8999V44.7679H33.012C35.326 43.8319 40.188 41.4919 42.242 39.0739C43.568 37.5139 43.698 35.8759 43.698 35.0699C43.698 33.0939 42.658 31.1699 41.046 30.0519C39.252 28.8039 37.276 28.7519 36.522 28.7519C34.026 28.7519 32.466 29.7139 31.66 30.3379C30.048 31.6119 29.554 33.1459 29.398 33.9259C29.268 34.4979 29.242 35.0699 29.19 35.6419L31.712 36.0319C31.764 34.7839 31.816 33.6139 32.622 32.5479C33.792 30.9879 35.872 30.9099 36.418 30.9099C38.966 30.9099 41.098 32.4179 41.098 35.1219C41.098 37.8779 38.446 39.4639 36.392 40.7379C34.156 42.1159 31.816 43.2859 29.476 44.4559V46.8999H44.14Z" fill="#1D1D1B"/>
<path d="M19.66 13.4L19.34 14.64C18.86 13.56 17.98 12.96 16.82 12.96C14.36 12.96 12.18 15.62 12.18 18.58C12.18 20.62 13.26 21.88 15.02 21.88C16.2 21.88 17.06 21.44 18.18 20.18C18.2 21.3 18.84 21.9 19.98 21.9C22.58 21.9 25.08 18.5 25.08 14.98C25.08 11.42 22.36 9.06005 18.26 9.06005C12.88 9.06005 8.55995 13.26 8.55995 18.52C8.55995 22.82 11.96 25.78 16.9 25.78C18.22 25.78 19.62 25.52 20.94 25.02C22.46 24.44 23.22 23.98 24.9 22.58L24.18 21.76C22.58 23.06 21.86 23.5 20.46 24.02C19.28 24.46 18.06 24.68 16.86 24.68C12.68 24.68 9.77995 22.14 9.77995 18.44C9.77995 13.84 13.56 10.12 18.22 10.12C21.64 10.12 23.9 12 23.9 14.86C23.9 17.04 22.82 19.42 21.36 20.38C21.02 20.6 20.74 20.7 20.46 20.7C20 20.7 19.8 20.4 19.8 19.66C19.8 19.1 19.88 18.64 20.22 17.26L21.16 13.4H19.66ZM13.9 18.56C13.9 16.26 15.36 14.22 16.98 14.22C18.04 14.22 18.78 14.94 18.78 16.28C18.78 18.56 17.24 20.6 15.64 20.6C14.58 20.6 13.9 19.82 13.9 18.56Z" fill="#1D1D1B"/>
<path d="M66.6999 13.92V11.76H65.7999V11.14C65.7999 10.44 65.9999 10.24 66.6999 10.16V9.06005C66.4199 9.08005 66.1199 9.12005 65.8399 9.20005C64.7399 9.54005 64.4999 10.3 64.4999 11.36V13.92H66.6999ZM62.9799 13.92V11.76H62.0799V11.14C62.0799 10.44 62.2799 10.24 62.9799 10.16V9.06005C62.6999 9.08005 62.3999 9.12005 62.1199 9.20005C61.0199 9.54005 60.7799 10.3 60.7799 11.36V13.92H62.9799Z" fill="#1D1D1B"/>
</svg>
