<svg width="77" height="77" viewBox="0 0 77 77" fill="none" xmlns="http://www.w3.org/2000/svg">
<rect x="1" y="1" width="75" height="75" rx="12" stroke="#636363" stroke-width="2"/>
<path d="M34.598 38.5019H37.016C39.954 38.5019 41.67 39.4119 41.67 41.7259C41.67 43.4679 40.37 45.1579 36.834 45.1579C34.468 45.1579 31.66 44.6119 31.166 41.4919L28.722 42.0639C29.554 45.9119 32.492 47.2639 36.834 47.2639C39.746 47.2639 44.348 46.2239 44.348 41.7779C44.348 38.8919 42.268 37.8519 40.916 37.2799C43.464 36.4219 43.62 34.4199 43.62 33.6919C43.62 29.7139 39.486 28.6739 36.652 28.6739C31.244 28.6739 29.918 31.4819 29.424 33.7179L31.816 34.1599C31.842 33.0679 32.804 30.6759 36.652 30.6759C38.966 30.6759 40.968 31.7679 40.968 33.8999C40.968 36.3699 38.238 36.5779 36.548 36.5779H34.598V38.5019Z" fill="#1D1D1B"/>
<path d="M21.9 15.12V13.64H18.44L18.88 9.18005H17.36L16.94 13.64H14.14L14.58 9.18005H13.02L12.6 13.64H8.75995V15.12H12.48L12.3 17.06H8.49995V18.48H12.14L11.68 23.3H13.16L13.68 18.48H16.5L15.98 23.3H17.54L18 18.48H21.66V17.06H18.14L18.32 15.12H21.9ZM16.8 15.12L16.62 17.06H13.8L14 15.12H16.8Z" fill="#1D1D1B"/>
<path d="M66.5401 19.66H58.62V21.28H66.5401V19.66ZM56.9 23.3V9.18005H54.98V20.58L45 9.18005H43.26V23.3H45.18V12.04L54.92 23.3H56.9ZM66.92 13.72C66.92 11.26 65.5001 9.18005 62.5601 9.18005C60.38 9.18005 58.1801 10.4 58.1801 13.68C58.1801 16.18 59.7 18.24 62.5001 18.24C65.4001 18.24 66.92 16.18 66.92 13.72ZM65.3001 13.76C65.3001 15.8 64.0201 16.8 62.5401 16.8C60.94 16.8 59.8 15.66 59.8 13.7C59.8 11.92 60.72 10.62 62.5601 10.62C64.4401 10.62 65.3001 12.14 65.3001 13.76Z" fill="#1D1D1B"/>
</svg>
