<svg width="77" height="77" viewBox="0 0 77 77" fill="none" xmlns="http://www.w3.org/2000/svg">
<rect x="1" y="1" width="75" height="75" rx="12" stroke="#636363" stroke-width="2"/>
<path d="M44.53 42.5839H41.462V46.8999H39.018V42.5839H28.618V40.5299L39.408 29.0119H41.436V40.5299H44.53V42.5839ZM39.018 40.5299V32.3139C38.6193 32.8166 36.0887 35.5552 31.426 40.5299H39.018Z" fill="#1D1D1B"/>
<path d="M14.64 25.98V23.58C11.5333 23.46 9.35995 22.3934 8.11995 20.38L10.04 19.66C10.52 20.38 11.18 20.92 12.02 21.28C12.8733 21.64 13.7533 21.8467 14.66 21.9V16.8C12.58 16.6534 11.1333 16.3134 10.32 15.78C9.35995 15.1267 8.87995 14.2334 8.87995 13.1C8.87995 11.7 9.48662 10.6334 10.7 9.90005C11.26 9.56671 11.84 9.34005 12.44 9.22005C13.04 9.10005 13.78 9.00671 14.66 8.94005V7.00005H16.24V8.98005C19.04 9.11338 21 10.02 22.12 11.7L20.22 12.42C19.3533 11.34 18.0266 10.7267 16.24 10.58V15.08L17.52 15.18C18.48 15.26 19.3133 15.4267 20.02 15.68C20.7266 15.92 21.3066 16.3467 21.76 16.96C22.2266 17.6 22.46 18.34 22.46 19.18C22.46 20.74 21.7733 21.92 20.4 22.72C19.9866 22.96 19.5133 23.1467 18.98 23.28C18.46 23.4 18.02 23.4734 17.66 23.5C17.3133 23.54 16.82 23.5734 16.18 23.6V25.98H14.64ZM14.66 14.98V10.48C12.0866 10.68 10.8 11.46 10.8 12.82C10.8 13.2734 10.9333 13.6467 11.2 13.94C11.4933 14.26 11.8933 14.4934 12.4 14.64C12.9066 14.7734 13.66 14.8867 14.66 14.98ZM16.22 16.88V21.94C16.6333 21.94 17.04 21.9134 17.44 21.86C17.8533 21.7934 18.3133 21.68 18.82 21.52C19.34 21.3467 19.7533 21.0667 20.06 20.68C20.38 20.2934 20.54 19.82 20.54 19.26C20.54 18.6734 20.3666 18.2134 20.02 17.88C19.7133 17.5734 19.2733 17.3534 18.7 17.22C18.14 17.0867 17.3133 16.9734 16.22 16.88Z" fill="#1D1D1B"/>
<path d="M63.8001 15.54H61.6201V13.36H63.8001V15.54ZM61.6201 21.14H63.8001V23.68C63.8001 24.4 63.6468 24.9534 63.3401 25.34C63.0468 25.7267 62.4735 25.9467 61.6201 26V24.9C61.9668 24.86 62.2001 24.7667 62.3201 24.62C62.4535 24.4867 62.5201 24.2534 62.5201 23.92V23.3H61.6201V21.14Z" fill="#1D1D1B"/>
</svg>
