<svg width="77" height="77" viewBox="0 0 77 77" fill="none" xmlns="http://www.w3.org/2000/svg">
<rect x="1" y="1" width="75" height="75" rx="12" stroke="#636363" stroke-width="2"/>
<path d="M29.996 29.0119H43.724L43.594 31.2219H31.946L31.66 35.9799C33.116 34.7319 34.9707 34.1079 37.224 34.1079C39.4773 34.1079 41.2627 34.7146 42.58 35.9279C43.9147 37.1412 44.582 38.6232 44.582 40.3739C44.582 42.2632 43.8453 43.8839 42.372 45.2359C40.916 46.5879 38.9747 47.2639 36.548 47.2639C34.3987 47.2639 32.6567 46.7786 31.322 45.8079C30.0047 44.8372 29.138 43.6499 28.722 42.2459L31.166 41.7259C32.1887 44.0312 34.0433 45.1839 36.73 45.1839C38.4633 45.1839 39.772 44.7246 40.656 43.8059C41.54 42.8699 41.982 41.7866 41.982 40.5559C41.982 39.7412 41.8087 39.0306 41.462 38.4239C41.1327 37.8172 40.6907 37.3666 40.136 37.0719C39.5987 36.7599 39.0613 36.5346 38.524 36.3959C37.9867 36.2572 37.4493 36.1879 36.912 36.1879C35.7507 36.1879 34.6673 36.4479 33.662 36.9679C32.674 37.4879 31.946 38.2159 31.478 39.1519L29.476 38.7619L29.996 29.0119Z" fill="#1D1D1B"/>
<path d="M22.9 9.90005L14.26 23.54L13.28 22.94L21.92 9.28005L22.9 9.90005ZM16.26 13.92C16.26 14.4534 16.18 14.9734 16.02 15.48C15.8733 15.9867 15.6466 16.4667 15.34 16.92C15.0333 17.3734 14.6066 17.74 14.06 18.02C13.5266 18.3 12.9066 18.44 12.2 18.44C11.08 18.44 10.1333 18.0534 9.35995 17.28C8.59995 16.5067 8.21995 15.4067 8.21995 13.98C8.21995 12.6867 8.59995 11.6067 9.35995 10.74C10.1333 9.87338 11.1133 9.44005 12.3 9.44005C13.5133 9.44005 14.4733 9.88671 15.18 10.78C15.9 11.6734 16.26 12.72 16.26 13.92ZM14.86 13.96C14.86 13.0934 14.6333 12.32 14.18 11.64C13.74 10.9467 13.0933 10.6 12.24 10.6C11.5466 10.6 10.94 10.9 10.42 11.5C9.89995 12.0867 9.63995 12.9267 9.63995 14.02C9.63995 15.1534 9.89995 15.98 10.42 16.5C10.9533 17.0067 11.5533 17.26 12.22 17.26C13.1 17.26 13.76 16.94 14.2 16.3C14.64 15.6467 14.86 14.8667 14.86 13.96ZM27.94 18.86C27.94 19.22 27.9 19.5934 27.82 19.98C27.7533 20.3534 27.6266 20.7534 27.44 21.18C27.2533 21.5934 27.0133 21.96 26.72 22.28C26.4266 22.6 26.0333 22.8667 25.54 23.08C25.0466 23.28 24.4933 23.38 23.88 23.38C22.76 23.38 21.8133 22.9934 21.04 22.22C20.28 21.4467 19.9 20.3467 19.9 18.92C19.9 18.4267 19.9733 17.9334 20.12 17.44C20.2666 16.9334 20.4933 16.4467 20.8 15.98C21.1066 15.5 21.5333 15.1134 22.08 14.82C22.6266 14.5267 23.26 14.38 23.98 14.38C25.2066 14.38 26.1733 14.82 26.88 15.7C27.5866 16.58 27.94 17.6334 27.94 18.86ZM26.52 18.9C26.52 17.98 26.3 17.1934 25.86 16.54C25.42 15.8867 24.7666 15.56 23.9 15.56C23.2066 15.56 22.6 15.8534 22.08 16.44C21.56 17.0267 21.3 17.8667 21.3 18.96C21.3 20.0934 21.5666 20.92 22.1 21.44C22.6333 21.9467 23.2333 22.2 23.9 22.2C24.78 22.2 25.4333 21.88 25.86 21.24C26.3 20.5867 26.52 19.8067 26.52 18.9Z" fill="#1D1D1B"/>
</svg>
