<svg width="77" height="77" viewBox="0 0 77 77" fill="none" xmlns="http://www.w3.org/2000/svg">
<rect x="1" y="1" width="75" height="75" rx="12" stroke="#636363" stroke-width="2"/>
<path d="M44.998 32.2879L42.58 33.1979C42.0947 32.4526 41.4273 31.8632 40.578 31.4299C39.7287 30.9966 38.8013 30.7799 37.796 30.7799C35.9413 30.7799 34.442 31.4126 33.298 32.6779C32.102 33.9779 31.504 35.8586 31.504 38.3199C31.8333 37.3492 32.57 36.5432 33.714 35.9019C34.858 35.2606 36.2013 34.9399 37.744 34.9399C39.8413 34.9399 41.6007 35.4599 43.022 36.4999C44.4433 37.5226 45.154 39.0046 45.154 40.9459C45.154 42.7832 44.478 44.3086 43.126 45.5219C41.774 46.7179 39.928 47.3159 37.588 47.3159C36.3573 47.3159 35.2567 47.1426 34.286 46.7959C33.3153 46.4319 32.518 45.9639 31.894 45.3919C31.27 44.8026 30.75 44.1092 30.334 43.3119C29.918 42.4972 29.6233 41.6652 29.45 40.8159C29.2767 39.9666 29.19 39.0652 29.19 38.1119C29.19 36.4652 29.4413 35.0179 29.944 33.7699C30.464 32.5046 31.1573 31.5166 32.024 30.8059C32.8907 30.0779 33.8267 29.5406 34.832 29.1939C35.8373 28.8472 36.8947 28.6739 38.004 28.6739C39.512 28.6739 40.8813 29.0206 42.112 29.7139C43.36 30.4072 44.322 31.2652 44.998 32.2879ZM42.684 41.1019C42.684 39.7672 42.1553 38.7532 41.098 38.0599C40.0407 37.3666 38.8187 37.0199 37.432 37.0199C35.82 37.0199 34.5547 37.4099 33.636 38.1899C32.7347 38.9699 32.284 39.9406 32.284 41.1019C32.284 42.0726 32.5873 42.8786 33.194 43.5199C33.8007 44.1612 34.494 44.6032 35.274 44.8459C36.054 45.0712 36.8687 45.1839 37.718 45.1839C39.1047 45.1839 40.2747 44.8459 41.228 44.1699C42.1987 43.4939 42.684 42.4712 42.684 41.1019Z" fill="#1D1D1B"/>
<path d="M20.58 18.6799H18.48L15.46 12.3599L12.36 18.6799H10.26L14.54 10.2799H16.5L20.58 18.6799Z" fill="#1D1D1B"/>
<path d="M63.7801 16.6799H61.6001V14.5199H63.7801V16.6799ZM63.8001 24.3999H61.6201V22.2599H63.8001V24.3999Z" fill="#1D1D1B"/>
</svg>
