<svg width="77" height="77" viewBox="0 0 77 77" fill="none" xmlns="http://www.w3.org/2000/svg">
<rect x="1" y="1" width="75" height="75" rx="12" stroke="#636363" stroke-width="2"/>
<path d="M55.488 47.576H53.04V49.64C44.352 49.64 43.056 53.072 43.056 56.336C43.056 59.792 44.328 62.96 53.04 62.96V65.24H55.488V62.96C64.128 62.96 65.472 59.576 65.472 56.336C65.472 53.072 64.176 49.64 55.488 49.64V47.576ZM53.112 60.944C46.944 60.944 45.576 59.096 45.576 56.288C45.576 53.528 46.944 51.656 53.112 51.656V60.944ZM55.416 51.656C61.608 51.656 62.952 53.528 62.952 56.288C62.952 59.096 61.584 60.944 55.416 60.944V51.656Z" fill="#1D1D1B"/>
<path d="M30.016 29L21.328 12.056H18.76L9.976 29H12.688L14.752 24.824H25.168L27.232 29H30.016ZM24.136 22.88H15.76L19.984 14.48L24.136 22.88Z" fill="#1D1D1B"/>
</svg>
