<svg width="77" height="77" viewBox="0 0 77 77" fill="none" xmlns="http://www.w3.org/2000/svg">
<rect x="1" y="1" width="75" height="75" rx="12" stroke="#636363" stroke-width="2"/>
<path d="M46.944 65H49.392V63.128L62.496 52.232V65H64.944V48.056H62.496V49.736L49.392 60.632V48.056H46.944V65Z" fill="#1D1D1B"/>
<path d="M12.04 29H22.912C25.192 29 27.952 28.976 29.392 26.792C30.088 25.736 30.112 24.728 30.112 24.272C30.112 21.776 28.576 20.456 26.896 19.928C27.136 19.784 29.272 19.304 29.272 16.448C29.272 12.536 25.552 12.056 23.176 12.056H12.04V29ZM14.464 19.208V14H22.888C23.824 14 24.808 14 25.648 14.528C26.68 15.176 26.776 16.184 26.776 16.616C26.776 17.384 26.488 17.912 26.32 18.152C25.6 19.184 24.424 19.208 23.32 19.208H14.464ZM14.464 27.032V21.152H23.632C24.928 21.152 26.296 21.224 27.112 22.4C27.592 23.096 27.592 23.744 27.592 24.104C27.592 24.944 27.28 25.544 27.04 25.832C26.2 26.912 24.88 27.032 23.632 27.032H14.464Z" fill="#1D1D1B"/>
</svg>
