<svg width="77" height="77" viewBox="0 0 77 77" fill="none" xmlns="http://www.w3.org/2000/svg">
<rect x="1" y="1" width="75" height="75" rx="12" stroke="#636363" stroke-width="2"/>
<path d="M62.744 59.84C61.208 62.744 58.112 63.32 55.784 63.32C51.248 63.32 47.72 61.136 47.72 56.384C47.72 51.32 51.752 49.664 55.496 49.664C58.232 49.664 61.04 50.552 62.36 53.024L64.928 52.472C62.984 48.92 59.432 47.552 55.4 47.552C48.992 47.552 45.176 51.128 45.176 56.408C45.176 62.456 49.688 65.432 55.448 65.432C59 65.432 63.296 64.496 65.288 60.368L62.744 59.84Z" fill="#1D1D1B"/>
<path d="M28.744 23.84C27.208 26.744 24.112 27.32 21.784 27.32C17.248 27.32 13.72 25.136 13.72 20.384C13.72 15.32 17.752 13.664 21.496 13.664C24.232 13.664 27.04 14.552 28.36 17.024L30.928 16.472C28.984 12.92 25.432 11.552 21.4 11.552C14.992 11.552 11.176 15.128 11.176 20.408C11.176 26.456 15.688 29.432 21.448 29.432C25 29.432 29.296 28.496 31.288 24.368L28.744 23.84Z" fill="#1D1D1B"/>
</svg>
