<svg width="77" height="77" viewBox="0 0 77 77" fill="none" xmlns="http://www.w3.org/2000/svg">
<rect x="1" y="1" width="75" height="75" rx="12" stroke="#636363" stroke-width="2"/>
<path d="M47.04 65H57.912C60.192 65 62.952 64.976 64.392 62.792C65.088 61.736 65.112 60.728 65.112 60.272C65.112 57.776 63.576 56.456 61.896 55.928C62.136 55.784 64.272 55.304 64.272 52.448C64.272 48.536 60.552 48.056 58.176 48.056H47.04V65ZM49.464 55.208V50H57.888C58.824 50 59.808 50 60.648 50.528C61.68 51.176 61.776 52.184 61.776 52.616C61.776 53.384 61.488 53.912 61.32 54.152C60.6 55.184 59.424 55.208 58.32 55.208H49.464ZM49.464 63.032V57.152H58.632C59.928 57.152 61.296 57.224 62.112 58.4C62.592 59.096 62.592 59.744 62.592 60.104C62.592 60.944 62.28 61.544 62.04 61.832C61.2 62.912 59.88 63.032 58.632 63.032H49.464Z" fill="#1D1D1B"/>
<path d="M12.04 29H18.808C21.64 29 24.592 28.928 26.896 26.984C28.816 25.376 29.752 22.856 29.752 20.408C29.752 17.6 28.648 14.984 26.272 13.424C24.16 12.056 22.24 12.056 20.464 12.056H12.04V29ZM14.464 26.96V14.048H20.464C21.304 14.048 22.264 14.072 23.08 14.288C25.888 15.032 27.28 17.528 27.304 20.312C27.304 21.128 27.184 23.624 25.264 25.328C23.608 26.792 21.712 26.96 19.648 26.96H14.464Z" fill="#1D1D1B"/>
</svg>
