<svg width="77" height="47" viewBox="0 0 77 47" fill="none" xmlns="http://www.w3.org/2000/svg">
<rect x="1" y="1" width="75" height="45" rx="12" stroke="#636363" stroke-width="2"/>
<path d="M38.26 19.62V17.88H25.7V32H27.68V25.8H37.86V24.14H27.68V19.62H38.26ZM51.8 32V30.36H43.24C45.02 29.64 48.76 27.84 50.34 25.98C51.36 24.78 51.46 23.52 51.46 22.9C51.46 21.38 50.66 19.9 49.42 19.04C48.04 18.08 46.52 18.04 45.94 18.04C44.02 18.04 42.82 18.78 42.2 19.26C40.96 20.24 40.58 21.42 40.46 22.02C40.36 22.46 40.34 22.9 40.3 23.34L42.24 23.64C42.28 22.68 42.32 21.78 42.94 20.96C43.84 19.76 45.44 19.7 45.86 19.7C47.82 19.7 49.46 20.86 49.46 22.94C49.46 25.06 47.42 26.28 45.84 27.26C44.12 28.32 42.32 29.22 40.52 30.12V32H51.8Z" fill="#1D1D1B"/>
<path fill-rule="evenodd" clip-rule="evenodd" d="M8.16675 13.0001C8.16675 10.3307 10.3307 8.16675 13.0001 8.16675C15.6695 8.16675 17.8334 10.3307 17.8334 13.0001C17.8334 15.6695 15.6695 17.8334 13.0001 17.8334C10.3307 17.8334 8.16675 15.6695 8.16675 13.0001ZM13.0001 9.16675C10.883 9.16675 9.16675 10.883 9.16675 13.0001C9.16675 15.1172 10.883 16.8334 13.0001 16.8334C15.1172 16.8334 16.8334 15.1172 16.8334 13.0001C16.8334 10.883 15.1172 9.16675 13.0001 9.16675Z" fill="#636363"/>
<path d="M13.0001 6.99992C13.4603 6.99992 13.8334 6.62682 13.8334 6.16659C13.8334 5.70635 13.4603 5.33325 13.0001 5.33325C12.5398 5.33325 12.1667 5.70635 12.1667 6.16659C12.1667 6.62682 12.5398 6.99992 13.0001 6.99992Z" fill="#636363"/>
<path d="M17.8333 8.99992C18.2936 8.99992 18.6667 8.62682 18.6667 8.16659C18.6667 7.70635 18.2936 7.33325 17.8333 7.33325C17.3731 7.33325 17 7.70635 17 8.16659C17 8.62682 17.3731 8.99992 17.8333 8.99992Z" fill="#636363"/>
<path d="M19.8333 13.8334C20.2936 13.8334 20.6667 13.4603 20.6667 13.0001C20.6667 12.5398 20.2936 12.1667 19.8333 12.1667C19.3731 12.1667 19 12.5398 19 13.0001C19 13.4603 19.3731 13.8334 19.8333 13.8334Z" fill="#636363"/>
<path d="M17.8333 18.6667C18.2936 18.6667 18.6667 18.2936 18.6667 17.8333C18.6667 17.3731 18.2936 17 17.8333 17C17.3731 17 17 17.3731 17 17.8333C17 18.2936 17.3731 18.6667 17.8333 18.6667Z" fill="#636363"/>
<path d="M13.0001 20.6667C13.4603 20.6667 13.8334 20.2936 13.8334 19.8333C13.8334 19.3731 13.4603 19 13.0001 19C12.5398 19 12.1667 19.3731 12.1667 19.8333C12.1667 20.2936 12.5398 20.6667 13.0001 20.6667Z" fill="#636363"/>
<path d="M8.16659 18.6667C8.62682 18.6667 8.99992 18.2936 8.99992 17.8333C8.99992 17.3731 8.62682 17 8.16659 17C7.70635 17 7.33325 17.3731 7.33325 17.8333C7.33325 18.2936 7.70635 18.6667 8.16659 18.6667Z" fill="#636363"/>
<path d="M6.16659 13.8334C6.62682 13.8334 6.99992 13.4603 6.99992 13.0001C6.99992 12.5398 6.62682 12.1667 6.16659 12.1667C5.70635 12.1667 5.33325 12.5398 5.33325 13.0001C5.33325 13.4603 5.70635 13.8334 6.16659 13.8334Z" fill="#636363"/>
<path d="M8.16659 8.99992C8.62682 8.99992 8.99992 8.62682 8.99992 8.16659C8.99992 7.70635 8.62682 7.33325 8.16659 7.33325C7.70635 7.33325 7.33325 7.70635 7.33325 8.16659C7.33325 8.62682 7.70635 8.99992 8.16659 8.99992Z" fill="#636363"/>
</svg>
