<svg width="77" height="47" viewBox="0 0 77 47" fill="none" xmlns="http://www.w3.org/2000/svg">
<rect x="1" y="1" width="75" height="45" rx="12" stroke="#636363" stroke-width="2"/>
<path d="M38.26 19.62V17.88H25.7V32H27.68V25.8H37.86V24.14H27.68V19.62H38.26ZM44.46 25.54H46.32C48.58 25.54 49.9 26.24 49.9 28.02C49.9 29.36 48.9 30.66 46.18 30.66C44.36 30.66 42.2 30.24 41.82 27.84L39.94 28.28C40.58 31.24 42.84 32.28 46.18 32.28C48.42 32.28 51.96 31.48 51.96 28.06C51.96 25.84 50.36 25.04 49.32 24.6C51.28 23.94 51.4 22.4 51.4 21.84C51.4 18.78 48.22 17.98 46.04 17.98C41.88 17.98 40.86 20.14 40.48 21.86L42.32 22.2C42.34 21.36 43.08 19.52 46.04 19.52C47.82 19.52 49.36 20.36 49.36 22C49.36 23.9 47.26 24.06 45.96 24.06H44.46V25.54Z" fill="#1D1D1B"/>
<path fill-rule="evenodd" clip-rule="evenodd" d="M13 5.5C13.2761 5.5 13.5 5.72386 13.5 6V7.05C13.5 7.32614 13.2761 7.55 13 7.55C12.7239 7.55 12.5 7.32614 12.5 7.05V6C12.5 5.72386 12.7239 5.5 13 5.5Z" fill="#636363"/>
<path fill-rule="evenodd" clip-rule="evenodd" d="M17.9497 8.05029L17.2073 8.79274L17.9497 8.05029Z" fill="#636363"/>
<path fill-rule="evenodd" clip-rule="evenodd" d="M18.3033 7.69674C18.4985 7.892 18.4985 8.20858 18.3033 8.40384L17.5608 9.14629C17.3656 9.34155 17.049 9.34156 16.8537 9.1463C16.6585 8.95104 16.6585 8.63445 16.8537 8.43919L17.5962 7.69674C17.7914 7.50148 18.108 7.50148 18.3033 7.69674Z" fill="#636363"/>
<path fill-rule="evenodd" clip-rule="evenodd" d="M18.45 13C18.45 12.7239 18.6738 12.5 18.95 12.5H20C20.2761 12.5 20.5 12.7239 20.5 13C20.5 13.2761 20.2761 13.5 20 13.5H18.95C18.6738 13.5 18.45 13.2761 18.45 13Z" fill="#636363"/>
<path fill-rule="evenodd" clip-rule="evenodd" d="M17.9497 17.9497L17.2073 17.2073L17.9497 17.9497Z" fill="#636363"/>
<path fill-rule="evenodd" clip-rule="evenodd" d="M16.8537 16.8537C17.049 16.6585 17.3656 16.6585 17.5608 16.8537L18.3033 17.5962C18.4985 17.7914 18.4985 18.108 18.3033 18.3033C18.108 18.4985 17.7914 18.4985 17.5962 18.3033L16.8537 17.5608C16.6585 17.3656 16.6585 17.049 16.8537 16.8537Z" fill="#636363"/>
<path fill-rule="evenodd" clip-rule="evenodd" d="M13 18.45C13.2761 18.45 13.5 18.6738 13.5 18.95V20C13.5 20.2761 13.2761 20.5 13 20.5C12.7239 20.5 12.5 20.2761 12.5 20V18.95C12.5 18.6738 12.7239 18.45 13 18.45Z" fill="#636363"/>
<path fill-rule="evenodd" clip-rule="evenodd" d="M8.05029 17.9497L8.79274 17.2073L8.05029 17.9497Z" fill="#636363"/>
<path fill-rule="evenodd" clip-rule="evenodd" d="M9.1463 16.8537C9.34156 17.049 9.34155 17.3656 9.14629 17.5608L8.40384 18.3033C8.20858 18.4985 7.892 18.4985 7.69674 18.3033C7.50148 18.108 7.50148 17.7914 7.69674 17.5962L8.43919 16.8537C8.63445 16.6585 8.95104 16.6585 9.1463 16.8537Z" fill="#636363"/>
<path fill-rule="evenodd" clip-rule="evenodd" d="M5.5 13C5.5 12.7239 5.72386 12.5 6 12.5H7.05C7.32614 12.5 7.55 12.7239 7.55 13C7.55 13.2761 7.32614 13.5 7.05 13.5H6C5.72386 13.5 5.5 13.2761 5.5 13Z" fill="#636363"/>
<path fill-rule="evenodd" clip-rule="evenodd" d="M8.05029 8.05029L8.79274 8.79274L8.05029 8.05029Z" fill="#636363"/>
<path fill-rule="evenodd" clip-rule="evenodd" d="M7.69674 7.69674C7.892 7.50148 8.20858 7.50148 8.40385 7.69674L9.14629 8.43919C9.34156 8.63445 9.34156 8.95103 9.14629 9.14629C8.95103 9.34156 8.63445 9.34156 8.43919 9.14629L7.69674 8.40385C7.50148 8.20858 7.50148 7.892 7.69674 7.69674Z" fill="#636363"/>
<path fill-rule="evenodd" clip-rule="evenodd" d="M8.5 13C8.5 10.5147 10.5147 8.5 13 8.5C15.4853 8.5 17.5 10.5147 17.5 13C17.5 15.4853 15.4853 17.5 13 17.5C10.5147 17.5 8.5 15.4853 8.5 13ZM13 9.5C11.067 9.5 9.5 11.067 9.5 13C9.5 14.933 11.067 16.5 13 16.5C14.933 16.5 16.5 14.933 16.5 13C16.5 11.067 14.933 9.5 13 9.5Z" fill="#636363"/>
<rect x="5" y="12" width="16" height="1" rx="0.5" fill="#636363"/>
</svg>
