<svg width="77" height="47" viewBox="0 0 77 47" fill="none" xmlns="http://www.w3.org/2000/svg">
<rect x="1" y="1" width="75" height="45" rx="12" stroke="#636363" stroke-width="2"/>
<path d="M38.26 19.62V17.88H25.7V32H27.68V25.8H37.86V24.14H27.68V19.62H38.26ZM52.1 28.68V27.1H49.72V18.24H48.16L39.86 27.1V28.68H47.86V32H49.74V28.68H52.1ZM47.86 27.1H42.02C47.24 21.52 47.52 21.2 47.86 20.78V27.1Z" fill="#1D1D1B"/>
<path fill-rule="evenodd" clip-rule="evenodd" d="M18.9317 11.4084C19.127 11.6037 19.127 11.9203 18.9317 12.1155L16.1033 14.9439C15.908 15.1392 15.5915 15.1392 15.3962 14.9439C15.2009 14.7487 15.2009 14.4321 15.3962 14.2368L18.2246 11.4084C18.4199 11.2131 18.7365 11.2131 18.9317 11.4084Z" fill="#636363"/>
<path fill-rule="evenodd" clip-rule="evenodd" d="M15.3964 11.4084C15.5917 11.2131 15.9083 11.2131 16.1036 11.4084L18.932 14.2368C19.1272 14.4321 19.1272 14.7487 18.932 14.9439C18.7367 15.1392 18.4201 15.1392 18.2249 14.9439L15.3964 12.1155C15.2012 11.9203 15.2012 11.6037 15.3964 11.4084Z" fill="#636363"/>
<path fill-rule="evenodd" clip-rule="evenodd" d="M9.36578 10.2538C9.36582 10.2537 9.36586 10.2536 9.3659 10.2536L9.36578 10.2538ZM9.3659 10.2536L9.36601 10.2534L9.36859 10.249L9.38107 10.2281C9.3926 10.209 9.41048 10.1798 9.43445 10.1419C9.48243 10.0661 9.55455 9.95589 9.64857 9.82286C9.83724 9.55589 10.1108 9.20152 10.4511 8.84913C11.027 8.25274 11.7341 7.72371 12.5 7.55552V18.4433C11.7366 18.2724 11.0305 17.7358 10.454 17.1288C10.1135 16.7703 9.83966 16.4098 9.65079 16.1381C9.55668 16.0027 9.48448 15.8906 9.43643 15.8134C9.41242 15.7748 9.3945 15.745 9.38293 15.7255L9.37041 15.7042L9.36781 15.6997L9.36767 15.6995C9.36763 15.6994 9.36759 15.6993 9.36755 15.6993C9.36754 15.6993 9.36753 15.6992 9.36751 15.6992C9.3675 15.6992 9.36749 15.6992 9.36747 15.6991C9.36746 15.6991 9.36745 15.6991 9.36744 15.6991C9.27854 15.5429 9.11263 15.4464 8.93287 15.4464H7.00004C6.90799 15.4464 6.83337 15.3718 6.83337 15.2797V10.6703C6.83337 10.5782 6.90799 10.5036 7.00004 10.5036H8.93287C9.11144 10.5036 9.27644 10.4084 9.36578 10.2538M8.65373 16.4464C8.70184 16.521 8.7607 16.6096 8.82969 16.7089C9.03884 17.0098 9.34433 17.4126 9.72893 17.8175C10.4786 18.6068 11.6203 19.5 13 19.5C13.2762 19.5 13.5 19.2761 13.5 19V7C13.5 6.72386 13.2762 6.5 13 6.5C11.6235 6.5 10.4827 7.37691 9.73178 8.15447C9.34696 8.55298 9.04126 8.94951 8.83192 9.24572C8.76306 9.34316 8.70427 9.43025 8.65617 9.5036H7.00004C6.35571 9.5036 5.83337 10.0259 5.83337 10.6703V15.2797C5.83337 15.924 6.35571 16.4464 7.00004 16.4464H8.65373Z" fill="#636363"/>
</svg>
