<svg width="77" height="47" viewBox="0 0 77 47" fill="none" xmlns="http://www.w3.org/2000/svg">
<rect x="1" y="1" width="75" height="45" rx="12" stroke="#636363" stroke-width="2"/>
<path d="M38.26 19.62H27.68V24.14H37.86V25.8H27.68V32H25.7V17.88H38.26V19.62ZM52.46 20.76L50.6 21.46C50.2267 20.8867 49.7133 20.4333 49.06 20.1C48.4067 19.7667 47.6933 19.6 46.92 19.6C45.4933 19.6 44.34 20.0867 43.46 21.06C42.54 22.06 42.08 23.5067 42.08 25.4C42.3333 24.6533 42.9 24.0333 43.78 23.54C44.66 23.0467 45.6933 22.8 46.88 22.8C48.4933 22.8 49.8467 23.2 50.94 24C52.0333 24.7867 52.58 25.9267 52.58 27.42C52.58 28.8333 52.06 30.0067 51.02 30.94C49.98 31.86 48.56 32.32 46.76 32.32C45.8133 32.32 44.9667 32.1867 44.22 31.92C43.4733 31.64 42.86 31.28 42.38 30.84C41.9 30.3867 41.5 29.8533 41.18 29.24C40.86 28.6133 40.6333 27.9733 40.5 27.32C40.3667 26.6667 40.3 25.9733 40.3 25.24C40.3 23.9733 40.4933 22.86 40.88 21.9C41.28 20.9267 41.8133 20.1667 42.48 19.62C43.1467 19.06 43.8667 18.6467 44.64 18.38C45.4133 18.1133 46.2267 17.98 47.08 17.98C48.24 17.98 49.2933 18.2467 50.24 18.78C51.2 19.3133 51.94 19.9733 52.46 20.76ZM50.68 27.54C50.68 26.5133 50.2733 25.7333 49.46 25.2C48.6467 24.6667 47.7067 24.4 46.64 24.4C45.4 24.4 44.4267 24.7 43.72 25.3C43.0267 25.9 42.68 26.6467 42.68 27.54C42.68 28.2867 42.9133 28.9067 43.38 29.4C43.8467 29.8933 44.38 30.2333 44.98 30.42C45.58 30.5933 46.2067 30.68 46.86 30.68C47.9267 30.68 48.8267 30.42 49.56 29.9C50.3067 29.38 50.68 28.5933 50.68 27.54Z" fill="#1D1D1B"/>
<path d="M13 7V19C10.6667 19 8.93287 15.9464 8.93287 15.9464H7.00004C6.63185 15.9464 6.33337 15.6479 6.33337 15.2797V10.6703C6.33337 10.3021 6.63185 10.0036 7.00004 10.0036H8.93287C8.93287 10.0036 10.6667 7 13 7Z" fill="#FFFBFF"/>
<path d="M15.6667 10C15.8744 10.1855 16.0627 10.3932 16.2281 10.6196C16.7129 11.2835 17 12.1074 17 13C17 13.8848 16.7179 14.7022 16.2406 15.3631C16.0723 15.5962 15.8797 15.8098 15.6667 16" fill="#FFFBFF"/>
<path d="M16.412 18.7286C18.3612 17.5651 19.6667 15.435 19.6667 13C19.6667 10.6028 18.4014 8.50117 16.5024 7.32635" fill="#FFFBFF"/>
<path d="M13 7H13.75C13.75 6.58579 13.4143 6.25 13 6.25V7ZM13 19V19.75C13.4143 19.75 13.75 19.4142 13.75 19H13ZM8.93287 15.9464L9.58508 15.5761C9.45182 15.3414 9.20275 15.1964 8.93287 15.1964V15.9464ZM8.93287 10.0036V10.7536C9.20084 10.7536 9.44845 10.6106 9.58242 10.3786L8.93287 10.0036ZM16.1663 9.44058C15.8573 9.16469 15.3832 9.19149 15.1073 9.50045C14.8314 9.80941 14.8582 10.2835 15.1672 10.5594L16.1663 9.44058ZM16.2281 10.6196L16.8337 10.1772L16.8337 10.1772L16.2281 10.6196ZM16.2406 15.3631L16.8486 15.8022L16.8487 15.8022L16.2406 15.3631ZM15.1672 15.4406C14.8582 15.7165 14.8314 16.1906 15.1073 16.4995C15.3832 16.8085 15.8573 16.8353 16.1663 16.5594L15.1672 15.4406ZM16.0276 18.0846C15.6719 18.2969 15.5557 18.7573 15.768 19.113C15.9803 19.4686 16.4407 19.5849 16.7964 19.3726L16.0276 18.0846ZM16.8969 6.68853C16.5447 6.47062 16.0825 6.57952 15.8646 6.93178C15.6466 7.28404 15.7555 7.74626 16.1078 7.96417L16.8969 6.68853ZM12.25 7V19H13.75V7H12.25ZM13 18.25C12.153 18.25 11.3235 17.6813 10.6352 16.9567C10.3057 16.6098 10.0399 16.2598 9.85607 15.9954C9.76466 15.8639 9.69478 15.7553 9.64868 15.6813C9.62566 15.6443 9.60866 15.616 9.59794 15.598C9.59259 15.589 9.58882 15.5825 9.58666 15.5788C9.58558 15.5769 9.58491 15.5757 9.58464 15.5753C9.58451 15.5751 9.58448 15.575 9.58455 15.5751C9.58459 15.5752 9.58465 15.5753 9.58473 15.5755C9.58478 15.5755 9.58486 15.5757 9.58489 15.5757C9.58498 15.5759 9.58508 15.5761 8.93287 15.9464C8.28067 16.3167 8.28078 16.3169 8.2809 16.3171C8.28095 16.3172 8.28108 16.3174 8.28117 16.3176C8.28137 16.3179 8.28159 16.3183 8.28183 16.3187C8.28233 16.3196 8.28293 16.3206 8.28364 16.3219C8.28506 16.3243 8.28691 16.3276 8.28918 16.3315C8.29372 16.3393 8.29997 16.35 8.30789 16.3633C8.32371 16.39 8.34624 16.4274 8.37518 16.4739C8.43302 16.5668 8.51683 16.6968 8.62442 16.8516C8.83864 17.1597 9.15204 17.5732 9.54767 17.9897C10.3096 18.7919 11.5137 19.75 13 19.75V18.25ZM8.93287 15.1964H7.00004V16.6964H8.93287V15.1964ZM7.00004 15.1964C7.04606 15.1964 7.08337 15.2337 7.08337 15.2797H5.58337C5.58337 16.0621 6.21764 16.6964 7.00004 16.6964V15.1964ZM7.08337 15.2797V10.6703H5.58337V15.2797H7.08337ZM7.08337 10.6703C7.08337 10.7163 7.04606 10.7536 7.00004 10.7536V9.2536C6.21764 9.2536 5.58337 9.88785 5.58337 10.6703H7.08337ZM7.00004 10.7536H8.93287V9.2536H7.00004V10.7536ZM8.93287 10.0036C9.58242 10.3786 9.58232 10.3787 9.58223 10.3789C9.5822 10.3789 9.58212 10.3791 9.58207 10.3792C9.58198 10.3793 9.58192 10.3794 9.58188 10.3795C9.5818 10.3796 9.58182 10.3796 9.58195 10.3794C9.5822 10.3789 9.58287 10.3778 9.58393 10.376C9.58607 10.3724 9.58981 10.3661 9.59514 10.3572C9.6058 10.3396 9.62275 10.3119 9.64572 10.2756C9.6917 10.2029 9.76145 10.0963 9.85273 9.96714C10.0362 9.70748 10.3018 9.36365 10.631 9.02279C11.3175 8.31189 12.1481 7.75 13 7.75V6.25C11.5186 6.25 10.3157 7.18991 9.55195 7.98081C9.15599 8.39085 8.84226 8.79792 8.62776 9.10143C8.52003 9.25387 8.4361 9.38193 8.37815 9.47352C8.34914 9.51936 8.32657 9.55619 8.31069 9.58251C8.30275 9.59568 8.29648 9.60623 8.29191 9.61398C8.28962 9.61785 8.28776 9.62103 8.28633 9.62348C8.28561 9.62471 8.28501 9.62575 8.28451 9.62661C8.28425 9.62705 8.28403 9.62743 8.28384 9.62777C8.28374 9.62794 8.28361 9.62816 8.28356 9.62824C8.28344 9.62845 8.28333 9.62865 8.93287 10.0036ZM15.1672 10.5594C15.3354 10.7096 15.4881 10.8781 15.6224 11.062L16.8337 10.1772C16.6373 9.90836 16.4135 9.66136 16.1663 9.44058L15.1672 10.5594ZM15.6224 11.062C16.0159 11.6006 16.25 12.2704 16.25 13H17.75C17.75 11.9444 17.41 10.9663 16.8337 10.1772L15.6224 11.062ZM16.25 13C16.25 13.7233 16.0199 14.3877 15.6326 14.924L16.8487 15.8022C17.4159 15.0167 17.75 14.0464 17.75 13H16.25ZM15.6326 14.924C15.4959 15.1133 15.3397 15.2865 15.1672 15.4406L16.1663 16.5594C16.4198 16.333 16.6487 16.079 16.8486 15.8022L15.6326 14.924ZM16.7964 19.3726C18.9629 18.0794 20.4167 15.7098 20.4167 13H18.9167C18.9167 15.1602 17.7595 17.0508 16.0276 18.0846L16.7964 19.3726ZM20.4167 13C20.4167 10.3323 19.0077 7.9943 16.8969 6.68853L16.1078 7.96417C17.7952 9.00803 18.9167 10.8734 18.9167 13H20.4167Z" fill="#636363"/>
</svg>
