<svg width="46" height="18" viewBox="0 0 46 18" fill="none" xmlns="http://www.w3.org/2000/svg">
<path d="M21.7801 4.6782V5.38779C21.7801 5.47015 21.7801 5.54406 21.7811 5.61059C21.7822 5.67711 21.7833 5.73624 21.7844 5.7901C21.7854 5.83233 21.8036 5.85979 21.8389 5.87035L22.071 5.93793L22.0774 6.02662C21.9116 6.0224 21.7458 6.02029 21.5801 6.02029C21.4111 6.02029 21.2388 6.0224 21.0613 6.02662L21.0527 5.93793L21.3094 5.8619C21.3447 5.8524 21.3629 5.83128 21.3661 5.79749C21.3672 5.74258 21.3683 5.68134 21.3693 5.6127C21.3704 5.54512 21.3704 5.46909 21.3704 5.38673V3.71414C21.3704 3.64339 21.3704 3.58109 21.3693 3.52407C21.3683 3.46811 21.3672 3.41637 21.3661 3.37096C21.3651 3.33506 21.3479 3.31183 21.3159 3.30127L21.057 3.22102L21.0527 3.13232C21.1447 3.13549 21.2335 3.1376 21.318 3.13866C21.4025 3.13972 21.487 3.14077 21.5704 3.14077C21.6539 3.14077 21.7362 3.13972 21.8186 3.13866C21.8999 3.1376 21.9822 3.13549 22.0667 3.13232L22.0774 3.22102L21.8389 3.29283C21.8036 3.30127 21.7854 3.32239 21.7844 3.35724C21.7833 3.40687 21.7822 3.46072 21.7811 3.51774C21.7801 3.57581 21.7801 3.63811 21.7801 3.70569V4.49553H21.9994C22.0635 4.49553 22.1213 4.49342 22.1716 4.48919C22.2229 4.48497 22.2689 4.47547 22.3117 4.45963C22.3545 4.44379 22.393 4.42161 22.4261 4.39099C22.4604 4.36142 22.4924 4.3213 22.5224 4.27062C22.5523 4.21993 22.5802 4.15763 22.6069 4.08266C22.6336 4.00874 22.6604 3.91794 22.6882 3.81234C22.716 3.70253 22.7406 3.60855 22.762 3.53147C22.7834 3.45438 22.8048 3.39103 22.8262 3.34034C22.8476 3.28966 22.869 3.25059 22.8914 3.22313C22.9139 3.19462 22.9396 3.17456 22.9684 3.16083C22.9973 3.14816 23.0326 3.13972 23.0733 3.13655C23.1139 3.13338 23.162 3.13232 23.2198 3.13232C23.3385 3.13232 23.4658 3.1376 23.6027 3.14922L23.6113 3.27699C23.515 3.28015 23.4337 3.29388 23.3674 3.31922C23.3011 3.34457 23.2444 3.38152 23.1963 3.42904C23.1481 3.47656 23.1053 3.53463 23.069 3.60432C23.0315 3.67402 22.9941 3.75215 22.9545 3.84085C22.9256 3.90526 22.8957 3.96968 22.8647 4.03303C22.8337 4.09639 22.8016 4.15657 22.7663 4.21359C22.731 4.27061 22.6935 4.32341 22.6529 4.37093C22.6122 4.4195 22.5663 4.46068 22.516 4.49447C22.6165 4.64019 22.7085 4.78274 22.7919 4.92212C22.8754 5.06151 22.9524 5.18927 23.024 5.30648C23.0914 5.41524 23.1513 5.51027 23.207 5.59369C23.2615 5.67606 23.3128 5.74047 23.361 5.78798C23.3856 5.81121 23.4102 5.83128 23.4337 5.84817C23.4572 5.86507 23.4818 5.87879 23.5065 5.89041C23.5311 5.90202 23.5578 5.91258 23.5856 5.91998C23.6134 5.92842 23.6455 5.93687 23.6819 5.94426L23.6883 6.03507C23.5877 6.04774 23.5043 6.05408 23.438 6.05408C23.3813 6.05408 23.331 6.05302 23.2872 6.04985C23.2444 6.04669 23.2048 6.04141 23.1717 6.03296C23.1374 6.02451 23.1064 6.01395 23.0797 6.00128C23.0529 5.98861 23.0262 5.97172 23.0016 5.9506C22.9385 5.90519 22.8764 5.83761 22.8155 5.74786C22.7545 5.65811 22.6903 5.55357 22.6229 5.43214C22.5684 5.3371 22.5128 5.23785 22.4572 5.13436C22.4005 5.03088 22.3395 4.92951 22.2721 4.8292C22.2529 4.80069 22.2357 4.7764 22.2218 4.75634C22.2079 4.73628 22.193 4.72044 22.1769 4.70883C22.1609 4.69721 22.1427 4.68876 22.1224 4.68454C22.102 4.67926 22.0764 4.67715 22.0443 4.67715H21.7801V4.6782Z" fill="#B19578"/>
<path d="M26.3469 3.77214V5.38771C26.3469 5.47007 26.3469 5.54504 26.348 5.61368C26.3491 5.68231 26.3501 5.74356 26.3512 5.79846C26.3523 5.83014 26.3726 5.85126 26.41 5.86288L26.6603 5.9389L26.6667 6.0276C26.4817 6.02338 26.3052 6.02126 26.1394 6.02126C25.9726 6.02126 25.81 6.02338 25.6495 6.0276L25.641 5.9389L25.8795 5.8671C25.9148 5.85654 25.9319 5.83225 25.9341 5.79741C25.9351 5.7425 25.9362 5.68126 25.9373 5.61368C25.9383 5.5461 25.9383 5.47113 25.9383 5.38876V3.3297H25.2334C25.2249 3.54406 25.2088 3.75947 25.1842 3.97488C25.1596 4.19029 25.1233 4.40358 25.0751 4.61582C25.027 4.82807 24.966 5.03714 24.8912 5.24305C24.8163 5.44895 24.7243 5.65169 24.6141 5.84915C24.5927 5.88399 24.5735 5.91356 24.5542 5.93996C24.535 5.96636 24.5104 5.98748 24.4804 6.00543C24.4494 6.02232 24.412 6.03499 24.366 6.04344C24.32 6.05189 24.2612 6.05611 24.1884 6.05611C24.0772 6.05611 23.9478 6.04344 23.7991 6.01915L23.7905 5.93046L23.9114 5.90722C23.9617 5.89878 24.0034 5.88927 24.0376 5.87871C24.0718 5.86816 24.1029 5.85443 24.1317 5.83859C24.1606 5.82275 24.1874 5.80269 24.2141 5.77946C24.2408 5.75623 24.2708 5.72561 24.3039 5.68865C24.3884 5.59678 24.4655 5.49013 24.5328 5.36976C24.6002 5.24938 24.6601 5.12056 24.7125 4.9854C24.765 4.84918 24.8099 4.70875 24.8484 4.56408C24.8869 4.41942 24.9179 4.27793 24.9414 4.13749C24.965 3.99811 24.9821 3.86295 24.9939 3.73201C25.0046 3.60108 25.011 3.48281 25.011 3.37511C25.011 3.34343 24.9885 3.32126 24.9436 3.30858L24.6238 3.222L24.6195 3.1333C24.8077 3.13858 24.9564 3.14175 25.0666 3.14175H26.1373C26.3041 3.14175 26.4764 3.13858 26.655 3.1333L26.6657 3.222L26.409 3.29803C26.3737 3.30858 26.3544 3.33076 26.3501 3.36455C26.3491 3.41946 26.348 3.4807 26.3469 3.54828C26.348 3.6148 26.3469 3.68978 26.3469 3.77214Z" fill="#B19578"/>
<path d="M27.9261 5.48274V5.79635C27.9261 5.83225 27.9453 5.85548 27.9849 5.86604L28.217 5.93785L28.2234 6.02654C28.0576 6.02232 27.8918 6.02021 27.7261 6.02021C27.5603 6.02021 27.387 6.02232 27.2073 6.02654L27.1987 5.93785L27.4554 5.86182C27.4918 5.85126 27.51 5.82909 27.5121 5.79741C27.5153 5.68548 27.5164 5.54926 27.5164 5.38665V3.71406C27.5164 3.57679 27.5153 3.46169 27.5121 3.37194C27.5111 3.33604 27.4939 3.31281 27.4619 3.30225L27.203 3.222L27.1987 3.1333C27.3784 3.13858 27.5517 3.14175 27.7175 3.14175C27.8844 3.14175 28.0502 3.13858 28.2127 3.1333L28.2234 3.222L27.9849 3.2938C27.9496 3.30225 27.9314 3.32337 27.9304 3.35821C27.9271 3.45747 27.9261 3.57362 27.9261 3.70667V5.18603L29.4792 3.5599V3.35821C29.4792 3.32654 29.4599 3.30542 29.4203 3.2938L29.1882 3.222L29.1818 3.1333C29.3519 3.13858 29.5209 3.14175 29.6888 3.14175C29.8557 3.14175 30.0257 3.13858 30.2001 3.1333L30.2087 3.222L29.9455 3.30225C29.9134 3.31281 29.8963 3.33709 29.8953 3.37194C29.891 3.46275 29.8888 3.57679 29.8888 3.71406V5.38771C29.8888 5.55032 29.891 5.68654 29.8953 5.79846C29.8963 5.83014 29.9156 5.85126 29.9519 5.86288L30.2044 5.9389L30.2087 6.0276C30.0236 6.02338 29.8471 6.02126 29.6813 6.02126C29.5155 6.02126 29.3519 6.02338 29.1936 6.0276L29.1829 5.9389L29.4214 5.8671C29.4567 5.8576 29.4738 5.83437 29.476 5.79741L29.4802 5.38876V3.85767L27.9261 5.48274Z" fill="#B19578"/>
<path d="M31.4656 4.59365V5.38771C31.4656 5.55032 31.4667 5.68654 31.4699 5.79635C31.471 5.83331 31.4892 5.85654 31.5245 5.86604L31.7566 5.93785L31.763 6.02654C31.5972 6.02232 31.4314 6.02021 31.2656 6.02021C31.0998 6.02021 30.9265 6.02232 30.7468 6.02654L30.7383 5.93785L30.995 5.86182C31.0314 5.85126 31.0495 5.82909 31.0517 5.79741C31.0549 5.68548 31.056 5.54926 31.056 5.38665V3.71406C31.056 3.57679 31.0549 3.46169 31.0517 3.37194C31.0506 3.33604 31.0335 3.31281 31.0014 3.30225L30.7426 3.222L30.7383 3.1333C30.918 3.13858 31.0913 3.14175 31.257 3.14175C31.4239 3.14175 31.5897 3.13858 31.7523 3.1333L31.763 3.222L31.5245 3.2938C31.4892 3.30225 31.471 3.32337 31.4699 3.35821C31.4667 3.45747 31.4656 3.57362 31.4656 3.70667V4.40569H32.9877V3.70667C32.9877 3.57362 32.9866 3.45747 32.9834 3.35821C32.9824 3.32442 32.9642 3.30225 32.9289 3.2938L32.6968 3.222L32.6925 3.1333C32.8626 3.13858 33.0305 3.14175 33.1963 3.14175C33.3621 3.14175 33.5321 3.13858 33.7065 3.1333L33.715 3.222L33.4519 3.30225C33.4198 3.31281 33.4027 3.33709 33.4016 3.37194C33.3984 3.46275 33.3974 3.57679 33.3974 3.71406V5.38771C33.3974 5.55032 33.3984 5.68654 33.4016 5.79846C33.4027 5.83014 33.422 5.85126 33.4583 5.86288L33.7108 5.9389L33.715 6.0276C33.5311 6.02338 33.3557 6.02126 33.1888 6.02126C33.023 6.02126 32.8604 6.02338 32.7021 6.0276L32.6936 5.9389L32.9299 5.8671C32.9652 5.8576 32.9824 5.83437 32.9845 5.79741C32.9877 5.68759 32.9888 5.55138 32.9888 5.38876V4.59365H31.4656Z" fill="#B19578"/>
<path d="M34.9759 5.48274V5.79635C34.9759 5.83225 34.9951 5.85548 35.0347 5.86604L35.2668 5.93785L35.2732 6.02654C35.1074 6.02232 34.9417 6.02021 34.7759 6.02021C34.6101 6.02021 34.4368 6.02232 34.2571 6.02654L34.2485 5.93785L34.5052 5.86182C34.5416 5.85126 34.5598 5.82909 34.5619 5.79741C34.5651 5.68548 34.5662 5.54926 34.5662 5.38665V3.71406C34.5662 3.57679 34.5651 3.46169 34.5619 3.37194C34.5609 3.33604 34.5438 3.31281 34.5117 3.30225L34.2528 3.222L34.2485 3.1333C34.4282 3.13858 34.6015 3.14175 34.7673 3.14175C34.9342 3.14175 35.1 3.13858 35.2625 3.1333L35.2732 3.222L35.0347 3.2938C34.9994 3.30225 34.9812 3.32337 34.9802 3.35821C34.9769 3.45747 34.9759 3.57362 34.9759 3.70667V5.18603L36.529 3.5599V3.35821C36.529 3.32654 36.5097 3.30542 36.4701 3.2938L36.238 3.222L36.2316 3.1333C36.4017 3.13858 36.5707 3.14175 36.7386 3.14175C36.9055 3.14175 37.0756 3.13858 37.2499 3.1333L37.2585 3.222L36.9953 3.30225C36.9632 3.31281 36.9461 3.33709 36.9451 3.37194C36.9408 3.46275 36.9386 3.57679 36.9386 3.71406V5.38771C36.9386 5.55032 36.9408 5.68654 36.9451 5.79846C36.9461 5.83014 36.9654 5.85126 37.0017 5.86288L37.2542 5.9389L37.2585 6.0276C37.0734 6.02338 36.8969 6.02126 36.7311 6.02126C36.5643 6.02126 36.4017 6.02338 36.2434 6.0276L36.2327 5.9389L36.4712 5.8671C36.5065 5.8576 36.5236 5.83437 36.5258 5.79741L36.53 5.38876V3.85767L34.9759 5.48274Z" fill="#B19578"/>
<path d="M38.5154 4.6782V5.38779C38.5154 5.47015 38.5154 5.54406 38.5165 5.61059C38.5176 5.67711 38.5186 5.73624 38.5197 5.7901C38.5208 5.83233 38.539 5.85979 38.5743 5.87035L38.8064 5.93793L38.8128 6.02662C38.647 6.0224 38.4812 6.02029 38.3154 6.02029C38.1464 6.02029 37.9742 6.0224 37.7966 6.02662L37.7881 5.93793L38.0448 5.8619C38.0801 5.8524 38.0983 5.83128 38.1015 5.79749C38.1026 5.74258 38.1036 5.68134 38.1047 5.6127C38.1058 5.54512 38.1058 5.46909 38.1058 5.38673V3.71414C38.1058 3.64339 38.1058 3.58109 38.1047 3.52407C38.1036 3.46811 38.1026 3.41637 38.1015 3.37096C38.1004 3.33506 38.0833 3.31183 38.0512 3.30127L37.7924 3.22102L37.7881 3.13232C37.8801 3.13549 37.9689 3.1376 38.0534 3.13866C38.1379 3.13972 38.2224 3.14077 38.3058 3.14077C38.3892 3.14077 38.4716 3.13972 38.5539 3.13866C38.6352 3.1376 38.7176 3.13549 38.8021 3.13232L38.8128 3.22102L38.5743 3.29283C38.539 3.30127 38.5208 3.32239 38.5197 3.35724C38.5186 3.40687 38.5176 3.46072 38.5165 3.51774C38.5154 3.57581 38.5154 3.63811 38.5154 3.70569V4.49553H38.7347C38.7989 4.49553 38.8566 4.49342 38.9069 4.48919C38.9583 4.48497 39.0043 4.47547 39.047 4.45963C39.0898 4.44379 39.1283 4.42161 39.1615 4.39099C39.1957 4.36142 39.2278 4.3213 39.2578 4.27062C39.2877 4.21993 39.3155 4.15763 39.3422 4.08266C39.369 4.00874 39.3957 3.91794 39.4235 3.81234C39.4514 3.70253 39.476 3.60855 39.4973 3.53147C39.5187 3.45438 39.5401 3.39103 39.5615 3.34034C39.5829 3.28966 39.6043 3.25059 39.6268 3.22313C39.6492 3.19462 39.6749 3.17456 39.7038 3.16083C39.7327 3.14816 39.768 3.13972 39.8086 3.13655C39.8493 3.13338 39.8974 3.13232 39.9551 3.13232C40.0739 3.13232 40.2012 3.1376 40.3381 3.14922L40.3466 3.27699C40.2504 3.28015 40.1691 3.29388 40.1028 3.31922C40.0364 3.34457 39.9797 3.38152 39.9316 3.42904C39.8835 3.47656 39.8407 3.53463 39.8043 3.60432C39.7669 3.67402 39.7295 3.75215 39.6899 3.84085C39.661 3.90526 39.631 3.96968 39.6 4.03303C39.569 4.09639 39.5369 4.15657 39.5016 4.21359C39.4663 4.27061 39.4289 4.32341 39.3882 4.37093C39.3476 4.4195 39.3016 4.46068 39.2513 4.49447C39.3519 4.64019 39.4439 4.78274 39.5273 4.92212C39.6107 5.06151 39.6877 5.18927 39.7594 5.30648C39.8268 5.41524 39.8867 5.51027 39.9423 5.59369C39.9969 5.67606 40.0482 5.74047 40.0963 5.78798C40.1209 5.81121 40.1455 5.83128 40.1691 5.84817C40.1926 5.86507 40.2172 5.87879 40.2418 5.89041C40.2664 5.90202 40.2931 5.91258 40.321 5.91998C40.3488 5.92842 40.3809 5.93687 40.4172 5.94426L40.4236 6.03507C40.3231 6.04774 40.2397 6.05408 40.1733 6.05408C40.1167 6.05408 40.0664 6.05302 40.0225 6.04985C39.9797 6.04669 39.9402 6.04141 39.907 6.03296C39.8728 6.02451 39.8418 6.01395 39.815 6.00128C39.7883 5.98861 39.7615 5.97172 39.7369 5.9506C39.6738 5.90519 39.6118 5.83761 39.5508 5.74786C39.4899 5.65811 39.4257 5.55357 39.3583 5.43214C39.3037 5.3371 39.2481 5.23785 39.1925 5.13436C39.1358 5.03088 39.0748 4.92951 39.0075 4.8292C38.9882 4.80069 38.9711 4.7764 38.9572 4.75634C38.9433 4.73628 38.9283 4.72044 38.9123 4.70883C38.8962 4.69721 38.878 4.68876 38.8577 4.68454C38.8374 4.67926 38.8117 4.67715 38.7796 4.67715H38.5154V4.6782Z" fill="#B19578"/>
<path d="M42.1551 3.08887L43.0836 5.61254C43.1189 5.70757 43.1499 5.77198 43.1788 5.80577C43.2076 5.83956 43.2483 5.8649 43.3007 5.88074L43.4975 5.93882L43.5018 6.02752C43.3189 6.02329 43.1499 6.02118 42.9937 6.02118C42.8343 6.02118 42.6472 6.02329 42.4311 6.02752L42.4225 5.93882L42.6215 5.88074C42.6493 5.87124 42.6696 5.86068 42.6814 5.84906C42.6931 5.83745 42.6996 5.8195 42.6996 5.79416C42.6996 5.7667 42.6921 5.7308 42.6782 5.6854C42.6632 5.64105 42.6429 5.58086 42.6161 5.50694L42.4193 4.95364H41.4117L41.1925 5.50483C41.1636 5.58191 41.1401 5.64316 41.1229 5.68856C41.1058 5.73397 41.0983 5.76987 41.0983 5.79627C41.0983 5.8195 41.1048 5.83745 41.1187 5.84906C41.1315 5.86068 41.1518 5.87018 41.1786 5.87863L41.3732 5.93459L41.3775 6.02752C41.1796 6.02329 41.0181 6.02118 40.893 6.02118C40.7678 6.02118 40.6277 6.02329 40.4726 6.02752L40.4619 5.93882L40.6726 5.87441C40.7261 5.85751 40.7646 5.83217 40.7892 5.79838C40.8138 5.76353 40.8416 5.71074 40.8726 5.63788L41.9412 3.12055L42.1551 3.08887ZM41.4888 4.76674H42.3498L41.9423 3.6295L41.4888 4.76674Z" fill="#B19578"/>
<path d="M21.4741 8.39529L21.334 8.91692L21.2505 8.92959L21.1254 8.27702L21.1382 8.26224C21.4291 8.18833 21.6966 8.15137 21.9383 8.15137C22.2592 8.15137 22.5041 8.20944 22.6753 8.3256C22.8464 8.44175 22.9309 8.61386 22.9309 8.84194C22.9309 9.01723 22.8817 9.16084 22.7833 9.27488C22.6849 9.38892 22.549 9.4755 22.3768 9.53252C22.6015 9.57054 22.7683 9.65501 22.8796 9.78278C22.9908 9.9116 23.0453 10.0689 23.0453 10.2537C23.0453 10.5452 22.9384 10.7669 22.7245 10.919C22.5105 11.071 22.2207 11.147 21.8559 11.147C21.6035 11.147 21.3479 11.1037 21.089 11.0172L21.0762 11.0024L21.1831 10.2907L21.2794 10.2738L21.4281 10.8862C21.5714 10.9422 21.7222 10.9707 21.8795 10.9707C22.1041 10.9707 22.2784 10.9116 22.4025 10.7944C22.5266 10.6771 22.5886 10.5124 22.5886 10.3023C22.5886 10.0911 22.5244 9.93061 22.3972 9.82185C22.2699 9.71309 22.087 9.65818 21.8484 9.65818C21.7757 9.65818 21.673 9.66979 21.5393 9.69091L21.5265 9.44699C21.6752 9.46494 21.7832 9.47339 21.8484 9.47339C22.0592 9.47339 22.2153 9.42165 22.3191 9.31817C22.4218 9.21469 22.4742 9.07108 22.4742 8.88524C22.4742 8.69728 22.4218 8.55473 22.3159 8.45864C22.211 8.36255 22.0645 8.31504 21.8762 8.31504C21.7447 8.32137 21.611 8.34566 21.4741 8.39529Z" fill="#B19578"/>
<path d="M23.7201 11.0922L23.5469 11.9634L23.4356 11.9781L23.3169 10.9191L23.3297 10.9043H23.6667C23.749 10.8135 23.8239 10.7058 23.8902 10.5801C23.9608 10.4502 24.025 10.3129 24.0817 10.1651C24.1384 10.0183 24.1876 9.86524 24.2293 9.70579C24.271 9.5474 24.3063 9.39112 24.3352 9.23907C24.3641 9.08702 24.3854 8.94341 24.3994 8.8072C24.4133 8.67098 24.4207 8.5506 24.4207 8.44396C24.4207 8.41122 24.4004 8.38905 24.3598 8.37743L24.0335 8.29085L24.0293 8.20215C24.2186 8.20743 24.3758 8.2106 24.4999 8.2106H25.5257C25.6925 8.2106 25.8658 8.20743 26.0444 8.20215L26.053 8.29085L25.7963 8.36687C25.7599 8.37954 25.7417 8.40172 25.7396 8.4334C25.7385 8.48831 25.7375 8.54955 25.7364 8.61713C25.7353 8.68471 25.7353 8.75968 25.7353 8.84204V10.5094C25.7353 10.5864 25.7353 10.6519 25.7364 10.7058C25.7375 10.7596 25.7385 10.8018 25.7396 10.8335C25.7407 10.88 25.7567 10.9032 25.7856 10.9032H26.1642L26.1771 10.918L26.0605 11.9623L25.9492 11.9771L25.7738 11.0922H23.7201ZM25.3256 10.9053V8.39961H24.6422C24.6272 8.60974 24.6058 8.82303 24.5791 9.03844C24.5523 9.25385 24.5138 9.46715 24.4635 9.68045C24.4122 9.89269 24.3469 10.1018 24.2646 10.3077C24.1833 10.5136 24.0785 10.7121 23.9501 10.9053H25.3256Z" fill="#B19578"/>
<path d="M29.6128 9.58618C29.6128 10.0624 29.4759 10.4446 29.2021 10.734C28.9282 11.0233 28.5453 11.168 28.0543 11.168C27.588 11.168 27.2265 11.0339 26.9708 10.7667C26.7152 10.4996 26.5879 10.1374 26.5879 9.68016C26.5879 9.20393 26.7248 8.82802 27.0008 8.55031C27.2757 8.2726 27.6575 8.13428 28.1442 8.13428C28.6116 8.13428 28.9742 8.26416 29.2288 8.52286C29.4855 8.78367 29.6128 9.13741 29.6128 9.58618ZM27.0468 9.61258C27.0468 10.0613 27.1387 10.4045 27.3227 10.6432C27.5067 10.8818 27.7762 11.0011 28.1314 11.0011C28.4811 11.0011 28.7389 10.8924 28.9058 10.6759C29.0726 10.4594 29.155 10.1194 29.155 9.65587C29.155 9.22083 29.0662 8.88715 28.8897 8.65274C28.7132 8.41832 28.4394 8.30217 28.0704 8.30217C27.7121 8.30217 27.4521 8.41093 27.2896 8.6274C27.127 8.84386 27.0468 9.17225 27.0468 9.61258Z" fill="#B19578"/>
<path d="M30.8782 10.4592C30.8782 10.5416 30.8782 10.6155 30.8793 10.682C30.8804 10.7485 30.8814 10.8066 30.8825 10.8594C30.8836 10.8911 30.9018 10.9122 30.9371 10.9238L31.2258 11.0104L31.2301 11.0991C31.028 11.0949 30.844 11.0928 30.6782 11.0928C30.5092 11.0928 30.337 11.0949 30.1594 11.0991L30.1509 11.0104L30.4076 10.9344C30.444 10.9238 30.4621 10.9017 30.4643 10.87C30.4653 10.8151 30.4664 10.7538 30.4675 10.6852C30.4686 10.6176 30.4686 10.5416 30.4686 10.4592V8.78558C30.4686 8.71483 30.4686 8.65253 30.4675 8.59551C30.4664 8.53955 30.4653 8.4878 30.4643 8.4424C30.4632 8.4065 30.4461 8.38327 30.414 8.37271L30.1552 8.29246L30.1509 8.20376C30.3306 8.20904 30.506 8.21221 30.6771 8.21221C30.7927 8.21221 30.9039 8.20904 31.0109 8.20376C31.1178 8.19848 31.2162 8.19531 31.305 8.19531C31.6355 8.19531 31.8847 8.25867 32.0537 8.38644C32.2227 8.51315 32.3072 8.70321 32.3072 8.95452C32.3072 9.25018 32.2099 9.48038 32.0142 9.64405C31.8184 9.80772 31.5435 9.89008 31.1906 9.89008C31.0932 9.89008 30.9895 9.88374 30.8782 9.87107V10.4592ZM30.8782 9.69684C30.9756 9.71374 31.0718 9.72113 31.167 9.72113C31.3895 9.72113 31.5596 9.66411 31.6762 9.55112C31.7928 9.43814 31.8505 9.26391 31.8505 9.03055C31.8505 8.80669 31.7949 8.6388 31.6847 8.52899C31.5735 8.41917 31.3991 8.36426 31.1606 8.36426C31.0675 8.36426 30.9734 8.36954 30.8782 8.38116V9.69684Z" fill="#B19578"/>
<path d="M35.793 9.58618C35.793 10.0624 35.6561 10.4446 35.3822 10.734C35.1084 11.0233 34.7255 11.168 34.2345 11.168C33.7682 11.168 33.4066 11.0339 33.151 10.7667C32.8954 10.4996 32.7681 10.1374 32.7681 9.68016C32.7681 9.20393 32.905 8.82802 33.1809 8.55031C33.4558 8.2726 33.8377 8.13428 34.3244 8.13428C34.7918 8.13428 35.1544 8.26416 35.409 8.52286C35.6657 8.78367 35.793 9.13741 35.793 9.58618ZM33.2269 9.61258C33.2269 10.0613 33.3189 10.4045 33.5029 10.6432C33.6869 10.8818 33.9564 11.0011 34.3115 11.0011C34.6613 11.0011 34.9191 10.8924 35.0859 10.6759C35.2528 10.4594 35.3352 10.1194 35.3352 9.65587C35.3352 9.22083 35.2464 8.88715 35.0699 8.65274C34.8934 8.41832 34.6196 8.30217 34.2506 8.30217C33.8922 8.30217 33.6323 8.41093 33.4697 8.6274C33.3082 8.84492 33.2269 9.17225 33.2269 9.61258Z" fill="#B19578"/>
<path d="M36.3311 8.20408C36.5108 8.20936 36.6872 8.21252 36.8594 8.21252C36.9247 8.20936 37.0306 8.20619 37.1761 8.19985C37.3215 8.19457 37.421 8.19141 37.4713 8.19141C37.7772 8.19141 38.0082 8.24737 38.1655 8.3593C38.3216 8.47123 38.4008 8.63278 38.4008 8.84291C38.4008 9.18187 38.2157 9.41206 37.8467 9.53455C38.0628 9.57045 38.2286 9.64964 38.3441 9.77213C38.4596 9.89462 38.5174 10.0509 38.5174 10.2399C38.5174 10.5155 38.4158 10.7277 38.2136 10.8787C38.0104 11.0297 37.7301 11.1047 37.3707 11.1047C37.2991 11.1047 37.222 11.1026 37.1386 11.0984C37.0552 11.0942 36.9621 11.092 36.8584 11.092C36.6894 11.092 36.5161 11.0942 36.3396 11.0984L36.3311 11.0097L36.5878 10.9337C36.6231 10.9241 36.6412 10.903 36.6445 10.8692C36.6455 10.8143 36.6466 10.7531 36.6477 10.6845C36.6487 10.6169 36.6487 10.5408 36.6487 10.4585V8.78589C36.6487 8.71515 36.6487 8.65285 36.6477 8.59583C36.6466 8.53986 36.6455 8.48812 36.6445 8.44272C36.6434 8.40682 36.6263 8.38359 36.5942 8.37303L36.3353 8.29278L36.3311 8.20408ZM37.0584 9.49125C37.144 9.49231 37.2317 9.49337 37.3205 9.49337C37.5258 9.49337 37.6809 9.44479 37.7857 9.34554C37.8906 9.24733 37.943 9.10478 37.943 8.91788C37.943 8.72148 37.8895 8.57999 37.7815 8.4934C37.6734 8.40682 37.5194 8.36458 37.3162 8.36458C37.2798 8.36458 37.2402 8.36563 37.1975 8.36775C37.1547 8.36986 37.1076 8.37303 37.0584 8.37936V9.49125ZM37.0584 9.65598V10.9083C37.1001 10.9231 37.1482 10.9326 37.2028 10.9368C37.2573 10.941 37.3076 10.9432 37.3536 10.9432C37.5836 10.9432 37.759 10.8872 37.8788 10.7742C37.9986 10.6612 38.0585 10.4976 38.0585 10.2832C38.0585 10.0688 37.9975 9.9094 37.8767 9.80592C37.7547 9.70244 37.559 9.64964 37.2884 9.64964C37.2103 9.6507 37.1333 9.65175 37.0584 9.65598Z" fill="#B19578"/>
<path d="M42.0405 9.58618C42.0405 10.0624 41.9036 10.4446 41.6298 10.734C41.356 11.0233 40.973 11.168 40.4821 11.168C40.0157 11.168 39.6542 11.0339 39.3985 10.7667C39.1429 10.4996 39.0156 10.1374 39.0156 9.68016C39.0156 9.20393 39.1525 8.82802 39.4285 8.55031C39.7034 8.2726 40.0852 8.13428 40.5719 8.13428C41.0394 8.13428 41.402 8.26416 41.6565 8.52286C41.9122 8.78367 42.0405 9.13741 42.0405 9.58618ZM39.4734 9.61258C39.4734 10.0613 39.5654 10.4045 39.7494 10.6432C39.9334 10.8818 40.2029 11.0011 40.558 11.0011C40.9078 11.0011 41.1656 10.8924 41.3324 10.6759C41.4993 10.4594 41.5817 10.1194 41.5817 9.65587C41.5817 9.22083 41.4929 8.88715 41.3164 8.65274C41.1399 8.41832 40.8661 8.30217 40.4971 8.30217C40.1387 8.30217 39.8788 8.41093 39.7162 8.6274C39.5536 8.84386 39.4734 9.17225 39.4734 9.61258Z" fill="#B19578"/>
<path d="M43.306 10.5545V10.8681C43.306 10.904 43.3252 10.9273 43.3648 10.9378L43.5969 11.0096L43.6033 11.0983C43.4375 11.0941 43.2717 11.092 43.1059 11.092C42.9401 11.092 42.7669 11.0941 42.5872 11.0983L42.5786 11.0096L42.8353 10.9336C42.8717 10.923 42.8899 10.9009 42.892 10.8692C42.8952 10.7573 42.8963 10.621 42.8963 10.4584V8.78584C42.8963 8.64857 42.8952 8.53347 42.892 8.44372C42.8909 8.40782 42.8738 8.38459 42.8417 8.37403L42.5829 8.29378L42.5786 8.20508C42.7583 8.21036 42.9316 8.21353 43.0974 8.21353C43.2642 8.21353 43.43 8.21036 43.5926 8.20508L43.6033 8.29378L43.3648 8.36558C43.3295 8.37403 43.3113 8.39515 43.3102 8.42999C43.307 8.52925 43.306 8.6454 43.306 8.77845V10.2578L44.8591 8.63167V8.42999C44.8591 8.39831 44.8398 8.37719 44.8002 8.36558L44.5681 8.29378L44.5617 8.20508C44.7318 8.21036 44.9008 8.21353 45.0687 8.21353C45.2356 8.21353 45.4056 8.21036 45.58 8.20508L45.5885 8.29378L45.3254 8.37403C45.2933 8.38459 45.2762 8.40887 45.2751 8.44372C45.2709 8.53453 45.2687 8.64857 45.2687 8.78584V10.4595C45.2687 10.6221 45.2709 10.7583 45.2751 10.8702C45.2762 10.9019 45.2955 10.923 45.3318 10.9347L45.5843 11.0107L45.5885 11.0994C45.4035 11.0952 45.227 11.093 45.0612 11.093C44.8954 11.093 44.7318 11.0952 44.5735 11.0994L44.5628 11.0107L44.8013 10.9389C44.8366 10.9294 44.8537 10.9061 44.8558 10.8692L44.8601 10.4605V8.92945L43.306 10.5545Z" fill="#B19578"/>
<path d="M22.7197 13.2744C22.8706 13.2797 23.0235 13.2829 23.1797 13.2829C23.3326 13.2829 23.4813 13.2797 23.6246 13.2744L23.6332 13.3631L23.4225 13.4296C23.3915 13.4391 23.3658 13.4508 23.3444 13.4655C23.323 13.4803 23.3037 13.4972 23.2877 13.5183C23.2717 13.5395 23.2567 13.5637 23.2439 13.5912C23.231 13.6197 23.2182 13.6524 23.2053 13.6915C23.1305 13.8911 23.0556 14.0854 22.9818 14.2744C22.908 14.4634 22.832 14.6503 22.754 14.8361C22.6759 15.0209 22.5946 15.2057 22.5101 15.3905C22.4256 15.5753 22.3368 15.7601 22.2438 15.948C22.2063 16.0251 22.1732 16.0874 22.1453 16.1349C22.1175 16.1824 22.0854 16.2205 22.048 16.2479C22.0106 16.2764 21.9667 16.2954 21.9154 16.306C21.864 16.3165 21.7966 16.3218 21.7121 16.3218C21.5924 16.3218 21.4629 16.3113 21.3239 16.2912L21.3153 16.2025L21.4469 16.1782C21.5421 16.1613 21.6234 16.1349 21.6918 16.0969C21.7603 16.0589 21.8212 16.0124 21.8758 15.9554C21.9304 15.8995 21.9806 15.834 22.0277 15.759C22.0748 15.6851 22.125 15.6027 22.1796 15.513L21.233 13.6926C21.2148 13.6588 21.1977 13.626 21.1827 13.5975C21.1677 13.569 21.1506 13.5426 21.1324 13.5204C21.1142 13.4972 21.0939 13.4782 21.0704 13.4613C21.0468 13.4444 21.018 13.4317 20.9837 13.4222L20.7933 13.3642L20.7891 13.2755C20.9174 13.2807 21.0875 13.2839 21.3014 13.2839C21.4683 13.2839 21.6662 13.2807 21.8951 13.2755L21.9036 13.3642L21.7068 13.4201C21.648 13.4339 21.6191 13.4645 21.6191 13.5131C21.6191 13.5458 21.6309 13.5859 21.6533 13.6334C21.6769 13.6809 21.7047 13.7348 21.7378 13.795L22.4085 15.0885C22.509 14.8689 22.5978 14.6545 22.6759 14.4465C22.754 14.2385 22.831 14.0315 22.9058 13.8256C22.939 13.7337 22.9636 13.663 22.9786 13.6155C22.9936 13.568 23.0021 13.5299 23.0021 13.5025C23.0021 13.4803 22.9968 13.4634 22.985 13.4508C22.9743 13.4381 22.954 13.4286 22.9262 13.4222L22.7229 13.3705L22.7197 13.2744Z" fill="#B19578"/>
<path d="M25.6809 13.9146V15.5302C25.6809 15.6126 25.6809 15.6875 25.682 15.7562C25.6831 15.8248 25.6841 15.8861 25.6852 15.941C25.6863 15.9726 25.7066 15.9938 25.744 16.0043L25.9943 16.0803L26.0007 16.169C25.8157 16.1648 25.6392 16.1627 25.4734 16.1627C25.3065 16.1627 25.144 16.1648 24.9835 16.169L24.975 16.0803L25.2135 16.0085C25.2488 15.998 25.2659 15.9737 25.268 15.9389C25.2691 15.8839 25.2702 15.8227 25.2712 15.7551C25.2723 15.6875 25.2723 15.6126 25.2723 15.5302V13.4711H24.5674C24.5589 13.6855 24.5428 13.9009 24.5182 14.1163C24.4936 14.3317 24.4573 14.545 24.4091 14.7573C24.361 14.9695 24.3 15.1786 24.2252 15.3845C24.1503 15.5915 24.0583 15.7931 23.9481 15.9916C23.9267 16.0265 23.9075 16.0561 23.8882 16.0825C23.869 16.1089 23.8444 16.13 23.8144 16.1469C23.7834 16.1638 23.746 16.1764 23.7 16.1849C23.654 16.1933 23.5951 16.1976 23.5224 16.1976C23.4112 16.1976 23.2817 16.1849 23.1331 16.1606L23.1245 16.0719L23.2454 16.0497C23.2957 16.0413 23.3374 16.0318 23.3716 16.0212C23.4058 16.0107 23.4368 15.9969 23.4657 15.9811C23.4946 15.9653 23.5213 15.9462 23.5481 15.922C23.5748 15.8987 23.6048 15.8681 23.6379 15.8311C23.7224 15.7393 23.7994 15.6326 23.8668 15.5123C23.9342 15.3919 23.9941 15.2641 24.0465 15.1279C24.0989 14.9917 24.1439 14.8512 24.1824 14.7066C24.2209 14.5619 24.2519 14.4204 24.2754 14.28C24.299 14.1406 24.3161 14.0054 24.3278 13.8745C24.3396 13.7436 24.345 13.6253 24.345 13.5176C24.345 13.4859 24.3225 13.4638 24.2776 13.4521L23.9577 13.3656L23.9535 13.2769C24.1417 13.2821 24.2904 13.2853 24.4006 13.2853H25.4713C25.6381 13.2853 25.8103 13.2821 25.989 13.2769L25.9997 13.3656L25.743 13.4416C25.7077 13.4521 25.6884 13.4743 25.6841 13.5081C25.6831 13.563 25.682 13.6243 25.6809 13.6918C25.6809 13.7573 25.6809 13.8323 25.6809 13.9146Z" fill="#B19578"/>
<path d="M27.2598 13.8478V14.5267C27.371 14.5162 27.4801 14.5099 27.5871 14.5099C27.9465 14.5099 28.216 14.5774 28.3946 14.7126C28.5733 14.8477 28.662 15.0399 28.662 15.2891C28.662 15.4486 28.6321 15.5848 28.5722 15.6978C28.5123 15.8108 28.4321 15.9016 28.3315 15.9723C28.231 16.042 28.1122 16.0937 27.9775 16.1265C27.8427 16.1592 27.7015 16.175 27.5518 16.175C27.4844 16.175 27.4106 16.1729 27.3293 16.1687C27.2491 16.1645 27.1581 16.1624 27.0587 16.1624C26.8886 16.1624 26.7153 16.1645 26.5388 16.1687L26.5303 16.08L26.787 16.004C26.8223 15.9945 26.8405 15.9734 26.8437 15.9406C26.8447 15.8857 26.8458 15.8245 26.8469 15.7558C26.848 15.6883 26.848 15.6122 26.848 15.5299V13.8562C26.848 13.7865 26.848 13.7232 26.8469 13.6662C26.8458 13.6102 26.8447 13.5585 26.8437 13.5131C26.8426 13.4772 26.8255 13.4539 26.7934 13.4434L26.5346 13.3631L26.5303 13.2744C26.71 13.2797 26.8832 13.2829 27.049 13.2829C27.2159 13.2829 27.3956 13.2797 27.5881 13.2744L27.5988 13.3631L27.3164 13.4455C27.2812 13.4581 27.263 13.4793 27.2619 13.5099C27.2608 13.5585 27.2598 13.6102 27.2587 13.6672C27.2598 13.7253 27.2598 13.7855 27.2598 13.8478ZM27.2598 14.6946V15.9797C27.3293 16.0029 27.4223 16.0145 27.5379 16.0145C27.7593 16.0145 27.9261 15.9575 28.0374 15.8424C28.1486 15.7273 28.2042 15.5594 28.2042 15.3377C28.2042 15.1149 28.1454 14.9502 28.0277 14.8435C27.9101 14.7369 27.7261 14.6841 27.4769 14.6841C27.4459 14.6841 27.4127 14.6851 27.3753 14.6872C27.3389 14.6894 27.3004 14.6915 27.2598 14.6946ZM29.5113 15.5299C29.5113 15.6122 29.5113 15.6872 29.5124 15.7548C29.5135 15.8224 29.5145 15.8836 29.5156 15.9385C29.5167 15.9734 29.5413 15.9966 29.5883 16.0082L29.8247 16.08L29.829 16.1687C29.6493 16.1645 29.476 16.1624 29.3092 16.1624C29.1412 16.1624 28.969 16.1645 28.7915 16.1687L28.7808 16.08L29.0375 16.004C29.0738 15.9945 29.0931 15.9734 29.0963 15.9406C29.0974 15.8857 29.0984 15.8245 29.0995 15.7558C29.1006 15.6883 29.1006 15.6122 29.1006 15.5299V13.8562C29.1006 13.7865 29.1006 13.7232 29.0995 13.6662C29.0984 13.6102 29.0974 13.5585 29.0963 13.5131C29.0952 13.4772 29.077 13.4539 29.0439 13.4434L28.7872 13.3631L28.7808 13.2744C28.9615 13.2797 29.1348 13.2829 29.3006 13.2829C29.4685 13.2829 29.6418 13.2797 29.8204 13.2744L29.829 13.3631L29.5701 13.4391C29.537 13.4476 29.5188 13.4687 29.5156 13.5036C29.5145 13.5511 29.5135 13.6039 29.5124 13.6619C29.5113 13.719 29.5113 13.7813 29.5113 13.8488V15.5299Z" fill="#B19578"/>
<path d="M32.0472 13.4665H31.0878V14.5436C31.2226 14.5309 31.3541 14.5246 31.4825 14.5246C31.8536 14.5246 32.1253 14.5869 32.2997 14.7115C32.474 14.8361 32.5607 15.0198 32.5607 15.2637C32.5607 15.5562 32.4601 15.7822 32.258 15.9395C32.0558 16.0968 31.7734 16.176 31.4119 16.176C31.3413 16.176 31.2621 16.1739 31.1744 16.1697C31.0878 16.1655 30.9915 16.1634 30.8867 16.1634C30.7177 16.1634 30.5455 16.1655 30.3679 16.1697L30.3594 16.081L30.6161 16.005C30.6525 15.9944 30.6706 15.9722 30.6728 15.9416C30.6738 15.8867 30.6749 15.8255 30.676 15.7568C30.6771 15.6892 30.6771 15.6132 30.6771 15.5309V13.8572C30.6771 13.7875 30.6771 13.7242 30.676 13.6671C30.6749 13.6112 30.6738 13.5594 30.6728 13.514C30.6717 13.4781 30.6546 13.4549 30.6225 13.4443L30.3637 13.3641L30.3594 13.2754C30.5391 13.2807 30.7123 13.2838 30.8781 13.2838H31.4108C31.5841 13.2838 31.7499 13.2828 31.9082 13.2817C32.0665 13.2807 32.2291 13.2786 32.3949 13.2754L32.4077 13.2923L32.2697 13.986L32.1863 13.9987L32.0472 13.4665ZM31.0878 15.9902C31.1905 16.0071 31.2932 16.0145 31.3926 16.0145C31.6258 16.0145 31.8034 15.9585 31.9253 15.8476C32.0483 15.7357 32.1093 15.5689 32.1093 15.344C32.1093 15.1254 32.0515 14.9628 31.936 14.8561C31.8205 14.7495 31.6376 14.6967 31.3862 14.6967C31.3017 14.6967 31.2012 14.703 31.0878 14.7157V15.9902Z" fill="#B19578"/>
<path d="M33.7889 14.8202V15.5298C33.7889 15.6122 33.7889 15.6861 33.7899 15.7526C33.791 15.8191 33.7921 15.8783 33.7931 15.9321C33.7942 15.9743 33.8124 16.0018 33.8477 16.0124L34.0798 16.081L34.0862 16.1697C33.9204 16.1655 33.7546 16.1634 33.5889 16.1634C33.4198 16.1634 33.2476 16.1655 33.0701 16.1697L33.0615 16.081L33.3182 16.005C33.3535 15.9955 33.3717 15.9743 33.3749 15.9416C33.376 15.8867 33.3771 15.8255 33.3781 15.7568C33.3792 15.6892 33.3792 15.6132 33.3792 15.5309V13.8572C33.3792 13.7875 33.3792 13.7242 33.3781 13.6671C33.3771 13.6112 33.376 13.5594 33.3749 13.514C33.3739 13.4781 33.3567 13.4549 33.3247 13.4443L33.0658 13.3641L33.0615 13.2754C33.1535 13.2786 33.2423 13.2807 33.3268 13.2817C33.4113 13.2828 33.4958 13.2838 33.5792 13.2838C33.6627 13.2838 33.745 13.2828 33.8274 13.2817C33.9087 13.2807 33.991 13.2786 34.0755 13.2754L34.0862 13.3641L33.8477 13.4359C33.8124 13.4443 33.7942 13.4655 33.7931 13.4992C33.7921 13.5489 33.791 13.6027 33.7899 13.6597C33.7889 13.7178 33.7889 13.7801 33.7889 13.8477V14.6375H34.0081C34.0723 14.6375 34.1301 14.6354 34.1804 14.6312C34.2317 14.627 34.2777 14.6175 34.3205 14.6016C34.3633 14.5858 34.4018 14.5636 34.4349 14.5341C34.4691 14.5045 34.5012 14.4644 34.5312 14.4137C34.5611 14.363 34.5889 14.3007 34.6157 14.2257C34.6424 14.1518 34.6692 14.061 34.697 13.9554C34.7248 13.8456 34.7494 13.7516 34.7708 13.6745C34.7922 13.5974 34.8136 13.5341 34.835 13.4834C34.8564 13.4327 34.8777 13.3937 34.9002 13.3662C34.9227 13.3377 34.9483 13.3176 34.9772 13.3039C35.0061 13.2912 35.0414 13.2828 35.082 13.2796C35.1227 13.2764 35.1708 13.2754 35.2286 13.2754C35.3473 13.2754 35.4746 13.2807 35.6115 13.2923L35.6201 13.4201C35.5238 13.4232 35.4425 13.4369 35.3762 13.4623C35.3099 13.4876 35.2532 13.5246 35.2051 13.5721C35.1569 13.6196 35.1141 13.6777 35.0778 13.7474C35.0403 13.8171 35.0029 13.8952 34.9633 13.9839C34.9344 14.0483 34.9045 14.1127 34.8735 14.1761C34.8424 14.2395 34.8104 14.2996 34.7751 14.3567C34.7398 14.4137 34.7023 14.4665 34.6617 14.514C34.621 14.5626 34.575 14.6037 34.5248 14.6375C34.6253 14.7833 34.7173 14.9258 34.8007 15.0652C34.8842 15.2046 34.9612 15.3323 35.0328 15.4495C35.1002 15.5583 35.1601 15.6533 35.2157 15.7368C35.2703 15.8191 35.3216 15.8835 35.3698 15.9311C35.3944 15.9543 35.419 15.9743 35.4425 15.9912C35.466 16.0081 35.4906 16.0219 35.5152 16.0335C35.5398 16.0451 35.5666 16.0546 35.5944 16.063C35.6222 16.0715 35.6543 16.0799 35.6907 16.0873L35.6971 16.1781C35.5965 16.1908 35.5131 16.1971 35.4468 16.1971C35.3901 16.1971 35.3398 16.1961 35.296 16.1929C35.2532 16.1898 35.2136 16.1845 35.1804 16.176C35.1462 16.1676 35.1152 16.157 35.0885 16.1443C35.0617 16.1317 35.035 16.1148 35.0104 16.0937C34.9473 16.0483 34.8852 15.9807 34.8243 15.892C34.7633 15.8022 34.6991 15.6977 34.6317 15.5763C34.5772 15.4812 34.5216 15.382 34.4659 15.2795C34.4092 15.1761 34.3483 15.0747 34.2809 14.9744C34.2616 14.9459 34.2445 14.9216 34.2306 14.9015C34.2167 14.8815 34.2017 14.8656 34.1857 14.854C34.1697 14.8424 34.1515 14.8339 34.1311 14.8297C34.1108 14.8244 34.0852 14.8223 34.0531 14.8223H33.7889V14.8202Z" fill="#B19578"/>
<path d="M36.7845 15.6249V15.9385C36.7845 15.9744 36.8037 15.9977 36.8433 16.0082L37.0754 16.08L37.0818 16.1687C36.916 16.1645 36.7502 16.1624 36.5845 16.1624C36.4187 16.1624 36.2454 16.1645 36.0657 16.1687L36.0571 16.08L36.3138 16.004C36.3502 15.9934 36.3684 15.9713 36.3705 15.9406C36.3737 15.8287 36.3748 15.6925 36.3748 15.5299V13.8562C36.3748 13.719 36.3737 13.6049 36.3705 13.5141C36.3695 13.4782 36.3523 13.455 36.3203 13.4444L36.0614 13.3642L36.0571 13.2755C36.2368 13.2807 36.4101 13.2839 36.5759 13.2839C36.7428 13.2839 36.9086 13.2807 37.0711 13.2755L37.0818 13.3642L36.8433 13.436C36.808 13.4444 36.7898 13.4655 36.7888 13.4993C36.7855 13.5986 36.7845 13.7147 36.7845 13.8478V15.3271L38.3376 13.701V13.4983C38.3376 13.4666 38.3183 13.4455 38.2787 13.4349L38.0466 13.3631L38.0402 13.2744C38.2103 13.2797 38.3793 13.2829 38.5472 13.2829C38.7141 13.2829 38.8841 13.2797 39.0585 13.2744L39.0671 13.3631L38.8039 13.4434C38.7718 13.4539 38.7547 13.4772 38.7536 13.5131C38.7494 13.6039 38.7472 13.7179 38.7472 13.8552V15.5288C38.7472 15.6914 38.7494 15.8276 38.7536 15.9396C38.7547 15.9713 38.774 15.9924 38.8103 16.0029L39.0628 16.079L39.0671 16.1677C38.882 16.1634 38.7055 16.1613 38.5397 16.1613C38.3729 16.1613 38.2103 16.1634 38.052 16.1677L38.0413 16.079L38.2798 16.0072C38.3151 15.9977 38.3322 15.9744 38.3344 15.9375L38.3386 15.5288V13.9977L36.7845 15.6249Z" fill="#B19578"/>
<path d="M13.0806 8.7285C13.0796 8.70389 13.0774 8.68036 13.0774 8.65576C13.0774 8.68036 13.0753 8.70389 13.0742 8.7285H13.0806Z" fill="#B19578"/>
<path d="M13.3479 5.48389C13.3479 6.23571 12.7307 6.84392 11.9702 6.84392C12.7318 6.84392 13.3479 7.45319 13.3479 8.20396C13.3479 7.47642 13.9266 6.88405 14.6539 6.84709V6.8397C13.9266 6.8038 13.3479 6.21142 13.3479 5.48389Z" fill="#B19578"/>
<path d="M44.0977 6.87061C44.0977 7.16732 43.8538 7.40807 43.5532 7.40807C43.8538 7.40807 44.0977 7.64882 44.0977 7.94554C44.0977 7.65833 44.3266 7.42391 44.6132 7.40913V7.40596C44.3266 7.39118 44.0977 7.15782 44.0977 6.87061Z" fill="#B19578"/>
<path d="M13.0732 5.86426C13.0743 5.88886 13.0765 5.91239 13.0765 5.93699C13.0765 5.91239 13.0786 5.88886 13.0797 5.86426H13.0732Z" fill="#B19578"/>
<path d="M8.49951 0.961426C3.84878 0.961426 0.0644531 4.6973 0.0644531 9.28848C0.0644531 13.8797 3.84878 17.6155 8.49951 17.6155C13.1502 17.6155 16.9346 13.8797 16.9346 9.28848C16.9346 4.6973 13.1513 0.961426 8.49951 0.961426ZM8.49951 17.1034C5.1334 17.1034 2.25397 15.0179 1.11055 12.0877C2.45506 12.5165 3.91403 12.6685 5.40829 12.4837C8.55727 12.0941 11.1757 10.2937 12.7021 7.80701C11.1532 9.51233 9.00116 10.6971 6.51856 11.0044C4.40499 11.2673 2.36307 10.8555 0.61317 9.93998C0.594986 9.72563 0.583221 9.50811 0.583221 9.28848C0.583221 4.97923 4.13437 1.47355 8.49951 1.47355C12.8646 1.47355 16.4158 4.97923 16.4158 9.28848C16.4158 13.5977 12.8646 17.1034 8.49951 17.1034Z" fill="#B19578"/>
</svg>
