<svg width="95" height="36" viewBox="0 0 95 36" fill="none" xmlns="http://www.w3.org/2000/svg">
<path d="M45.3159 7.83505V9.33093C45.3159 9.50456 45.3159 9.66038 45.3181 9.80062C45.3204 9.94086 45.3226 10.0655 45.3248 10.179C45.3271 10.2681 45.365 10.326 45.4387 10.3482L45.923 10.4907L45.9364 10.6777C45.5905 10.6688 45.2445 10.6643 44.8985 10.6643C44.5458 10.6643 44.1865 10.6688 43.816 10.6777L43.7981 10.4907L44.3338 10.3304C44.4075 10.3104 44.4454 10.2659 44.4521 10.1946C44.4543 10.0789 44.4566 9.94976 44.4588 9.80507C44.461 9.66261 44.461 9.50234 44.461 9.32871V5.8027C44.461 5.65356 44.461 5.52223 44.4588 5.40202C44.4566 5.28404 44.4543 5.17497 44.4521 5.07925C44.4499 5.00357 44.4141 4.95459 44.3472 4.93233L43.807 4.76316L43.7981 4.57617C43.9901 4.58285 44.1753 4.5873 44.3517 4.58953C44.528 4.59175 44.7043 4.59398 44.8784 4.59398C45.0525 4.59398 45.2244 4.59175 45.3963 4.58953C45.5659 4.5873 45.7378 4.58285 45.9141 4.57617L45.9364 4.76316L45.4387 4.91453C45.365 4.93233 45.3271 4.97685 45.3248 5.05031C45.3226 5.15494 45.3204 5.26846 45.3181 5.38867C45.3159 5.5111 45.3159 5.64243 45.3159 5.7849V7.44995H45.7735C45.9074 7.44995 46.0279 7.4455 46.1329 7.4366C46.24 7.42769 46.336 7.40766 46.4253 7.37427C46.5145 7.34088 46.5949 7.29413 46.6641 7.22958C46.7355 7.16725 46.8025 7.08266 46.865 6.97581C46.9275 6.86896 46.9855 6.73763 47.0413 6.57958C47.0971 6.42376 47.1529 6.23232 47.211 6.00972C47.269 5.77822 47.3203 5.5801 47.365 5.4176C47.4096 5.25511 47.4543 5.12154 47.4989 5.0147C47.5435 4.90785 47.5882 4.82549 47.6351 4.76761C47.6819 4.70751 47.7355 4.66521 47.7958 4.63627C47.856 4.60956 47.9297 4.59175 48.0145 4.58508C48.0993 4.5784 48.1998 4.57617 48.3203 4.57617C48.5681 4.57617 48.8337 4.5873 49.1194 4.61179L49.1372 4.88114C48.9364 4.88781 48.7667 4.91675 48.6283 4.97018C48.4899 5.0236 48.3716 5.10151 48.2712 5.20168C48.1708 5.30185 48.0815 5.42428 48.0056 5.5712C47.9275 5.71812 47.8493 5.88284 47.7667 6.06983C47.7065 6.20561 47.644 6.3414 47.5793 6.47496C47.5145 6.60852 47.4476 6.7354 47.3739 6.85561C47.3002 6.97581 47.2221 7.08711 47.1373 7.18728C47.0525 7.28968 46.9565 7.37649 46.8516 7.44773C47.0614 7.75492 47.2534 8.05543 47.4275 8.34926C47.6016 8.64309 47.7623 8.91244 47.9118 9.15953C48.0525 9.38881 48.1775 9.58915 48.2935 9.765C48.4074 9.93863 48.5145 10.0744 48.6149 10.1746C48.6663 10.2236 48.7176 10.2659 48.7667 10.3015C48.8158 10.3371 48.8672 10.366 48.9185 10.3905C48.9698 10.415 49.0256 10.4373 49.0837 10.4528C49.1417 10.4706 49.2087 10.4885 49.2846 10.504L49.298 10.6955C49.0881 10.7222 48.914 10.7355 48.7757 10.7355C48.6574 10.7355 48.5524 10.7333 48.4609 10.7266C48.3716 10.72 48.2891 10.7088 48.2199 10.691C48.1484 10.6732 48.0837 10.651 48.0279 10.6242C47.9721 10.5975 47.9163 10.5619 47.865 10.5174C47.7333 10.4217 47.6038 10.2792 47.4766 10.09C47.3493 9.90079 47.2154 9.68042 47.0748 9.42442C46.961 9.22408 46.8449 9.01484 46.7288 8.79669C46.6105 8.57854 46.4833 8.36484 46.3427 8.15337C46.3025 8.09327 46.2668 8.04207 46.2378 7.99978C46.2087 7.95748 46.1775 7.92409 46.144 7.89961C46.1105 7.87512 46.0726 7.85731 46.0302 7.84841C45.9878 7.83728 45.9342 7.83283 45.8672 7.83283H45.3159V7.83505Z" fill="#B19578"/>
<path d="M54.8467 5.92584V9.33164C54.8467 9.50526 54.8467 9.66331 54.8489 9.808C54.8511 9.95269 54.8533 10.0818 54.8556 10.1976C54.8578 10.2643 54.9002 10.3089 54.9783 10.3333L55.5007 10.4936L55.514 10.6806C55.1279 10.6717 54.7596 10.6672 54.4136 10.6672C54.0654 10.6672 53.7261 10.6717 53.3913 10.6806L53.3735 10.4936L53.8712 10.3422C53.9449 10.32 53.9806 10.2688 53.9851 10.1953C53.9873 10.0796 53.9895 9.95047 53.9918 9.808C53.994 9.66554 53.994 9.50749 53.994 9.33386V4.99314H52.523C52.5052 5.44502 52.4717 5.89913 52.4204 6.35323C52.369 6.80734 52.2931 7.25699 52.1927 7.70442C52.0923 8.15185 51.965 8.5926 51.8088 9.02667C51.6525 9.46074 51.4606 9.88814 51.2307 10.3044C51.186 10.3779 51.1459 10.4402 51.1057 10.4958C51.0655 10.5515 51.0142 10.596 50.9517 10.6339C50.8869 10.6695 50.8088 10.6962 50.7128 10.714C50.6168 10.7318 50.4941 10.7407 50.3423 10.7407C50.1102 10.7407 49.8401 10.714 49.5298 10.6628L49.512 10.4758L49.7642 10.4268C49.8691 10.409 49.9561 10.389 50.0276 10.3667C50.099 10.3445 50.1637 10.3155 50.224 10.2821C50.2843 10.2488 50.3401 10.2065 50.3959 10.1575C50.4517 10.1085 50.5142 10.044 50.5834 9.96605C50.7597 9.77239 50.9204 9.54756 51.061 9.29379C51.2017 9.04003 51.3266 8.76846 51.436 8.48353C51.5454 8.19637 51.6391 7.90031 51.7195 7.59535C51.7999 7.29038 51.8646 6.9921 51.9137 6.69604C51.9628 6.4022 51.9985 6.11728 52.0231 5.84125C52.0454 5.56522 52.0588 5.31591 52.0588 5.08886C52.0588 5.02208 52.0119 4.97533 51.9182 4.94862L51.2508 4.76609L51.2418 4.5791C51.6347 4.59023 51.9449 4.59691 52.1748 4.59691H54.4092C54.7574 4.59691 55.1167 4.59023 55.4895 4.5791L55.5118 4.76609L54.9761 4.92636C54.9025 4.94862 54.8623 4.99537 54.8533 5.0666C54.8511 5.18235 54.8489 5.31146 54.8467 5.45392C54.8489 5.59416 54.8467 5.75221 54.8467 5.92584Z" fill="#B19578"/>
<path d="M58.1414 9.53198V10.1931C58.1414 10.2688 58.1815 10.3178 58.2641 10.34L58.7485 10.4914L58.7619 10.6784C58.4159 10.6695 58.0699 10.665 57.724 10.665C57.378 10.665 57.0164 10.6695 56.6414 10.6784L56.6235 10.4914L57.1592 10.3311C57.2351 10.3089 57.2731 10.2621 57.2775 10.1953C57.2842 9.95937 57.2865 9.67222 57.2865 9.32941V5.80341C57.2865 5.51403 57.2842 5.27139 57.2775 5.08218C57.2753 5.0065 57.2396 4.95752 57.1726 4.93526L56.6325 4.76609L56.6235 4.5791C56.9985 4.59023 57.3601 4.59691 57.7061 4.59691C58.0543 4.59691 58.4003 4.59023 58.7396 4.5791L58.7619 4.76609L58.2641 4.91746C58.1905 4.93526 58.1525 4.97978 58.1503 5.05324C58.1436 5.26249 58.1414 5.50735 58.1414 5.78783V8.90647L61.3823 5.47841V5.05324C61.3823 4.98646 61.3422 4.94194 61.2596 4.91746L60.7752 4.76609L60.7618 4.5791C61.1167 4.59023 61.4694 4.59691 61.8198 4.59691C62.168 4.59691 62.5229 4.59023 62.8868 4.5791L62.9046 4.76609L62.3555 4.93526C62.2886 4.95752 62.2529 5.00872 62.2506 5.08218C62.2417 5.27362 62.2372 5.51403 62.2372 5.80341V9.33164C62.2372 9.67444 62.2417 9.9616 62.2506 10.1976C62.2529 10.2643 62.293 10.3089 62.3689 10.3333L62.8957 10.4936L62.9046 10.6806C62.5185 10.6717 62.1502 10.6672 61.8042 10.6672C61.4582 10.6672 61.1167 10.6717 60.7864 10.6806L60.7641 10.4936L61.2618 10.3422C61.3355 10.3222 61.3712 10.2732 61.3757 10.1953L61.3846 9.33386V6.10615L58.1414 9.53198Z" fill="#B19578"/>
<path d="M65.5276 7.65768V9.33164C65.5276 9.67444 65.5298 9.9616 65.5365 10.1931C65.5387 10.271 65.5767 10.32 65.6504 10.34L66.1347 10.4914L66.1481 10.6784C65.8021 10.6695 65.4562 10.665 65.1102 10.665C64.7642 10.665 64.4026 10.6695 64.0276 10.6784L64.0098 10.4914L64.5455 10.3311C64.6214 10.3089 64.6593 10.2621 64.6638 10.1953C64.6705 9.95937 64.6727 9.67222 64.6727 9.32941V5.80341C64.6727 5.51403 64.6705 5.27139 64.6638 5.08218C64.6615 5.0065 64.6258 4.95752 64.5589 4.93526L64.0187 4.76609L64.0098 4.5791C64.3848 4.59023 64.7464 4.59691 65.0923 4.59691C65.4405 4.59691 65.7865 4.59023 66.1258 4.5791L66.1481 4.76609L65.6504 4.91746C65.5767 4.93526 65.5387 4.97978 65.5365 5.05324C65.5298 5.26249 65.5276 5.50735 65.5276 5.78783V7.26145H68.7038V5.78783C68.7038 5.50735 68.7016 5.26249 68.6949 5.05324C68.6927 4.98201 68.6547 4.93526 68.5811 4.91746L68.0967 4.76609L68.0878 4.5791C68.4427 4.59023 68.7931 4.59691 69.1391 4.59691C69.4851 4.59691 69.84 4.59023 70.2038 4.5791L70.2217 4.76609L69.6726 4.93526C69.6056 4.95752 69.5699 5.00872 69.5677 5.08218C69.561 5.27362 69.5587 5.51403 69.5587 5.80341V9.33164C69.5587 9.67444 69.561 9.9616 69.5677 10.1976C69.5699 10.2643 69.6101 10.3089 69.686 10.3333L70.2127 10.4936L70.2217 10.6806C69.8378 10.6717 69.4717 10.6672 69.1235 10.6672C68.7775 10.6672 68.4382 10.6717 68.1079 10.6806L68.09 10.4936L68.5833 10.3422C68.657 10.3222 68.6927 10.2732 68.6971 10.1953C68.7038 9.96382 68.7061 9.67667 68.7061 9.33386V7.65768H65.5276Z" fill="#B19578"/>
<path d="M72.853 9.53198V10.1931C72.853 10.2688 72.8932 10.3178 72.9758 10.34L73.4602 10.4914L73.4735 10.6784C73.1276 10.6695 72.7816 10.665 72.4356 10.665C72.0896 10.665 71.7281 10.6695 71.3531 10.6784L71.3352 10.4914L71.8709 10.3311C71.9468 10.3089 71.9847 10.2621 71.9892 10.1953C71.9959 9.95937 71.9981 9.67222 71.9981 9.32941V5.80341C71.9981 5.51403 71.9959 5.27139 71.9892 5.08218C71.987 5.0065 71.9513 4.95752 71.8843 4.93526L71.3441 4.76609L71.3352 4.5791C71.7102 4.59023 72.0718 4.59691 72.4178 4.59691C72.766 4.59691 73.1119 4.59023 73.4512 4.5791L73.4735 4.76609L72.9758 4.91746C72.9021 4.93526 72.8642 4.97978 72.862 5.05324C72.8553 5.26249 72.853 5.50735 72.853 5.78783V8.90647L76.094 5.47841V5.05324C76.094 4.98646 76.0538 4.94194 75.9712 4.91746L75.4869 4.76609L75.4735 4.5791C75.8284 4.59023 76.1811 4.59691 76.5315 4.59691C76.8797 4.59691 77.2346 4.59023 77.5984 4.5791L77.6163 4.76609L77.0672 4.93526C77.0002 4.95752 76.9645 5.00872 76.9623 5.08218C76.9534 5.27362 76.9489 5.51403 76.9489 5.80341V9.33164C76.9489 9.67444 76.9534 9.9616 76.9623 10.1976C76.9645 10.2643 77.0047 10.3089 77.0806 10.3333L77.6074 10.4936L77.6163 10.6806C77.2302 10.6717 76.8619 10.6672 76.5159 10.6672C76.1677 10.6672 75.8284 10.6717 75.498 10.6806L75.4757 10.4936L75.9735 10.3422C76.0471 10.3222 76.0829 10.2732 76.0873 10.1953L76.0963 9.33386V6.10615L72.853 9.53198Z" fill="#B19578"/>
<path d="M80.2393 7.83505V9.33093C80.2393 9.50456 80.2393 9.66038 80.2415 9.80062C80.2437 9.94086 80.246 10.0655 80.2482 10.179C80.2504 10.2681 80.2884 10.326 80.362 10.3482L80.8464 10.4907L80.8598 10.6777C80.5138 10.6688 80.1678 10.6643 79.8219 10.6643C79.4692 10.6643 79.1098 10.6688 78.7393 10.6777L78.7214 10.4907L79.2571 10.3304C79.3308 10.3104 79.3687 10.2659 79.3754 10.1946C79.3777 10.0789 79.3799 9.94976 79.3821 9.80507C79.3844 9.66261 79.3844 9.50234 79.3844 9.32871V5.8027C79.3844 5.65356 79.3844 5.52223 79.3821 5.40202C79.3799 5.28404 79.3777 5.17497 79.3754 5.07925C79.3732 5.00357 79.3375 4.95459 79.2705 4.93233L78.7304 4.76316L78.7214 4.57617C78.9134 4.58285 79.0987 4.5873 79.275 4.58953C79.4513 4.59175 79.6277 4.59398 79.8018 4.59398C79.9759 4.59398 80.1477 4.59175 80.3196 4.58953C80.4892 4.5873 80.6611 4.58285 80.8375 4.57617L80.8598 4.76316L80.362 4.91453C80.2884 4.93233 80.2504 4.97685 80.2482 5.05031C80.246 5.15494 80.2437 5.26846 80.2415 5.38867C80.2393 5.5111 80.2393 5.64243 80.2393 5.7849V7.44995H80.6968C80.8308 7.44995 80.9513 7.4455 81.0562 7.4366C81.1633 7.42769 81.2593 7.40766 81.3486 7.37427C81.4379 7.34088 81.5182 7.29413 81.5874 7.22958C81.6589 7.16725 81.7258 7.08266 81.7883 6.97581C81.8508 6.86896 81.9089 6.73763 81.9647 6.57958C82.0205 6.42376 82.0763 6.23232 82.1343 6.00972C82.1923 5.77822 82.2437 5.5801 82.2883 5.4176C82.333 5.25511 82.3776 5.12154 82.4222 5.0147C82.4669 4.90785 82.5115 4.82549 82.5584 4.76761C82.6053 4.70751 82.6588 4.66521 82.7191 4.63627C82.7794 4.60956 82.853 4.59175 82.9379 4.58508C83.0227 4.5784 83.1231 4.57617 83.2436 4.57617C83.4914 4.57617 83.757 4.5873 84.0427 4.61179L84.0606 4.88114C83.8597 4.88781 83.6901 4.91675 83.5517 4.97018C83.4133 5.0236 83.295 5.10151 83.1945 5.20168C83.0941 5.30185 83.0048 5.42428 82.9289 5.5712C82.8508 5.71812 82.7727 5.88284 82.6901 6.06983C82.6298 6.20561 82.5673 6.3414 82.5026 6.47496C82.4379 6.60852 82.3709 6.7354 82.2972 6.85561C82.2236 6.97581 82.1455 7.08711 82.0606 7.18728C81.9758 7.28968 81.8798 7.37649 81.7749 7.44773C81.9847 7.75492 82.1767 8.05543 82.3508 8.34926C82.5249 8.64309 82.6856 8.91244 82.8352 9.15953C82.9758 9.38881 83.1008 9.58915 83.2169 9.765C83.3307 9.93863 83.4378 10.0744 83.5383 10.1746C83.5896 10.2236 83.641 10.2659 83.6901 10.3015C83.7392 10.3371 83.7905 10.366 83.8418 10.3905C83.8932 10.415 83.949 10.4373 84.007 10.4528C84.0651 10.4706 84.132 10.4885 84.2079 10.504L84.2213 10.6955C84.0115 10.7222 83.8374 10.7355 83.699 10.7355C83.5807 10.7355 83.4758 10.7333 83.3843 10.7266C83.295 10.72 83.2124 10.7088 83.1432 10.691C83.0718 10.6732 83.007 10.651 82.9512 10.6242C82.8954 10.5975 82.8396 10.5619 82.7883 10.5174C82.6566 10.4217 82.5271 10.2792 82.3999 10.09C82.2727 9.90079 82.1388 9.68042 81.9981 9.42442C81.8843 9.22408 81.7682 9.01484 81.6522 8.79669C81.5339 8.57854 81.4066 8.36484 81.266 8.15337C81.2258 8.09327 81.1901 8.04207 81.1611 7.99978C81.1321 7.95748 81.1008 7.92409 81.0674 7.89961C81.0339 7.87512 80.9959 7.85731 80.9535 7.84841C80.9111 7.83728 80.8575 7.83283 80.7906 7.83283H80.2393V7.83505Z" fill="#B19578"/>
<path d="M87.8349 4.48535L89.7724 9.80552C89.846 10.0059 89.9107 10.1416 89.971 10.2129C90.0313 10.2841 90.1161 10.3375 90.2255 10.3709L90.6362 10.4934L90.6451 10.6803C90.2634 10.6714 89.9108 10.667 89.5849 10.667C89.2523 10.667 88.8617 10.6714 88.4108 10.6803L88.3929 10.4934L88.8081 10.3709C88.8661 10.3509 88.9085 10.3286 88.9331 10.3041C88.9576 10.2797 88.971 10.2418 88.971 10.1884C88.971 10.1305 88.9554 10.0548 88.9264 9.95911C88.8951 9.86562 88.8527 9.73874 88.7969 9.58292L88.3862 8.41649H86.2836L85.826 9.57846C85.7658 9.74096 85.7167 9.87007 85.6809 9.96579C85.6452 10.0615 85.6296 10.1372 85.6296 10.1928C85.6296 10.2418 85.643 10.2797 85.672 10.3041C85.6988 10.3286 85.7412 10.3487 85.797 10.3665L86.2033 10.4845L86.2122 10.6803C85.7992 10.6714 85.4622 10.667 85.201 10.667C84.9399 10.667 84.6475 10.6714 84.3238 10.6803L84.3015 10.4934L84.7412 10.3576C84.8528 10.322 84.9332 10.2685 84.9845 10.1973C85.0359 10.1238 85.0939 10.0125 85.1586 9.85894L87.3885 4.55213L87.8349 4.48535ZM86.4443 8.02248H88.2411L87.3907 5.62507L86.4443 8.02248Z" fill="#B19578"/>
<path d="M44.6775 15.6714L44.3851 16.7711L44.211 16.7978L43.9498 15.4221L43.9766 15.391C44.5838 15.2351 45.1418 15.1572 45.6462 15.1572C46.3159 15.1572 46.827 15.2797 47.1841 15.5245C47.5413 15.7694 47.7176 16.1322 47.7176 16.613C47.7176 16.9826 47.6149 17.2853 47.4096 17.5257C47.2042 17.7661 46.9208 17.9486 46.5614 18.0688C47.0301 18.149 47.3783 18.3271 47.6105 18.5964C47.8426 18.868 47.9564 19.1997 47.9564 19.5892C47.9564 20.2036 47.7332 20.6711 47.2868 20.9916C46.8404 21.3121 46.2355 21.4724 45.4744 21.4724C44.9476 21.4724 44.4141 21.3812 43.874 21.1986L43.8472 21.1675L44.0704 19.6671L44.2713 19.6315L44.5815 20.9226C44.8806 21.0406 45.1953 21.1007 45.5235 21.1007C45.9922 21.1007 46.356 20.976 46.615 20.7289C46.8739 20.4818 47.0033 20.1346 47.0033 19.6916C47.0033 19.2464 46.8694 18.9081 46.6038 18.6788C46.3382 18.4495 45.9565 18.3337 45.4587 18.3337C45.307 18.3337 45.0927 18.3582 44.8137 18.4028L44.7869 17.8885C45.0971 17.9264 45.3226 17.9442 45.4587 17.9442C45.8985 17.9442 46.2243 17.8351 46.4409 17.617C46.6551 17.3988 46.7645 17.0961 46.7645 16.7043C46.7645 16.3081 46.6551 16.0076 46.4342 15.805C46.2154 15.6024 45.9096 15.5023 45.5168 15.5023C45.2422 15.5156 44.9632 15.5668 44.6775 15.6714Z" fill="#B19578"/>
<path d="M49.3652 21.3563L49.0036 23.1927L48.7714 23.2239L48.5237 20.9912L48.5505 20.96H49.2536C49.4254 20.7686 49.5817 20.5415 49.7201 20.2766C49.8674 20.0028 50.0013 19.7135 50.1196 19.4018C50.2379 19.0924 50.3406 18.7696 50.4277 18.4335C50.5147 18.0996 50.5884 17.7702 50.6486 17.4496C50.7089 17.1291 50.7535 16.8263 50.7826 16.5392C50.8116 16.252 50.8272 15.9983 50.8272 15.7734C50.8272 15.7044 50.7848 15.6577 50.7 15.6332L50.0192 15.4507L50.0103 15.2637C50.4053 15.2748 50.7334 15.2815 50.9924 15.2815H53.1329C53.4811 15.2815 53.8427 15.2748 54.2155 15.2637L54.2334 15.4507L53.6977 15.6109C53.6218 15.6376 53.5838 15.6844 53.5794 15.7512C53.5771 15.8669 53.5749 15.996 53.5727 16.1385C53.5704 16.281 53.5704 16.439 53.5704 16.6126V20.1275C53.5704 20.29 53.5704 20.428 53.5727 20.5415C53.5749 20.6551 53.5771 20.7441 53.5794 20.8109C53.5816 20.9088 53.6151 20.9578 53.6753 20.9578H54.4655L54.4923 20.989L54.249 23.1905L54.0168 23.2217L53.6508 21.3563H49.3652ZM52.7155 20.9623V15.6799H51.2892C51.258 16.1229 51.2133 16.5726 51.1575 17.0267C51.1017 17.4808 51.0214 17.9304 50.9165 18.3801C50.8093 18.8275 50.6732 19.2683 50.5013 19.7023C50.3317 20.1364 50.1129 20.5549 49.8451 20.9623H52.7155Z" fill="#B19578"/>
<path d="M61.6617 18.1819C61.6617 19.1858 61.376 19.9916 60.8046 20.6015C60.2332 21.2115 59.4341 21.5164 58.4096 21.5164C57.4364 21.5164 56.6819 21.2337 56.1485 20.6705C55.615 20.1074 55.3494 19.3438 55.3494 18.38C55.3494 17.376 55.6351 16.5836 56.211 15.9981C56.7846 15.4127 57.5815 15.1211 58.5971 15.1211C59.5725 15.1211 60.3292 15.3949 60.8604 15.9403C61.3961 16.4901 61.6617 17.2358 61.6617 18.1819ZM56.3069 18.2375C56.3069 19.1836 56.4989 19.907 56.8828 20.4101C57.2667 20.9132 57.8292 21.1647 58.5703 21.1647C59.3002 21.1647 59.8381 20.9354 60.1863 20.4791C60.5345 20.0228 60.7064 19.306 60.7064 18.3288C60.7064 17.4117 60.5211 16.7082 60.1528 16.2141C59.7845 15.7199 59.2131 15.475 58.443 15.475C57.6953 15.475 57.1529 15.7043 56.8136 16.1606C56.4743 16.617 56.3069 17.3093 56.3069 18.2375Z" fill="#B19578"/>
<path d="M64.3018 20.0226C64.3018 20.1962 64.3018 20.352 64.304 20.4923C64.3062 20.6325 64.3085 20.7549 64.3107 20.8662C64.3129 20.933 64.3509 20.9775 64.4245 21.002L65.0272 21.1845L65.0361 21.3715C64.6142 21.3626 64.2303 21.3582 63.8844 21.3582C63.5317 21.3582 63.1723 21.3626 62.8018 21.3715L62.7839 21.1845L63.3196 21.0243C63.3955 21.002 63.4335 20.9553 63.4379 20.8885C63.4402 20.7727 63.4424 20.6436 63.4446 20.4989C63.4469 20.3565 63.4469 20.1962 63.4469 20.0226V16.4943C63.4469 16.3452 63.4469 16.2139 63.4446 16.0937C63.4424 15.9757 63.4402 15.8666 63.4379 15.7709C63.4357 15.6952 63.4 15.6462 63.333 15.624L62.7929 15.4548L62.7839 15.2678C63.1589 15.2789 63.525 15.2856 63.8821 15.2856C64.1232 15.2856 64.3553 15.2789 64.5785 15.2678C64.8017 15.2567 65.0071 15.25 65.1924 15.25C65.8821 15.25 66.4022 15.3836 66.7548 15.6529C67.1075 15.92 67.2838 16.3207 67.2838 16.8505C67.2838 17.4738 67.0807 17.9591 66.6722 18.3041C66.2638 18.6491 65.6901 18.8227 64.9535 18.8227C64.7504 18.8227 64.5339 18.8094 64.3018 18.7827V20.0226ZM64.3018 18.4154C64.5049 18.451 64.7058 18.4666 64.9044 18.4666C65.3687 18.4666 65.7236 18.3464 65.9669 18.1082C66.2102 17.87 66.3307 17.5027 66.3307 17.0108C66.3307 16.5389 66.2147 16.1849 65.9847 15.9534C65.7526 15.7219 65.3888 15.6062 64.891 15.6062C64.6968 15.6062 64.5004 15.6173 64.3018 15.6418V18.4154Z" fill="#B19578"/>
<path d="M74.5584 18.1819C74.5584 19.1858 74.2727 19.9916 73.7013 20.6015C73.1299 21.2115 72.3308 21.5164 71.3063 21.5164C70.3331 21.5164 69.5786 21.2337 69.0452 20.6705C68.5117 20.1074 68.2461 19.3438 68.2461 18.38C68.2461 17.376 68.5318 16.5836 69.1077 15.9981C69.6813 15.4127 70.4782 15.1211 71.4938 15.1211C72.4692 15.1211 73.2259 15.3949 73.7571 15.9403C74.2928 16.4901 74.5584 17.2358 74.5584 18.1819ZM69.2037 18.2375C69.2037 19.1836 69.3956 19.907 69.7795 20.4101C70.1635 20.9132 70.7259 21.1647 71.467 21.1647C72.1969 21.1647 72.7348 20.9354 73.083 20.4791C73.4312 20.0228 73.6031 19.306 73.6031 18.3288C73.6031 17.4117 73.4178 16.7082 73.0495 16.2141C72.6813 15.7199 72.1098 15.475 71.3398 15.475C70.592 15.475 70.0496 15.7043 69.7103 16.1606C69.3733 16.6192 69.2037 17.3093 69.2037 18.2375Z" fill="#B19578"/>
<path d="M75.6812 15.2679C76.0561 15.2791 76.4244 15.2857 76.7838 15.2857C76.92 15.2791 77.1409 15.2724 77.4445 15.259C77.7481 15.2479 77.9557 15.2412 78.0606 15.2412C78.6989 15.2412 79.1811 15.3592 79.5092 15.5951C79.8351 15.8311 80.0002 16.1717 80.0002 16.6147C80.0002 17.3292 79.6141 17.8145 78.844 18.0727C79.2949 18.1484 79.6409 18.3153 79.8819 18.5735C80.123 18.8318 80.2435 19.1612 80.2435 19.5597C80.2435 20.1407 80.0315 20.5881 79.6096 20.9064C79.1855 21.2247 78.6007 21.3828 77.8507 21.3828C77.7012 21.3828 77.5405 21.3783 77.3664 21.3694C77.1923 21.3605 76.9981 21.3561 76.7816 21.3561C76.4289 21.3561 76.0673 21.3605 75.699 21.3694L75.6812 21.1824L76.2169 21.0222C76.2905 21.0021 76.3285 20.9576 76.3352 20.8864C76.3374 20.7706 76.3396 20.6415 76.3418 20.4968C76.3441 20.3544 76.3441 20.1941 76.3441 20.0205V16.4945C76.3441 16.3453 76.3441 16.214 76.3418 16.0938C76.3396 15.9758 76.3374 15.8667 76.3352 15.771C76.3329 15.6953 76.2972 15.6463 76.2302 15.6241L75.6901 15.4549L75.6812 15.2679ZM77.199 17.9814C77.3775 17.9837 77.5606 17.9859 77.7458 17.9859C78.1744 17.9859 78.498 17.8835 78.7168 17.6742C78.9355 17.4672 79.0449 17.1667 79.0449 16.7727C79.0449 16.3587 78.9333 16.0604 78.7079 15.8779C78.4824 15.6953 78.161 15.6063 77.7369 15.6063C77.661 15.6063 77.5784 15.6085 77.4891 15.613C77.3999 15.6174 77.3016 15.6241 77.199 15.6374V17.9814ZM77.199 18.3287V20.9687C77.286 20.9999 77.3865 21.0199 77.5003 21.0288C77.6141 21.0377 77.719 21.0422 77.815 21.0422C78.2949 21.0422 78.661 20.9242 78.911 20.686C79.161 20.4479 79.286 20.1028 79.286 19.6509C79.286 19.1991 79.1587 18.8629 78.9065 18.6448C78.6521 18.4266 78.2436 18.3153 77.6789 18.3153C77.5159 18.3176 77.3552 18.3198 77.199 18.3287Z" fill="#B19578"/>
<path d="M87.596 18.1819C87.596 19.1858 87.3103 19.9916 86.7389 20.6015C86.1675 21.2115 85.3684 21.5164 84.3439 21.5164C83.3707 21.5164 82.6162 21.2337 82.0828 20.6705C81.5493 20.1074 81.2837 19.3438 81.2837 18.38C81.2837 17.376 81.5694 16.5836 82.1453 15.9981C82.7189 15.4127 83.5158 15.1211 84.5314 15.1211C85.5068 15.1211 86.2635 15.3949 86.7947 15.9403C87.3282 16.4901 87.596 17.2358 87.596 18.1819ZM82.239 18.2375C82.239 19.1836 82.431 19.907 82.8149 20.4101C83.1988 20.9132 83.7613 21.1647 84.5024 21.1647C85.2323 21.1647 85.7702 20.9354 86.1184 20.4791C86.4666 20.0228 86.6385 19.306 86.6385 18.3288C86.6385 17.4117 86.4532 16.7082 86.0849 16.2141C85.7166 15.7199 85.1452 15.475 84.3751 15.475C83.6274 15.475 83.085 15.7043 82.7457 16.1606C82.4064 16.617 82.239 17.3093 82.239 18.2375Z" fill="#B19578"/>
<path d="M90.2368 20.2234V20.8845C90.2368 20.9602 90.277 21.0092 90.3596 21.0314L90.8439 21.1828L90.8573 21.3698C90.5114 21.3609 90.1654 21.3564 89.8194 21.3564C89.4734 21.3564 89.1118 21.3609 88.7368 21.3698L88.719 21.1828L89.2547 21.0225C89.3306 21.0003 89.3685 20.9535 89.373 20.8867C89.3797 20.6508 89.3819 20.3636 89.3819 20.0208V16.4948C89.3819 16.2054 89.3797 15.9628 89.373 15.7736C89.3708 15.6979 89.335 15.6489 89.2681 15.6267L88.7279 15.4575L88.719 15.2705C89.094 15.2816 89.4556 15.2883 89.8016 15.2883C90.1498 15.2883 90.4957 15.2816 90.835 15.2705L90.8573 15.4575L90.3596 15.6089C90.2859 15.6267 90.248 15.6712 90.2457 15.7446C90.239 15.9539 90.2368 16.1988 90.2368 16.4792V19.5979L93.4778 16.1698V15.7446C93.4778 15.6779 93.4376 15.6333 93.355 15.6089L92.8707 15.4575L92.8573 15.2705C93.2122 15.2816 93.5649 15.2883 93.9153 15.2883C94.2635 15.2883 94.6184 15.2816 94.9822 15.2705L95.0001 15.4575L94.451 15.6267C94.384 15.6489 94.3483 15.7001 94.3461 15.7736C94.3372 15.965 94.3327 16.2054 94.3327 16.4948V20.023C94.3327 20.3658 94.3372 20.653 94.3461 20.889C94.3483 20.9557 94.3885 21.0003 94.4644 21.0247L94.9912 21.185L95.0001 21.372C94.6139 21.3631 94.2456 21.3586 93.8997 21.3586C93.5537 21.3586 93.2122 21.3631 92.8818 21.372L92.8595 21.185L93.3573 21.0337C93.4309 21.0136 93.4666 20.9646 93.4711 20.8867L93.48 20.0253V16.7976L90.2368 20.2234Z" fill="#B19578"/>
<path d="M47.2775 25.957C47.5922 25.9682 47.9114 25.9748 48.2373 25.9748C48.5564 25.9748 48.8667 25.9682 49.1658 25.957L49.1837 26.144L48.7439 26.2843C48.6792 26.3043 48.6256 26.3288 48.581 26.3599C48.5364 26.3911 48.4962 26.4267 48.4627 26.4712C48.4292 26.5158 48.398 26.567 48.3712 26.6248C48.3444 26.6849 48.3176 26.7539 48.2908 26.8363C48.1346 27.257 47.9783 27.6666 47.8243 28.0651C47.6703 28.4635 47.5118 28.8575 47.3489 29.2493C47.1859 29.6389 47.0163 30.0284 46.84 30.418C46.6636 30.8075 46.4784 31.1971 46.2842 31.5933C46.2061 31.7558 46.1369 31.8871 46.0788 31.9873C46.0208 32.0875 45.9538 32.1676 45.8757 32.2255C45.7976 32.2856 45.7061 32.3257 45.5989 32.3479C45.4918 32.3702 45.3512 32.3813 45.1748 32.3813C44.9248 32.3813 44.6548 32.359 44.3646 32.3167L44.3467 32.1298L44.6213 32.0786C44.8199 32.0429 44.9896 31.9873 45.1324 31.9072C45.2753 31.827 45.4025 31.7291 45.5163 31.6089C45.6302 31.4909 45.7351 31.3529 45.8333 31.1948C45.9315 31.039 46.0364 30.8654 46.1502 30.6762L44.1749 26.8385C44.1369 26.7673 44.1012 26.6983 44.0699 26.6382C44.0387 26.5781 44.003 26.5224 43.965 26.4757C43.9271 26.4267 43.8847 26.3867 43.8356 26.351C43.7865 26.3154 43.7262 26.2887 43.6548 26.2687L43.2575 26.1462L43.2485 25.9593C43.5164 25.9704 43.8713 25.9771 44.3177 25.9771C44.6659 25.9771 45.0788 25.9704 45.5565 25.9593L45.5744 26.1462L45.1637 26.2642C45.0409 26.2932 44.9806 26.3577 44.9806 26.4601C44.9806 26.5291 45.0052 26.6137 45.0521 26.7139C45.1012 26.814 45.1592 26.9276 45.2284 27.0545L46.6279 29.7813C46.8377 29.3183 47.023 28.8664 47.1859 28.4279C47.3489 27.9894 47.5096 27.5531 47.6658 27.119C47.735 26.9253 47.7864 26.7762 47.8176 26.676C47.8489 26.5759 47.8667 26.4957 47.8667 26.4378C47.8667 26.3911 47.8556 26.3555 47.831 26.3288C47.8087 26.3021 47.7663 26.282 47.7082 26.2687L47.2842 26.1596L47.2775 25.957Z" fill="#B19578"/>
<path d="M53.4563 27.3064V30.7122C53.4563 30.8859 53.4563 31.0439 53.4585 31.1886C53.4607 31.3333 53.463 31.4624 53.4652 31.5781C53.4674 31.6449 53.5098 31.6894 53.588 31.7117L54.1103 31.872L54.1237 32.059C53.7375 32.0501 53.3692 32.0456 53.0232 32.0456C52.675 32.0456 52.3358 32.0501 52.001 32.059L51.9831 31.872L52.4808 31.7206C52.5545 31.6983 52.5902 31.6471 52.5947 31.5737C52.5969 31.4579 52.5992 31.3288 52.6014 31.1864C52.6036 31.0439 52.6036 30.8859 52.6036 30.7122V26.3715H51.1327C51.1148 26.8234 51.0813 27.2775 51.03 27.7316C50.9787 28.1857 50.9028 28.6354 50.8023 29.0828C50.7019 29.5302 50.5746 29.971 50.4184 30.405C50.2622 30.8413 50.0702 31.2665 49.8403 31.685C49.7956 31.7584 49.7555 31.8208 49.7153 31.8764C49.6751 31.9321 49.6238 31.9766 49.5613 32.0122C49.4965 32.0478 49.4184 32.0745 49.3224 32.0924C49.2265 32.1102 49.1037 32.1191 48.9519 32.1191C48.7198 32.1191 48.4497 32.0924 48.1394 32.0412L48.1216 31.8542L48.3738 31.8074C48.4787 31.7896 48.5658 31.7696 48.6372 31.7473C48.7086 31.7251 48.7734 31.6961 48.8336 31.6627C48.8939 31.6293 48.9497 31.5893 49.0055 31.5381C49.0613 31.4891 49.1238 31.4245 49.193 31.3466C49.3693 31.153 49.53 30.9281 49.6707 30.6744C49.8113 30.4206 49.9363 30.1513 50.0456 29.8641C50.155 29.577 50.2488 29.2809 50.3291 28.9759C50.4095 28.671 50.4742 28.3727 50.5233 28.0766C50.5724 27.7828 50.6081 27.4979 50.6327 27.2218C50.6572 26.9458 50.6684 26.6965 50.6684 26.4694C50.6684 26.4027 50.6215 26.3559 50.5278 26.3314L49.8604 26.1489L49.8514 25.9619C50.2443 25.973 50.5546 25.9797 50.7845 25.9797H53.0188C53.367 25.9797 53.7264 25.973 54.0991 25.9619L54.1214 26.1489L53.5857 26.3092C53.5121 26.3314 53.4719 26.3782 53.463 26.4494C53.4607 26.5652 53.4585 26.6943 53.4563 26.8367C53.4563 26.9747 53.4563 27.1328 53.4563 27.3064Z" fill="#B19578"/>
<path d="M56.751 27.1658V28.5971C56.9832 28.5748 57.2109 28.5615 57.4341 28.5615C58.184 28.5615 58.7465 28.7039 59.1193 28.9889C59.492 29.2738 59.6773 29.6789 59.6773 30.2043C59.6773 30.5404 59.6148 30.8275 59.4898 31.0657C59.3648 31.3039 59.1974 31.4953 58.9876 31.6445C58.7778 31.7914 58.53 31.9005 58.2488 31.9695C57.9675 32.0385 57.6729 32.0719 57.3604 32.0719C57.2198 32.0719 57.0658 32.0674 56.8961 32.0585C56.7287 32.0496 56.539 32.0452 56.3314 32.0452C55.9765 32.0452 55.6149 32.0496 55.2466 32.0585L55.2288 31.8715L55.7645 31.7113C55.8381 31.6912 55.8761 31.6467 55.8828 31.5777C55.885 31.462 55.8872 31.3328 55.8895 31.1882C55.8917 31.0457 55.8917 30.8854 55.8917 30.7118V27.1836C55.8917 27.0366 55.8917 26.9031 55.8895 26.7829C55.8872 26.6649 55.885 26.5558 55.8828 26.4601C55.8805 26.3844 55.8448 26.3355 55.7779 26.3132L55.2377 26.144L55.2288 25.957C55.6038 25.9682 55.9654 25.9748 56.3113 25.9748C56.6595 25.9748 57.0345 25.9682 57.4363 25.957L57.4586 26.144L56.8693 26.3176C56.7957 26.3444 56.7577 26.3889 56.7555 26.4534C56.7533 26.5558 56.751 26.6649 56.7488 26.7851C56.751 26.9075 56.751 27.0344 56.751 27.1658ZM56.751 28.951V31.6601C56.8961 31.709 57.0903 31.7335 57.3314 31.7335C57.7934 31.7335 58.1416 31.6133 58.3738 31.3707C58.6059 31.1281 58.722 30.7741 58.722 30.3067C58.722 29.837 58.5992 29.4897 58.3537 29.2649C58.1082 29.0401 57.7242 28.9288 57.2042 28.9288C57.1394 28.9288 57.0702 28.931 56.9921 28.9354C56.9162 28.9399 56.8359 28.9443 56.751 28.951ZM61.4496 30.7118C61.4496 30.8854 61.4496 31.0435 61.4518 31.1859C61.4541 31.3284 61.4563 31.4575 61.4585 31.5733C61.4607 31.6467 61.5121 31.6957 61.6103 31.7202L62.1036 31.8715L62.1125 32.0585C61.7375 32.0496 61.3759 32.0452 61.0277 32.0452C60.6773 32.0452 60.3179 32.0496 59.9474 32.0585L59.9251 31.8715L60.4608 31.7113C60.5367 31.6912 60.5768 31.6467 60.5835 31.5777C60.5858 31.462 60.588 31.3328 60.5902 31.1882C60.5925 31.0457 60.5925 30.8854 60.5925 30.7118V27.1836C60.5925 27.0366 60.5925 26.9031 60.5902 26.7829C60.588 26.6649 60.5858 26.5558 60.5835 26.4601C60.5813 26.3844 60.5434 26.3355 60.4742 26.3132L59.9385 26.144L59.9251 25.957C60.3023 25.9682 60.6639 25.9748 61.0099 25.9748C61.3603 25.9748 61.7219 25.9682 62.0947 25.957L62.1125 26.144L61.5724 26.3043C61.5032 26.3221 61.4652 26.3666 61.4585 26.4401C61.4563 26.5402 61.4541 26.6515 61.4518 26.774C61.4496 26.8942 61.4496 27.0255 61.4496 27.168V30.7118Z" fill="#B19578"/>
<path d="M66.7415 26.3629H64.7393V28.6334C65.0205 28.6067 65.2951 28.5933 65.5629 28.5933C66.3375 28.5933 66.9044 28.7247 67.2682 28.9873C67.6321 29.25 67.8129 29.6373 67.8129 30.1515C67.8129 30.7681 67.6031 31.2445 67.1812 31.5762C66.7593 31.9079 66.1701 32.0748 65.4156 32.0748C65.2683 32.0748 65.1031 32.0704 64.9201 32.0615C64.7393 32.0526 64.5384 32.0481 64.3197 32.0481C63.967 32.0481 63.6076 32.0526 63.2371 32.0615L63.2192 31.8745L63.7549 31.7142C63.8308 31.6919 63.8688 31.6452 63.8732 31.5806C63.8755 31.4649 63.8777 31.3358 63.8799 31.1911C63.8822 31.0486 63.8822 30.8883 63.8822 30.7147V27.1865C63.8822 27.0396 63.8822 26.906 63.8799 26.7858C63.8777 26.6678 63.8755 26.5588 63.8732 26.463C63.871 26.3874 63.8353 26.3384 63.7683 26.3161L63.2282 26.1469L63.2192 25.96C63.5942 25.9711 63.9558 25.9778 64.3018 25.9778H65.4134C65.775 25.9778 66.1209 25.9755 66.4513 25.9733C66.7816 25.9711 67.1209 25.9666 67.4669 25.96L67.4937 25.9956L67.2057 27.4581L67.0316 27.4848L66.7415 26.3629ZM64.7393 31.683C64.9536 31.7187 65.1679 31.7342 65.3754 31.7342C65.862 31.7342 66.2326 31.6163 66.487 31.3825C66.7437 31.1466 66.8709 30.7949 66.8709 30.3207C66.8709 29.8599 66.7504 29.5171 66.5093 29.2923C66.2683 29.0675 65.8866 28.9562 65.362 28.9562C65.1857 28.9562 64.9759 28.9695 64.7393 28.9962V31.683Z" fill="#B19578"/>
<path d="M70.3755 29.2166V30.7125C70.3755 30.8861 70.3755 31.0419 70.3777 31.1822C70.3799 31.3224 70.3822 31.4471 70.3844 31.5606C70.3866 31.6496 70.4246 31.7075 70.4983 31.7298L70.9826 31.8745L70.996 32.0615C70.65 32.0526 70.3041 32.0481 69.9581 32.0481C69.6054 32.0481 69.2461 32.0526 68.8755 32.0615L68.8577 31.8745L69.3934 31.7142C69.467 31.6942 69.505 31.6496 69.5117 31.5806C69.5139 31.4649 69.5161 31.3358 69.5184 31.1911C69.5206 31.0486 69.5206 30.8883 69.5206 30.7147V27.1865C69.5206 27.0396 69.5206 26.906 69.5184 26.7858C69.5161 26.6678 69.5139 26.5588 69.5117 26.463C69.5094 26.3874 69.4737 26.3384 69.4068 26.3161L68.8666 26.1469L68.8577 25.96C69.0496 25.9666 69.2349 25.9711 69.4112 25.9733C69.5876 25.9755 69.7639 25.9778 69.938 25.9778C70.1121 25.9778 70.284 25.9755 70.4558 25.9733C70.6255 25.9711 70.7974 25.9666 70.9737 25.96L70.996 26.1469L70.4983 26.2983C70.4246 26.3161 70.3866 26.3606 70.3844 26.4319C70.3822 26.5365 70.3799 26.65 70.3777 26.7702C70.3755 26.8927 70.3755 27.024 70.3755 27.1665V28.8315H70.8331C70.967 28.8315 71.0875 28.8271 71.1924 28.8182C71.2996 28.8093 71.3956 28.7892 71.4848 28.7558C71.5741 28.7224 71.6545 28.6757 71.7237 28.6134C71.7951 28.551 71.8621 28.4664 71.9246 28.3596C71.9871 28.2528 72.0451 28.1214 72.1009 27.9634C72.1567 27.8076 72.2125 27.6161 72.2705 27.3935C72.3286 27.162 72.3799 26.9639 72.4245 26.8014C72.4692 26.6389 72.5138 26.5053 72.5585 26.3985C72.6031 26.2916 72.6478 26.2093 72.6946 26.1514C72.7415 26.0913 72.7951 26.049 72.8553 26.0201C72.9156 25.9934 72.9893 25.9755 73.0741 25.9689C73.1589 25.9622 73.2593 25.96 73.3799 25.96C73.6276 25.96 73.8933 25.9711 74.179 25.9956L74.1968 26.2649C73.9959 26.2716 73.8263 26.3005 73.6879 26.354C73.5495 26.4074 73.4312 26.4853 73.3308 26.5855C73.2303 26.6856 73.141 26.8081 73.0652 26.955C72.987 27.1019 72.9089 27.2666 72.8263 27.4536C72.7661 27.5894 72.7036 27.7252 72.6388 27.8587C72.5741 27.9923 72.5071 28.1192 72.4335 28.2394C72.3598 28.3596 72.2817 28.4709 72.1969 28.5711C72.1121 28.6735 72.0161 28.7603 71.9112 28.8315C72.121 29.1387 72.3129 29.4392 72.487 29.7331C72.6611 30.0269 72.8219 30.2962 72.9714 30.5433C73.112 30.7726 73.237 30.9729 73.3531 31.1488C73.4669 31.3224 73.5741 31.4582 73.6745 31.5584C73.7259 31.6074 73.7772 31.6496 73.8263 31.6853C73.8754 31.7209 73.9267 31.7498 73.9781 31.7743C74.0294 31.7988 74.0852 31.8188 74.1433 31.8366C74.2013 31.8544 74.2683 31.8722 74.3441 31.8878L74.3575 32.0793C74.1477 32.106 73.9736 32.1193 73.8352 32.1193C73.7169 32.1193 73.612 32.1171 73.5205 32.1104C73.4312 32.1038 73.3486 32.0926 73.2794 32.0748C73.208 32.057 73.1433 32.0347 73.0875 32.008C73.0317 31.9813 72.9759 31.9457 72.9245 31.9012C72.7928 31.8055 72.6634 31.663 72.5361 31.476C72.4089 31.2868 72.275 31.0664 72.1344 30.8104C72.0205 30.6101 71.9045 30.4009 71.7884 30.1849C71.6701 29.9668 71.5429 29.7531 71.4023 29.5416C71.3621 29.4815 71.3264 29.4303 71.2973 29.388C71.2683 29.3457 71.2371 29.3123 71.2036 29.2878C71.1701 29.2634 71.1322 29.2456 71.0898 29.2366C71.0473 29.2255 70.9938 29.2211 70.9268 29.2211H70.3755V29.2166Z" fill="#B19578"/>
<path d="M76.6277 30.9121V31.5733C76.6277 31.6489 76.6679 31.6979 76.7504 31.7202L77.2348 31.8715L77.2482 32.0585C76.9022 32.0496 76.5563 32.0452 76.2103 32.0452C75.8643 32.0452 75.5027 32.0496 75.1277 32.0585L75.1099 31.8715L75.6456 31.7113C75.7215 31.689 75.7594 31.6423 75.7639 31.5777C75.7706 31.3418 75.7728 31.0546 75.7728 30.7118V27.1836C75.7728 26.8942 75.7706 26.6538 75.7639 26.4623C75.7616 26.3867 75.7259 26.3377 75.659 26.3154L75.1188 26.1462L75.1099 25.9593C75.4849 25.9704 75.8465 25.9771 76.1924 25.9771C76.5406 25.9771 76.8866 25.9704 77.2259 25.9593L77.2482 26.1462L76.7504 26.2976C76.6768 26.3154 76.6388 26.3599 76.6366 26.4312C76.6299 26.6404 76.6277 26.8853 76.6277 27.1658V30.2844L79.8687 26.8563V26.4289C79.8687 26.3622 79.8285 26.3176 79.7459 26.2954L79.2615 26.144L79.2482 25.957C79.6031 25.9682 79.9557 25.9748 80.3062 25.9748C80.6544 25.9748 81.0093 25.9682 81.3731 25.957L81.391 26.144L80.8419 26.3132C80.7749 26.3355 80.7392 26.3844 80.737 26.4601C80.728 26.6515 80.7236 26.892 80.7236 27.1813V30.7096C80.7236 31.0524 80.728 31.3395 80.737 31.5755C80.7392 31.6423 80.7794 31.6868 80.8553 31.709L81.382 31.8693L81.391 32.0563C81.0048 32.0474 80.6365 32.0429 80.2905 32.0429C79.9423 32.0429 79.6031 32.0474 79.2727 32.0563L79.2504 31.8693L79.7481 31.7179C79.8218 31.6979 79.8575 31.6489 79.862 31.571L79.8709 30.7096V27.4818L76.6277 30.9121Z" fill="#B19578"/>
<path d="M27.1626 16.3725C27.1603 16.3211 27.1559 16.272 27.1559 16.2207C27.1559 16.272 27.1514 16.3211 27.1492 16.3725H27.1626Z" fill="#B19578"/>
<path d="M27.7201 9.53418C27.7201 11.1191 26.4322 12.4013 24.8452 12.4013C26.4345 12.4013 27.7201 13.6857 27.7201 15.2684C27.7201 13.7347 28.9277 12.4859 30.4455 12.408V12.3924C28.9277 12.3167 27.7201 11.0679 27.7201 9.53418Z" fill="#B19578"/>
<path d="M91.8883 12.457C91.8883 13.0825 91.3794 13.5901 90.7522 13.5901C91.3794 13.5901 91.8883 14.0976 91.8883 14.7231C91.8883 14.1176 92.366 13.6235 92.9642 13.5923V13.5856C92.366 13.5545 91.8883 13.0625 91.8883 12.457Z" fill="#B19578"/>
<path d="M27.1467 10.3359C27.149 10.3873 27.1534 10.4364 27.1534 10.4877C27.1534 10.4364 27.1579 10.3873 27.1601 10.3359H27.1467Z" fill="#B19578"/>
<path d="M17.6022 0C7.89713 0 0 7.87563 0 17.5543C0 27.233 7.89713 35.1087 17.6022 35.1087C27.3074 35.1087 35.2045 27.233 35.2045 17.5543C35.2045 7.87563 27.3096 0 17.6022 0ZM17.6022 34.029C10.5779 34.029 4.56908 29.6327 2.18298 23.4555C4.98872 24.3592 8.03328 24.6798 11.1515 24.2902C17.7228 23.4688 23.1869 19.6735 26.3721 14.4312C23.1401 18.0262 18.6491 20.5238 13.4684 21.1716C9.05781 21.7259 4.79676 20.8577 1.14506 18.9278C1.10712 18.4759 1.08256 18.0173 1.08256 17.5543C1.08256 8.46997 8.49309 1.07962 17.6022 1.07962C26.7114 1.07962 34.1219 8.46997 34.1219 17.5543C34.1219 26.6387 26.7114 34.029 17.6022 34.029Z" fill="#B19578"/>
</svg>
