<svg width="133" height="30" viewBox="0 0 133 30" fill="none" xmlns="http://www.w3.org/2000/svg">
<circle cx="15" cy="15" r="15" fill="#1D1D1B"/>
<path d="M15.176 20H13.992L12.696 16.592H7.64L6.344 20H5.16L9.768 8.704H10.664L15.176 20ZM12.376 15.728L10.2 9.952L7.992 15.728H12.376ZM21.9678 8.704H22.8318C22.8318 9.68533 22.2184 10.2347 20.9918 10.352C19.6264 10.48 18.6771 10.8053 18.1438 11.328C17.6104 11.8507 17.2798 12.7093 17.1518 13.904C17.5251 13.36 17.9251 12.9707 18.3518 12.736C18.7784 12.4907 19.3118 12.368 19.9518 12.368C20.9758 12.368 21.7651 12.7253 22.3198 13.44C22.8744 14.144 23.1518 15.0933 23.1518 16.288C23.1518 16.7253 23.0878 17.1573 22.9598 17.584C22.8424 18.0107 22.6558 18.4267 22.3998 18.832C22.1544 19.2373 21.7971 19.568 21.3278 19.824C20.8584 20.0693 20.3144 20.192 19.6958 20.192C18.5331 20.192 17.6638 19.8133 17.0878 19.056C16.5118 18.288 16.2238 17.248 16.2238 15.936C16.2238 14.3467 16.3731 13.104 16.6718 12.208C16.9704 11.312 17.4558 10.656 18.1278 10.24C18.7998 9.81333 19.7438 9.56267 20.9598 9.488C21.2051 9.44533 21.3811 9.408 21.4878 9.376C21.6051 9.344 21.7118 9.27467 21.8078 9.168C21.9144 9.05067 21.9678 8.896 21.9678 8.704ZM22.1278 16.272C22.1278 14.2027 21.3864 13.168 19.9038 13.168C19.0291 13.168 18.3678 13.4613 17.9198 14.048C17.4718 14.624 17.2478 15.36 17.2478 16.256C17.2478 17.2693 17.4718 18.0427 17.9198 18.576C18.3678 19.0987 18.9598 19.36 19.6958 19.36C20.4318 19.36 21.0184 19.104 21.4558 18.592C21.9038 18.08 22.1278 17.3067 22.1278 16.272Z" fill="white"/>
<rect x="37" width="96" height="30" fill="#B4B4B4"/>
<path d="M58.28 18H57.62V15.62H53.38V18H52.72V13.06H53.38V15.08H57.62V13.06H58.28V18ZM64.752 16.28L65.272 16.65C64.9853 17.0633 64.6553 17.39 64.282 17.63C63.742 17.9633 63.1286 18.13 62.442 18.13C61.6753 18.13 61.0286 17.96 60.502 17.62C59.8153 17.1667 59.472 16.45 59.472 15.47C59.472 14.71 59.7453 14.0933 60.292 13.62C60.4853 13.4467 60.7686 13.2833 61.142 13.13C61.522 12.9767 61.942 12.9 62.402 12.9C63.362 12.9 64.0886 13.1833 64.582 13.75C65.022 14.2567 65.252 14.8733 65.272 15.6H60.162C60.162 16.2 60.3853 16.6733 60.832 17.02C61.2786 17.36 61.8386 17.53 62.512 17.53C63.5053 17.53 64.252 17.1133 64.752 16.28ZM60.182 15.06H64.472C64.372 14.58 64.1386 14.1867 63.772 13.88C63.4653 13.6267 62.982 13.5 62.322 13.5C61.6753 13.5 61.162 13.66 60.782 13.98C60.4486 14.26 60.2486 14.62 60.182 15.06ZM72.0719 18H71.4119V14.25L67.0519 17.4V18H66.3919V13.06H67.0519V16.7L71.4119 13.55V13.06H72.0719V18ZM70.1919 11.18L70.7719 11.28C70.7252 11.6 70.6052 11.8533 70.4119 12.04C70.2185 12.2267 70.0285 12.3433 69.8419 12.39C69.6552 12.4367 69.4519 12.46 69.2319 12.46C69.0119 12.46 68.8085 12.4367 68.6219 12.39C68.4352 12.3433 68.2452 12.2267 68.0519 12.04C67.8585 11.8533 67.7385 11.6 67.6919 11.28L68.2719 11.18C68.2985 11.36 68.3852 11.53 68.5319 11.69C68.6785 11.8433 68.9119 11.92 69.2319 11.92C69.5519 11.92 69.7852 11.8433 69.9319 11.69C70.0785 11.53 70.1652 11.36 70.1919 11.18ZM79.291 18H78.691V13.65L76.681 18H76.181L74.161 13.67V18H73.561V13.06H74.541L76.441 17.35L78.311 13.06H79.291V18ZM86.4469 18H85.7869V14.25L81.4269 17.4V18H80.7669V13.06H81.4269V16.7L85.7869 13.55V13.06H86.4469V18ZM93.446 18H92.786V15.62H88.546V18H87.886V13.06H88.546V15.08H92.786V13.06H93.446V18ZM99.448 13.06V13.6H95.548V18H94.888V13.06H99.448Z" fill="black"/>
<path d="M32 15L37 19L37 11L32 15Z" fill="#B4B4B4"/>
</svg>
