<svg width="133" height="30" viewBox="0 0 133 30" fill="none" xmlns="http://www.w3.org/2000/svg">
<circle cx="15" cy="15" r="15" fill="#1D1D1B"/>
<path fill-rule="evenodd" clip-rule="evenodd" d="M7.7085 8.33337C7.7085 7.9882 7.98832 7.70837 8.3335 7.70837H21.6668C22.012 7.70837 22.2918 7.9882 22.2918 8.33337V16.6667C22.2918 17.0119 22.012 17.2917 21.6668 17.2917H8.3335C7.98832 17.2917 7.7085 17.0119 7.7085 16.6667V8.33337ZM8.9585 8.95837V16.0417H21.0418V8.95837H8.9585Z" fill="white"/>
<path fill-rule="evenodd" clip-rule="evenodd" d="M8.51698 16.0693C8.84689 16.1708 9.03205 16.5206 8.93054 16.8505L7.51273 21.4583H22.4869L21.0691 16.8505C20.9676 16.5206 21.1528 16.1708 21.4827 16.0693C21.8126 15.9678 22.1624 16.153 22.2639 16.4829L23.9305 21.8995C23.9889 22.0891 23.9538 22.2951 23.8359 22.4547C23.7181 22.6142 23.5315 22.7083 23.3332 22.7083H6.66651C6.46817 22.7083 6.2816 22.6142 6.16377 22.4547C6.04593 22.2951 6.01082 22.0891 6.06915 21.8995L7.73581 16.4829C7.83733 16.153 8.18707 15.9678 8.51698 16.0693Z" fill="white"/>
<path fill-rule="evenodd" clip-rule="evenodd" d="M12.6958 19.3947C12.7781 19.1349 13.0192 18.9584 13.2917 18.9584H16.7083C16.9808 18.9584 17.2219 19.1349 17.3042 19.3947L18.0958 21.8947C18.156 22.0846 18.122 22.2919 18.0043 22.4526C17.8865 22.6134 17.6992 22.7084 17.5 22.7084H12.5C12.3008 22.7084 12.1135 22.6134 11.9957 22.4526C11.878 22.2919 11.844 22.0846 11.9042 21.8947L12.6958 19.3947ZM13.7493 20.2084L13.3535 21.4584H16.6465L16.2507 20.2084H13.7493Z" fill="white"/>
<rect x="37" width="96" height="30" fill="#B4B4B4"/>
<path d="M60.53 13.06L58.53 18H57.9L56.27 13.82L54.67 18H54.04L52 13.06H52.71L54.35 17.19L55.93 13.06H56.62L58.22 17.19L59.85 13.06H60.53ZM66.2852 16.28L66.8052 16.65C66.5185 17.0633 66.1885 17.39 65.8152 17.63C65.2752 17.9633 64.6618 18.13 63.9752 18.13C63.2952 18.13 62.6952 17.9567 62.1752 17.61C61.8085 17.37 61.5218 17.0567 61.3152 16.67C61.1085 16.2833 61.0052 15.8667 61.0052 15.42C61.0052 14.66 61.2685 14.0533 61.7952 13.6C61.9885 13.4267 62.2585 13.2667 62.6052 13.12C62.9585 12.9733 63.3652 12.9 63.8252 12.9C64.7385 12.9 65.4785 13.19 66.0452 13.77C66.5185 14.2433 66.7718 14.8533 66.8052 15.6H61.6952C61.7352 16.2133 61.9785 16.6933 62.4252 17.04C62.8718 17.38 63.4118 17.55 64.0452 17.55C65.0318 17.55 65.7785 17.1267 66.2852 16.28ZM61.7152 15.04H66.0052C65.8985 14.5267 65.6185 14.1233 65.1652 13.83C64.7785 13.5833 64.3152 13.46 63.7752 13.46C63.1685 13.46 62.6818 13.6333 62.3152 13.98C61.9952 14.2867 61.7952 14.64 61.7152 15.04ZM67.9251 10.94H68.5951V13.86C69.0617 13.24 69.8284 12.93 70.8951 12.93C71.7884 12.93 72.5051 13.18 73.0451 13.68C73.5517 14.1533 73.8051 14.7733 73.8051 15.54C73.8051 16.1067 73.6517 16.59 73.3451 16.99C73.0451 17.39 72.6784 17.6767 72.2451 17.85C71.8117 18.0233 71.3451 18.11 70.8451 18.11C70.4051 18.11 69.9784 18.0367 69.5651 17.89C69.1584 17.7367 68.8317 17.5167 68.5851 17.23V18H67.9251V10.94ZM73.0851 15.53C73.0851 14.95 72.8717 14.4767 72.4451 14.11C72.0184 13.7367 71.4551 13.55 70.7551 13.55C70.0084 13.55 69.4351 13.7533 69.0351 14.16C68.7284 14.48 68.5751 14.9467 68.5751 15.56C68.5751 16.18 68.7551 16.6567 69.1151 16.99C69.5084 17.35 70.0784 17.53 70.8251 17.53C71.2584 17.53 71.6284 17.4567 71.9351 17.31C72.2417 17.1633 72.4784 16.9967 72.6451 16.81C72.9384 16.4833 73.0851 16.0567 73.0851 15.53ZM77.5452 15.36H74.6652V14.76H77.5452V15.36ZM83.8277 17.46H84.7277V19.2H84.1077V18H78.6477V19.2H78.0277V17.46C78.5344 17.32 78.8844 16.96 79.0777 16.38C79.2777 15.7933 79.3811 15 79.3877 14V13.06H83.8277V17.46ZM83.1677 13.6H80.0077V14C80.0077 14.8933 79.9311 15.6433 79.7777 16.25C79.6244 16.8567 79.4044 17.26 79.1177 17.46H83.1677V13.6ZM91.525 18H90.865V14.25L86.505 17.4V18H85.845V13.06H86.505V16.7L90.865 13.55V13.06H91.525V18ZM94.4541 15.62V15.08H95.9541C96.2141 15.08 96.4508 15.0533 96.6641 15C97.0508 14.86 97.2441 14.65 97.2441 14.37C97.2441 14.21 97.2008 14.0767 97.1141 13.97C97.0341 13.8567 96.9375 13.7733 96.8241 13.72C96.7175 13.66 96.5708 13.6167 96.3841 13.59C96.2041 13.5567 96.0541 13.5367 95.9341 13.53C95.8141 13.5233 95.6641 13.52 95.4841 13.52C94.3841 13.52 93.7041 13.8067 93.4441 14.38L92.7141 14.18C93.1141 13.34 94.0375 12.92 95.4841 12.92C96.3775 12.92 97.0075 13.0333 97.3741 13.26C97.7408 13.48 97.9241 13.8267 97.9241 14.3C97.9241 14.8067 97.6308 15.1467 97.0441 15.32C97.3708 15.3933 97.6308 15.53 97.8241 15.73C98.0241 15.93 98.1241 16.1967 98.1241 16.53C98.1241 16.6433 98.1141 16.7533 98.0941 16.86C98.0741 16.96 98.0141 17.0933 97.9141 17.26C97.8141 17.42 97.6775 17.56 97.5041 17.68C97.3308 17.8 97.0708 17.9033 96.7241 17.99C96.3841 18.0767 95.9841 18.12 95.5241 18.12C93.8375 18.12 92.8441 17.6733 92.5441 16.78L93.2641 16.62C93.3708 16.9 93.6075 17.12 93.9741 17.28C94.3741 17.44 94.8841 17.52 95.5041 17.52C96.0975 17.52 96.5675 17.4367 96.9141 17.27C97.2675 17.1033 97.4441 16.8567 97.4441 16.53C97.4441 15.9233 96.9308 15.62 95.9041 15.62H94.4541ZM105.144 18C104.918 18.0267 104.698 18.04 104.484 18.04C104.371 18.04 104.271 18.0233 104.184 17.99C104.098 17.9567 104.028 17.92 103.974 17.88C103.928 17.8333 103.884 17.7767 103.844 17.71C103.811 17.6367 103.788 17.58 103.774 17.54C103.761 17.4933 103.751 17.44 103.744 17.38L103.724 17.28C103.518 17.4333 103.338 17.5533 103.184 17.64C102.584 17.9667 101.891 18.13 101.104 18.13C100.211 18.13 99.5844 17.9133 99.2244 17.48C99.0044 17.2133 98.8944 16.8933 98.8944 16.52C98.8944 15.9933 99.101 15.5867 99.5144 15.3C99.8344 15.08 100.311 14.94 100.944 14.88C101.578 14.8133 102.504 14.7733 103.724 14.76C103.724 14.42 103.668 14.17 103.554 14.01C103.321 13.6833 102.698 13.52 101.684 13.52C101.191 13.52 100.801 13.5633 100.514 13.65C100.234 13.7367 100.041 13.8467 99.9344 13.98C99.8277 14.1067 99.7344 14.2933 99.6544 14.54L98.9544 14.5C99.1144 13.9133 99.4144 13.5033 99.8544 13.27C100.288 13.0367 100.878 12.92 101.624 12.92C102.824 12.92 103.618 13.1333 104.004 13.56C104.224 13.8133 104.334 14.1767 104.334 14.65V16.82C104.334 17.0867 104.381 17.2667 104.474 17.36C104.574 17.4467 104.741 17.49 104.974 17.49H105.144V18ZM103.724 15.32H103.414C102.001 15.32 101.011 15.4067 100.444 15.58C99.8844 15.7533 99.6044 16.0733 99.6044 16.54C99.6044 16.8933 99.7644 17.15 100.084 17.31C100.404 17.4633 100.771 17.54 101.184 17.54C101.578 17.54 102.018 17.4633 102.504 17.31C102.998 17.15 103.344 16.9 103.544 16.56C103.664 16.3467 103.724 16.02 103.724 15.58V15.32ZM111.554 18H110.894V14.25L106.534 17.4V18H105.874V13.06H106.534V16.7L110.894 13.55V13.06H111.554V18ZM109.674 11.18L110.254 11.28C110.208 11.6 110.088 11.8533 109.894 12.04C109.701 12.2267 109.511 12.3433 109.324 12.39C109.138 12.4367 108.934 12.46 108.714 12.46C108.494 12.46 108.291 12.4367 108.104 12.39C107.918 12.3433 107.728 12.2267 107.534 12.04C107.341 11.8533 107.221 11.6 107.174 11.28L107.754 11.18C107.781 11.36 107.868 11.53 108.014 11.69C108.161 11.8433 108.394 11.92 108.714 11.92C109.034 11.92 109.268 11.8433 109.414 11.69C109.561 11.53 109.648 11.36 109.674 11.18ZM118.553 18H117.893V15.62H113.653V18H112.993V13.06H113.653V15.08H117.893V13.06H118.553V18Z" fill="black"/>
<path d="M32 15L37 19L37 11L32 15Z" fill="#B4B4B4"/>
</svg>
