<svg width="181" height="30" viewBox="0 0 181 30" fill="none" xmlns="http://www.w3.org/2000/svg">
<circle cx="15" cy="15" r="15" fill="#1D1D1B"/>
<path d="M21.25 7.5H8.75C8.05965 7.5 7.5 8.05965 7.5 8.75V21.25C7.5 21.9404 8.05965 22.5 8.75 22.5H21.25C21.9404 22.5 22.5 21.9404 22.5 21.25V8.75C22.5 8.05965 21.9404 7.5 21.25 7.5Z" fill="#1D1D1B"/>
<path d="M21.25 6.75H8.75V8.25H21.25V6.75ZM8.75 6.75C7.64543 6.75 6.75 7.64543 6.75 8.75H8.25C8.25 8.47386 8.47386 8.25 8.75 8.25V6.75ZM6.75 8.75V21.25H8.25V8.75H6.75ZM6.75 21.25C6.75 22.3546 7.64544 23.25 8.75 23.25V21.75C8.47385 21.75 8.25 21.5262 8.25 21.25H6.75ZM8.75 23.25H21.25V21.75H8.75V23.25ZM21.25 23.25C22.3546 23.25 23.25 22.3546 23.25 21.25H21.75C21.75 21.5262 21.5262 21.75 21.25 21.75V23.25ZM23.25 21.25V8.75H21.75V21.25H23.25ZM23.25 8.75C23.25 7.64544 22.3546 6.75 21.25 6.75V8.25C21.5262 8.25 21.75 8.47385 21.75 8.75H23.25Z" fill="white"/>
<path d="M10.8335 11.25V18.75Z" fill="#1D1D1B"/>
<path d="M11.5835 11.25C11.5835 10.8358 11.2477 10.5 10.8335 10.5C10.4193 10.5 10.0835 10.8358 10.0835 11.25H11.5835ZM10.0835 18.75C10.0835 19.1642 10.4193 19.5 10.8335 19.5C11.2477 19.5 11.5835 19.1642 11.5835 18.75H10.0835ZM10.0835 11.25V18.75H11.5835V11.25H10.0835Z" fill="white"/>
<path fill-rule="evenodd" clip-rule="evenodd" d="M11.6668 15.4167C12.9168 15.4167 14.5835 15.0833 14.5835 13.3333C14.5835 11.5833 12.9168 11.25 11.6668 11.25H10.8335V15.4167H11.6668Z" fill="#1D1D1B"/>
<path d="M10.8335 11.25V10.5C10.4193 10.5 10.0835 10.8358 10.0835 11.25H10.8335ZM10.8335 15.4167H10.0835C10.0835 15.8309 10.4193 16.1667 10.8335 16.1667V15.4167ZM11.6668 16.1667C12.3342 16.1667 13.2096 16.0818 13.9437 15.6947C14.3217 15.4954 14.6778 15.2076 14.937 14.7986C15.1981 14.3867 15.3335 13.8948 15.3335 13.3333H13.8335C13.8335 13.6469 13.7606 13.8529 13.6701 13.9956C13.5777 14.1414 13.439 14.2651 13.2441 14.3678C12.8324 14.5849 12.2495 14.6667 11.6668 14.6667V16.1667ZM15.3335 13.3333C15.3335 12.7719 15.1981 12.28 14.937 11.868C14.6778 11.4591 14.3217 11.1713 13.9437 10.972C13.2096 10.5849 12.3342 10.5 11.6668 10.5V12C12.2495 12 12.8324 12.0818 13.2441 12.2988C13.439 12.4016 13.5777 12.5253 13.6701 12.671C13.7606 12.8138 13.8335 13.0198 13.8335 13.3333H15.3335ZM11.6668 10.5H10.8335V12H11.6668V10.5ZM10.0835 11.25V15.4167H11.5835V11.25H10.0835ZM10.8335 16.1667H11.6668V14.6667H10.8335V16.1667Z" fill="white"/>
<path d="M19.1665 13.7602C18.7498 13.7602 16.6665 13.5527 16.6665 15.0051C16.6665 16.4575 19.1665 16.0425 19.1665 17.4949C19.1665 18.9472 16.6665 18.7397 16.6665 18.7397" fill="#1D1D1B"/>
<path d="M19.1665 14.5102C19.5807 14.5102 19.9165 14.1745 19.9165 13.7602C19.9165 13.346 19.5807 13.0102 19.1665 13.0102V14.5102ZM16.7285 17.9923C16.3157 17.9581 15.9533 18.2649 15.9191 18.6777C15.8848 19.0905 16.1917 19.4529 16.6045 19.4872L16.7285 17.9923ZM19.1665 13.0102C19.0451 13.0102 18.2759 12.9524 17.5947 13.1065C17.2431 13.1861 16.8281 13.337 16.4921 13.6447C16.1305 13.9758 15.9165 14.438 15.9165 15.0051H17.4165C17.4165 14.8461 17.463 14.7895 17.505 14.7511C17.5726 14.6892 17.7045 14.6196 17.9258 14.5695C18.3905 14.4644 18.8712 14.5102 19.1665 14.5102V13.0102ZM15.9165 15.0051C15.9165 15.6333 16.2076 16.0826 16.5878 16.3876C16.9217 16.6555 17.3426 16.8238 17.629 16.9427C17.9676 17.0832 18.1717 17.1742 18.3066 17.2824C18.3951 17.3534 18.4165 17.3969 18.4165 17.4949H19.9165C19.9165 16.8667 19.6254 16.4174 19.2452 16.1124C18.9113 15.8445 18.4904 15.6762 18.204 15.5573C17.8654 15.4168 17.6613 15.3258 17.5265 15.2176C17.4379 15.1466 17.4165 15.1031 17.4165 15.0051H15.9165ZM18.4165 17.4949C18.4165 17.6041 18.3853 17.6549 18.3115 17.7131C18.2074 17.7952 18.0241 17.8737 17.7641 17.9276C17.5145 17.9794 17.2534 17.9967 17.0468 17.9995C16.9455 18.0009 16.8618 17.9988 16.805 17.9965C16.7767 17.9953 16.7554 17.9941 16.7422 17.9932C16.7356 17.9928 16.7311 17.9925 16.7287 17.9923C16.7276 17.9922 16.727 17.9922 16.7269 17.9922C16.7269 17.9922 16.727 17.9922 16.7273 17.9922C16.7274 17.9922 16.7276 17.9922 16.7278 17.9923C16.7279 17.9923 16.7281 17.9923 16.7281 17.9923C16.7283 17.9923 16.7285 17.9923 16.6665 18.7397C16.6045 19.4872 16.6047 19.4872 16.6049 19.4872C16.605 19.4872 16.6052 19.4872 16.6054 19.4873C16.6058 19.4873 16.6062 19.4873 16.6066 19.4874C16.6075 19.4874 16.6085 19.4875 16.6097 19.4876C16.6121 19.4878 16.615 19.488 16.6186 19.4883C16.6257 19.4888 16.6352 19.4895 16.647 19.4902C16.6704 19.4917 16.7028 19.4935 16.7428 19.4952C16.8228 19.4985 16.9344 19.5012 17.0675 19.4994C17.3296 19.4958 17.6935 19.4742 18.0689 19.3963C18.4339 19.3206 18.8756 19.1786 19.2402 18.8911C19.6352 18.5797 19.9165 18.1118 19.9165 17.4949H18.4165Z" fill="white"/>
<rect x="37" width="144" height="30" fill="#B4B4B4"/>
<path d="M57.28 13.06V13.6H53.38V18H52.72V13.06H57.28ZM58.7804 13.06V13.83C58.9471 13.63 59.1537 13.4633 59.4004 13.33C59.6471 13.19 59.8937 13.0967 60.1404 13.05C60.3937 12.9967 60.5937 12.9633 60.7404 12.95C60.8937 12.93 61.0371 12.92 61.1704 12.92C61.7104 12.92 62.2037 13.0333 62.6504 13.26C63.0971 13.48 63.4404 13.8133 63.6804 14.26C63.8871 14.6333 63.9904 15.0533 63.9904 15.52C63.9904 16.2667 63.7471 16.8733 63.2604 17.34C62.7271 17.86 61.9804 18.12 61.0204 18.12C60.6737 18.12 60.3371 18.0767 60.0104 17.99C59.6837 17.8967 59.4304 17.7833 59.2504 17.65C59.0504 17.5033 58.8937 17.3667 58.7804 17.24V19.87H58.1404V13.06H58.7804ZM63.2604 15.51C63.2604 15.2033 63.1937 14.9067 63.0604 14.62C62.7204 13.8867 62.0371 13.52 61.0104 13.52C60.2371 13.52 59.6737 13.7133 59.3204 14.1C58.9671 14.48 58.7904 14.9733 58.7904 15.58C58.7904 16.16 58.9504 16.6067 59.2704 16.92C59.6904 17.32 60.2604 17.52 60.9804 17.52C61.8737 17.52 62.5037 17.2733 62.8704 16.78C63.1304 16.4333 63.2604 16.01 63.2604 15.51ZM71.1405 18C70.9138 18.0267 70.6938 18.04 70.4805 18.04C70.3671 18.04 70.2671 18.0233 70.1805 17.99C70.0938 17.9567 70.0238 17.92 69.9705 17.88C69.9238 17.8333 69.8805 17.7767 69.8405 17.71C69.8071 17.6367 69.7838 17.58 69.7705 17.54C69.7571 17.4933 69.7471 17.44 69.7405 17.38L69.7205 17.28C69.5138 17.4333 69.3338 17.5533 69.1805 17.64C68.5805 17.9667 67.8871 18.13 67.1005 18.13C66.2071 18.13 65.5805 17.9133 65.2205 17.48C65.0005 17.2133 64.8905 16.8933 64.8905 16.52C64.8905 15.9933 65.0971 15.5867 65.5105 15.3C65.8305 15.08 66.3071 14.94 66.9405 14.88C67.5738 14.8133 68.5005 14.7733 69.7205 14.76C69.7205 14.42 69.6638 14.17 69.5505 14.01C69.3171 13.6833 68.6938 13.52 67.6805 13.52C67.1871 13.52 66.7971 13.5633 66.5105 13.65C66.2305 13.7367 66.0371 13.8467 65.9305 13.98C65.8238 14.1067 65.7305 14.2933 65.6505 14.54L64.9505 14.5C65.1105 13.9133 65.4105 13.5033 65.8505 13.27C66.2838 13.0367 66.8738 12.92 67.6205 12.92C68.8205 12.92 69.6138 13.1333 70.0005 13.56C70.2205 13.8133 70.3305 14.1767 70.3305 14.65V16.82C70.3305 17.0867 70.3771 17.2667 70.4705 17.36C70.5705 17.4467 70.7371 17.49 70.9705 17.49H71.1405V18ZM69.7205 15.32H69.4105C67.9971 15.32 67.0071 15.4067 66.4405 15.58C65.8805 15.7533 65.6005 16.0733 65.6005 16.54C65.6005 16.8933 65.7605 17.15 66.0805 17.31C66.4005 17.4633 66.7671 17.54 67.1805 17.54C67.5738 17.54 68.0138 17.4633 68.5005 17.31C68.9938 17.15 69.3405 16.9 69.5405 16.56C69.6605 16.3467 69.7205 16.02 69.7205 15.58V15.32ZM75.4804 10.94V13.06C75.9337 13.06 76.3437 13.1033 76.7104 13.19C77.0837 13.27 77.4237 13.4033 77.7304 13.59C78.0437 13.77 78.2837 14.0267 78.4504 14.36C78.6237 14.6867 78.7104 15.0767 78.7104 15.53C78.7104 15.9833 78.6237 16.3767 78.4504 16.71C78.2837 17.0367 78.0437 17.2933 77.7304 17.48C77.4237 17.66 77.0837 17.7933 76.7104 17.88C76.3437 17.96 75.9337 18 75.4804 18V19.87H74.8204V18C74.3671 18 73.9537 17.96 73.5804 17.88C73.2137 17.7933 72.8737 17.66 72.5604 17.48C72.2537 17.2933 72.0137 17.0367 71.8404 16.71C71.6737 16.3767 71.5904 15.9833 71.5904 15.53C71.5904 15.0767 71.6737 14.6867 71.8404 14.36C72.0137 14.0267 72.2537 13.77 72.5604 13.59C72.8737 13.4033 73.2137 13.27 73.5804 13.19C73.9537 13.1033 74.3671 13.06 74.8204 13.06V10.94H75.4804ZM74.8204 17.46V13.6C73.8937 13.64 73.2437 13.8233 72.8704 14.15C72.5037 14.4767 72.3204 14.9433 72.3204 15.55C72.3204 16.13 72.5071 16.5833 72.8804 16.91C73.2537 17.2367 73.9004 17.42 74.8204 17.46ZM75.4804 13.6V17.46C76.4004 17.42 77.0471 17.24 77.4204 16.92C77.7937 16.5933 77.9804 16.14 77.9804 15.56C77.9804 14.9533 77.7937 14.4867 77.4204 14.16C77.0537 13.8267 76.4071 13.64 75.4804 13.6ZM85.5484 18H84.8884V14.25L80.5284 17.4V18H79.8684V13.06H80.5284V16.7L84.8884 13.55V13.06H85.5484V18ZM87.3676 13.06V14.49C87.3676 14.73 87.4176 14.93 87.5176 15.09C87.6242 15.25 87.7742 15.3667 87.9676 15.44C88.1609 15.5133 88.3509 15.5633 88.5376 15.59C88.7242 15.6167 88.9409 15.63 89.1876 15.63C89.7342 15.63 90.3676 15.5667 91.0876 15.44V13.06H91.7476V18H91.0876V15.98C90.4142 16.1067 89.7776 16.17 89.1776 16.17C87.5309 16.17 86.7076 15.6433 86.7076 14.59V13.06H87.3676ZM98.2188 16.28L98.7388 16.65C98.4521 17.0633 98.1221 17.39 97.7487 17.63C97.2088 17.9633 96.5954 18.13 95.9088 18.13C95.1421 18.13 94.4954 17.96 93.9688 17.62C93.2821 17.1667 92.9388 16.45 92.9388 15.47C92.9388 14.71 93.2121 14.0933 93.7588 13.62C93.9521 13.4467 94.2354 13.2833 94.6088 13.13C94.9888 12.9767 95.4088 12.9 95.8688 12.9C96.8288 12.9 97.5554 13.1833 98.0488 13.75C98.4888 14.2567 98.7188 14.8733 98.7388 15.6H93.6288C93.6288 16.2 93.8521 16.6733 94.2988 17.02C94.7454 17.36 95.3054 17.53 95.9788 17.53C96.9721 17.53 97.7188 17.1133 98.2188 16.28ZM93.6488 15.06H97.9388C97.8388 14.58 97.6054 14.1867 97.2388 13.88C96.9321 13.6267 96.4488 13.5 95.7888 13.5C95.1421 13.5 94.6288 13.66 94.2488 13.98C93.9154 14.26 93.7154 14.62 93.6488 15.06ZM104.959 16.07L105.619 16.32C105.352 16.7533 105.102 17.08 104.869 17.3C104.289 17.84 103.502 18.11 102.509 18.11C102.102 18.11 101.732 18.06 101.399 17.96C101.219 17.9067 101.042 17.8333 100.869 17.74C100.695 17.64 100.499 17.5 100.279 17.32C100.059 17.1333 99.8787 16.8833 99.7387 16.57C99.6053 16.2567 99.5387 15.9 99.5387 15.5C99.5387 14.8267 99.7553 14.26 100.189 13.8C100.475 13.4933 100.839 13.26 101.279 13.1C101.719 12.94 102.165 12.86 102.619 12.86C103.925 12.86 104.892 13.3867 105.519 14.44L104.859 14.71C104.799 14.5833 104.682 14.4233 104.509 14.23C104.335 14.0367 104.159 13.8867 103.979 13.78C103.599 13.5467 103.139 13.43 102.599 13.43C102.092 13.43 101.665 13.53 101.319 13.73C100.979 13.9233 100.729 14.16 100.569 14.44C100.375 14.7533 100.279 15.1033 100.279 15.49C100.279 16.15 100.509 16.6567 100.969 17.01C101.435 17.3567 101.972 17.53 102.579 17.53C102.912 17.53 103.249 17.47 103.589 17.35C103.935 17.23 104.219 17.0633 104.439 16.85C104.612 16.6767 104.785 16.4167 104.959 16.07ZM107.189 13.06V15.08H109.679C109.985 15.08 110.222 15.0067 110.389 14.86C110.562 14.7067 110.669 14.5367 110.709 14.35C110.755 14.1567 110.812 13.93 110.879 13.67C110.952 13.41 111.045 13.2067 111.159 13.06H111.869C111.715 13.26 111.595 13.49 111.509 13.75C111.422 14.0033 111.362 14.22 111.329 14.4C111.295 14.58 111.219 14.76 111.099 14.94C110.985 15.1133 110.815 15.2433 110.589 15.33C110.869 15.3767 111.082 15.4967 111.229 15.69C111.382 15.8833 111.475 16.0967 111.509 16.33C111.549 16.5633 111.612 16.8433 111.699 17.17C111.792 17.4967 111.915 17.7733 112.069 18H111.369C111.255 17.8533 111.162 17.63 111.089 17.33C111.022 17.03 110.965 16.7633 110.919 16.53C110.879 16.2967 110.749 16.0867 110.529 15.9C110.309 15.7133 109.995 15.62 109.589 15.62H107.189V18H106.529V13.06H107.189ZM118.81 18H118.15V14.25L113.79 17.4V18H113.13V13.06H113.79V16.7L118.15 13.55V13.06H118.81V18ZM125.929 18H125.269V14.25L120.909 17.4V18H120.249V13.06H120.909V16.7L125.269 13.55V13.06H125.929V18ZM124.049 11.18L124.629 11.28C124.583 11.6 124.463 11.8533 124.269 12.04C124.076 12.2267 123.886 12.3433 123.699 12.39C123.513 12.4367 123.309 12.46 123.089 12.46C122.869 12.46 122.666 12.4367 122.479 12.39C122.293 12.3433 122.103 12.2267 121.909 12.04C121.716 11.8533 121.596 11.6 121.549 11.28L122.129 11.18C122.156 11.36 122.243 11.53 122.389 11.69C122.536 11.8433 122.769 11.92 123.089 11.92C123.409 11.92 123.643 11.8433 123.789 11.69C123.936 11.53 124.023 11.36 124.049 11.18ZM135.683 17.46H136.583V19.2H135.963V18H130.503V19.2H129.883V17.46C130.39 17.32 130.74 16.96 130.933 16.38C131.133 15.7933 131.237 15 131.243 14V13.06H135.683V17.46ZM135.023 13.6H131.863V14C131.863 14.8933 131.787 15.6433 131.633 16.25C131.48 16.8567 131.26 17.26 130.973 17.46H135.023V13.6ZM143.38 18H142.72V14.25L138.36 17.4V18H137.7V13.06H138.36V16.7L142.72 13.55V13.06H143.38V18ZM146.31 15.62V15.08H147.81C148.07 15.08 148.306 15.0533 148.52 15C148.906 14.86 149.1 14.65 149.1 14.37C149.1 14.21 149.056 14.0767 148.97 13.97C148.89 13.8567 148.793 13.7733 148.68 13.72C148.573 13.66 148.426 13.6167 148.24 13.59C148.06 13.5567 147.91 13.5367 147.79 13.53C147.67 13.5233 147.52 13.52 147.34 13.52C146.24 13.52 145.56 13.8067 145.3 14.38L144.57 14.18C144.97 13.34 145.893 12.92 147.34 12.92C148.233 12.92 148.863 13.0333 149.23 13.26C149.596 13.48 149.78 13.8267 149.78 14.3C149.78 14.8067 149.486 15.1467 148.9 15.32C149.226 15.3933 149.486 15.53 149.68 15.73C149.88 15.93 149.98 16.1967 149.98 16.53C149.98 16.6433 149.97 16.7533 149.95 16.86C149.93 16.96 149.87 17.0933 149.77 17.26C149.67 17.42 149.533 17.56 149.36 17.68C149.186 17.8 148.926 17.9033 148.58 17.99C148.24 18.0767 147.84 18.12 147.38 18.12C145.693 18.12 144.7 17.6733 144.4 16.78L145.12 16.62C145.226 16.9 145.463 17.12 145.83 17.28C146.23 17.44 146.74 17.52 147.36 17.52C147.953 17.52 148.423 17.4367 148.77 17.27C149.123 17.1033 149.3 16.8567 149.3 16.53C149.3 15.9233 148.786 15.62 147.76 15.62H146.31ZM157 18C156.773 18.0267 156.553 18.04 156.34 18.04C156.227 18.04 156.127 18.0233 156.04 17.99C155.953 17.9567 155.883 17.92 155.83 17.88C155.783 17.8333 155.74 17.7767 155.7 17.71C155.667 17.6367 155.643 17.58 155.63 17.54C155.617 17.4933 155.607 17.44 155.6 17.38L155.58 17.28C155.373 17.4333 155.193 17.5533 155.04 17.64C154.44 17.9667 153.747 18.13 152.96 18.13C152.067 18.13 151.44 17.9133 151.08 17.48C150.86 17.2133 150.75 16.8933 150.75 16.52C150.75 15.9933 150.957 15.5867 151.37 15.3C151.69 15.08 152.167 14.94 152.8 14.88C153.433 14.8133 154.36 14.7733 155.58 14.76C155.58 14.42 155.523 14.17 155.41 14.01C155.177 13.6833 154.553 13.52 153.54 13.52C153.047 13.52 152.657 13.5633 152.37 13.65C152.09 13.7367 151.897 13.8467 151.79 13.98C151.683 14.1067 151.59 14.2933 151.51 14.54L150.81 14.5C150.97 13.9133 151.27 13.5033 151.71 13.27C152.143 13.0367 152.733 12.92 153.48 12.92C154.68 12.92 155.473 13.1333 155.86 13.56C156.08 13.8133 156.19 14.1767 156.19 14.65V16.82C156.19 17.0867 156.237 17.2667 156.33 17.36C156.43 17.4467 156.597 17.49 156.83 17.49H157V18ZM155.58 15.32H155.27C153.857 15.32 152.867 15.4067 152.3 15.58C151.74 15.7533 151.46 16.0733 151.46 16.54C151.46 16.8933 151.62 17.15 151.94 17.31C152.26 17.4633 152.627 17.54 153.04 17.54C153.433 17.54 153.873 17.4633 154.36 17.31C154.853 17.15 155.2 16.9 155.4 16.56C155.52 16.3467 155.58 16.02 155.58 15.58V15.32ZM163.41 18H162.75V14.25L158.39 17.4V18H157.73V13.06H158.39V16.7L162.75 13.55V13.06H163.41V18ZM161.53 11.18L162.11 11.28C162.063 11.6 161.943 11.8533 161.75 12.04C161.556 12.2267 161.366 12.3433 161.18 12.39C160.993 12.4367 160.79 12.46 160.57 12.46C160.35 12.46 160.146 12.4367 159.96 12.39C159.773 12.3433 159.583 12.2267 159.39 12.04C159.196 11.8533 159.076 11.6 159.03 11.28L159.61 11.18C159.636 11.36 159.723 11.53 159.87 11.69C160.016 11.8433 160.25 11.92 160.57 11.92C160.89 11.92 161.123 11.8433 161.27 11.69C161.416 11.53 161.503 11.36 161.53 11.18ZM170.409 18H169.749V15.62H165.509V18H164.849V13.06H165.509V15.08H169.749V13.06H170.409V18Z" fill="black"/>
<path d="M32 15L37 19L37 11L32 15Z" fill="#B4B4B4"/>
</svg>
