<svg width="133" height="30" viewBox="0 0 133 30" fill="none" xmlns="http://www.w3.org/2000/svg">
<rect x="37" width="96" height="30" fill="#B4B4B4"/>
<path d="M53.38 13.06V13.83C53.5467 13.63 53.7533 13.4633 54 13.33C54.2467 13.19 54.4933 13.0967 54.74 13.05C54.9933 12.9967 55.1933 12.9633 55.34 12.95C55.4933 12.93 55.6367 12.92 55.77 12.92C56.31 12.92 56.8033 13.0333 57.25 13.26C57.6967 13.48 58.04 13.8133 58.28 14.26C58.4867 14.6333 58.59 15.0533 58.59 15.52C58.59 16.2667 58.3467 16.8733 57.86 17.34C57.3267 17.86 56.58 18.12 55.62 18.12C55.2733 18.12 54.9367 18.0767 54.61 17.99C54.2833 17.8967 54.03 17.7833 53.85 17.65C53.65 17.5033 53.4933 17.3667 53.38 17.24V19.87H52.74V13.06H53.38ZM57.86 15.51C57.86 15.2033 57.7933 14.9067 57.66 14.62C57.32 13.8867 56.6367 13.52 55.61 13.52C54.8367 13.52 54.2733 13.7133 53.92 14.1C53.5667 14.48 53.39 14.9733 53.39 15.58C53.39 16.16 53.55 16.6067 53.87 16.92C54.29 17.32 54.86 17.52 55.58 17.52C56.4733 17.52 57.1033 17.2733 57.47 16.78C57.73 16.4333 57.86 16.01 57.86 15.51ZM64.8301 16.28L65.3501 16.65C65.0634 17.0633 64.7334 17.39 64.3601 17.63C63.8201 17.9633 63.2067 18.13 62.5201 18.13C61.7534 18.13 61.1067 17.96 60.5801 17.62C59.8934 17.1667 59.5501 16.45 59.5501 15.47C59.5501 14.71 59.8234 14.0933 60.3701 13.62C60.5634 13.4467 60.8467 13.2833 61.2201 13.13C61.6001 12.9767 62.0201 12.9 62.4801 12.9C63.4401 12.9 64.1667 13.1833 64.6601 13.75C65.1001 14.2567 65.3301 14.8733 65.3501 15.6H60.2401C60.2401 16.2 60.4634 16.6733 60.9101 17.02C61.3567 17.36 61.9167 17.53 62.5901 17.53C63.5834 17.53 64.3301 17.1133 64.8301 16.28ZM60.2601 15.06H64.5501C64.4501 14.58 64.2167 14.1867 63.8501 13.88C63.5434 13.6267 63.0601 13.5 62.4001 13.5C61.7534 13.5 61.2401 13.66 60.8601 13.98C60.5267 14.26 60.3267 14.62 60.2601 15.06ZM71.27 10.65H71.9C71.9 11.49 71.2067 11.91 69.82 11.91C68.8867 11.91 68.1767 12.0967 67.69 12.47C67.21 12.8433 66.9167 13.44 66.81 14.26C67.0233 13.8733 67.3633 13.5767 67.83 13.37C68.3033 13.1633 68.81 13.06 69.35 13.06C70.2767 13.06 70.9967 13.25 71.51 13.63C72.0967 14.0567 72.39 14.6833 72.39 15.51C72.39 16.1567 72.17 16.72 71.73 17.2C71.15 17.8267 70.33 18.14 69.27 18.14C68.2833 18.14 67.52 17.9 66.98 17.42C66.4467 16.9333 66.18 16.2133 66.18 15.26C66.18 14.64 66.23 14.1067 66.33 13.66C66.4367 13.2067 66.5833 12.8367 66.77 12.55C66.9567 12.2567 67.21 12.02 67.53 11.84C67.8567 11.6533 68.2067 11.52 68.58 11.44C68.9533 11.3533 69.4067 11.29 69.94 11.25C70.1267 11.2367 70.2867 11.22 70.42 11.2C70.5533 11.18 70.69 11.15 70.83 11.11C70.9767 11.07 71.0867 11.0133 71.16 10.94C71.2333 10.86 71.27 10.7633 71.27 10.65ZM71.66 15.53C71.66 14.91 71.4533 14.4333 71.04 14.1C70.6267 13.7667 70.0933 13.6 69.44 13.6C69.0933 13.6 68.7633 13.64 68.45 13.72C68.1367 13.7933 67.9 13.89 67.74 14.01C67.2 14.41 66.93 14.92 66.93 15.54C66.93 16.02 67.0633 16.4333 67.33 16.78C67.5433 17.0533 67.8233 17.26 68.17 17.4C68.5233 17.5333 68.8867 17.6 69.26 17.6C70.1267 17.6 70.7733 17.3567 71.2 16.87C71.5067 16.5233 71.66 16.0767 71.66 15.53ZM74.2101 13.06V13.83C74.3767 13.63 74.5834 13.4633 74.8301 13.33C75.0767 13.19 75.3234 13.0967 75.5701 13.05C75.8234 12.9967 76.0234 12.9633 76.1701 12.95C76.3234 12.93 76.4667 12.92 76.6001 12.92C77.1401 12.92 77.6334 13.0333 78.0801 13.26C78.5267 13.48 78.8701 13.8133 79.1101 14.26C79.3167 14.6333 79.4201 15.0533 79.4201 15.52C79.4201 16.2667 79.1767 16.8733 78.6901 17.34C78.1567 17.86 77.4101 18.12 76.4501 18.12C76.1034 18.12 75.7667 18.0767 75.4401 17.99C75.1134 17.8967 74.8601 17.7833 74.6801 17.65C74.4801 17.5033 74.3234 17.3667 74.2101 17.24V19.87H73.5701V13.06H74.2101ZM78.6901 15.51C78.6901 15.2033 78.6234 14.9067 78.4901 14.62C78.1501 13.8867 77.4667 13.52 76.4401 13.52C75.6667 13.52 75.1034 13.7133 74.7501 14.1C74.3967 14.48 74.2201 14.9733 74.2201 15.58C74.2201 16.16 74.3801 16.6067 74.7001 16.92C75.1201 17.32 75.6901 17.52 76.4101 17.52C77.3034 17.52 77.9334 17.2733 78.3001 16.78C78.5601 16.4333 78.6901 16.01 78.6901 15.51ZM85.6602 16.28L86.1802 16.65C85.8935 17.0633 85.5635 17.39 85.1902 17.63C84.6502 17.9633 84.0368 18.13 83.3502 18.13C82.5835 18.13 81.9368 17.96 81.4102 17.62C80.7235 17.1667 80.3802 16.45 80.3802 15.47C80.3802 14.71 80.6535 14.0933 81.2002 13.62C81.3935 13.4467 81.6768 13.2833 82.0502 13.13C82.4302 12.9767 82.8502 12.9 83.3102 12.9C84.2702 12.9 84.9968 13.1833 85.4902 13.75C85.9302 14.2567 86.1602 14.8733 86.1802 15.6H81.0702C81.0702 16.2 81.2935 16.6733 81.7402 17.02C82.1868 17.36 82.7468 17.53 83.4202 17.53C84.4135 17.53 85.1602 17.1133 85.6602 16.28ZM81.0902 15.06H85.3802C85.2802 14.58 85.0468 14.1867 84.6802 13.88C84.3735 13.6267 83.8902 13.5 83.2302 13.5C82.5835 13.5 82.0702 13.66 81.6902 13.98C81.3568 14.26 81.1568 14.62 81.0902 15.06ZM92.8601 18H92.2001V15.62H87.9601V18H87.3001V13.06H87.9601V15.08H92.2001V13.06H92.8601V18ZM99.482 17.46H100.382V19.2H99.762V18H94.302V19.2H93.682V17.46C94.1887 17.32 94.5387 16.96 94.732 16.38C94.932 15.7933 95.0354 15 95.042 14V13.06H99.482V17.46ZM98.822 13.6H95.662V14C95.662 14.8933 95.5854 15.6433 95.432 16.25C95.2787 16.8567 95.0587 17.26 94.772 17.46H98.822V13.6ZM107.179 18H106.519V14.25L102.159 17.4V18H101.499V13.06H102.159V16.7L106.519 13.55V13.06H107.179V18ZM114.178 18H113.518V15.62H109.278V18H108.618V13.06H109.278V15.08H113.518V13.06H114.178V18ZM120.18 13.06V13.6H116.28V18H115.62V13.06H120.18Z" fill="black"/>
<path d="M32 15L37 19L37 11L32 15Z" fill="#B4B4B4"/>
<circle cx="15" cy="15" r="15" fill="#1D1D1B"/>
<path d="M14.1626 21.1738C10.76 21.1738 7.99982 18.4346 7.99982 15.0593C7.99982 12.5891 9.47728 10.4587 11.6031 9.49457" stroke="white" stroke-miterlimit="10" stroke-linecap="round" stroke-linejoin="round"/>
<path d="M16.1302 9.26306C18.5692 10.0779 20.3257 12.3655 20.3257 15.0595C20.3257 16.6264 19.7335 18.0539 18.7579 19.1358" stroke="white" stroke-miterlimit="10" stroke-linecap="round" stroke-linejoin="round"/>
<path d="M8.19074 9L11.6455 9.39075L11.226 12.715" stroke="white" stroke-miterlimit="10" stroke-linecap="round" stroke-linejoin="round"/>
<path d="M17.5235 16.1394L18.748 19.3969L22 18.1285" stroke="white" stroke-miterlimit="10" stroke-linecap="round" stroke-linejoin="round"/>
</svg>
