<svg width="26" height="16" viewBox="0 0 26 16" fill="none" xmlns="http://www.w3.org/2000/svg">
<path fill-rule="evenodd" clip-rule="evenodd" d="M10.7734 7.33085C10.7734 7.33085 12.9891 7.07158 12.9891 4.3189C12.9891 1.56551 11.1973 0.307617 8.77888 0.307617H4.32731H4.19665H0.820312V15.6916H4.19665H4.32731H8.77888C8.77888 15.6916 13.6377 15.8461 13.6377 11.1507C13.6377 11.1507 13.8491 7.33085 10.7734 7.33085ZM8.08778 2.87179H8.70997C8.70997 2.87179 9.79487 2.94015 9.79487 4.78241C9.79487 6.62387 9.08127 6.71795 8.39856 6.71795H4.66667V2.87179H8.08778ZM9.27034 13.1282H4.66667V9.28205H9.27034C9.27034 9.28205 11.0769 9.42432 11.0769 11.3134C11.0769 12.9055 9.95149 13.1165 9.27034 13.1282ZM20.3505 4.15431C14.9656 4.21425 14.9303 10.0859 14.9303 10.0859C14.9303 10.0859 14.5019 15.6838 20.2521 15.6838C20.2521 15.6838 25.1682 16.0639 25.1682 11.7339H22.7593C22.7593 11.7339 22.6773 13.382 20.3505 13.382C20.3505 13.382 17.9417 13.5633 17.9417 10.7452C17.9417 10.7452 25.1682 10.7452 25.1663 10.7354C25.0906 10.4025 26.0035 4.09155 20.3505 4.15431ZM17.4872 9.28205C17.4872 9.28205 17.7658 6.71795 20.222 6.71795C22.6776 6.71795 22.6152 9.28205 22.6152 9.28205H17.4872ZM23.8974 2.87179H17.4872V1.58974H23.8974V2.87179Z" fill="white"/>
</svg>
