<svg width="28" height="23" viewBox="0 0 28 23" fill="none" xmlns="http://www.w3.org/2000/svg">
<path fill-rule="evenodd" clip-rule="evenodd" d="M2.31662 9.7359C9.60463 6.56063 14.4644 4.4673 16.8961 3.45591C23.8388 0.568175 25.2815 0.0665454 26.2218 0.0499813C26.4286 0.0463382 26.891 0.0975916 27.1905 0.34064C27.4434 0.545864 27.513 0.823094 27.5463 1.01767C27.5796 1.21225 27.6211 1.65549 27.5881 2.00184C27.2119 5.95492 25.584 15.548 24.7558 19.9755C24.4053 21.849 23.7153 22.4772 23.0472 22.5386C21.5954 22.6722 20.493 21.5792 19.0869 20.6574C16.8865 19.2151 15.6435 18.3172 13.5077 16.9098C11.0394 15.2832 12.6395 14.3892 14.0462 12.9282C14.4143 12.5459 20.811 6.72762 20.9348 6.19982C20.9502 6.1338 20.9646 5.88775 20.8184 5.75782C20.6723 5.62789 20.4565 5.67232 20.3008 5.70766C20.0801 5.75774 16.5651 8.08106 9.75568 12.6776C8.75794 13.3627 7.85422 13.6965 7.04452 13.679C6.1519 13.6598 4.43483 13.1743 3.15838 12.7594C1.59275 12.2505 0.348419 11.9814 0.456773 11.1171C0.51321 10.6669 1.13316 10.2065 2.31662 9.7359Z" fill="white"/>
</svg>
