<svg width="30" height="30" viewBox="0 0 30 30" fill="none" xmlns="http://www.w3.org/2000/svg">
<circle cx="15" cy="15" r="15" fill="#1D1D1B"/>
<path d="M15.176 20H13.992L12.696 16.592H7.64L6.344 20H5.16L9.768 8.704H10.664L15.176 20ZM12.376 15.728L10.2 9.952L7.992 15.728H12.376ZM21.9678 8.704H22.8318C22.8318 9.68533 22.2184 10.2347 20.9918 10.352C19.6264 10.48 18.6771 10.8053 18.1438 11.328C17.6104 11.8507 17.2798 12.7093 17.1518 13.904C17.5251 13.36 17.9251 12.9707 18.3518 12.736C18.7784 12.4907 19.3118 12.368 19.9518 12.368C20.9758 12.368 21.7651 12.7253 22.3198 13.44C22.8744 14.144 23.1518 15.0933 23.1518 16.288C23.1518 16.7253 23.0878 17.1573 22.9598 17.584C22.8424 18.0107 22.6558 18.4267 22.3998 18.832C22.1544 19.2373 21.7971 19.568 21.3278 19.824C20.8584 20.0693 20.3144 20.192 19.6958 20.192C18.5331 20.192 17.6638 19.8133 17.0878 19.056C16.5118 18.288 16.2238 17.248 16.2238 15.936C16.2238 14.3467 16.3731 13.104 16.6718 12.208C16.9704 11.312 17.4558 10.656 18.1278 10.24C18.7998 9.81333 19.7438 9.56267 20.9598 9.488C21.2051 9.44533 21.3811 9.408 21.4878 9.376C21.6051 9.344 21.7118 9.27467 21.8078 9.168C21.9144 9.05067 21.9678 8.896 21.9678 8.704ZM22.1278 16.272C22.1278 14.2027 21.3864 13.168 19.9038 13.168C19.0291 13.168 18.3678 13.4613 17.9198 14.048C17.4718 14.624 17.2478 15.36 17.2478 16.256C17.2478 17.2693 17.4718 18.0427 17.9198 18.576C18.3678 19.0987 18.9598 19.36 19.6958 19.36C20.4318 19.36 21.0184 19.104 21.4558 18.592C21.9038 18.08 22.1278 17.3067 22.1278 16.272Z" fill="white"/>
</svg>
