<svg width="30" height="30" viewBox="0 0 30 30" fill="none" xmlns="http://www.w3.org/2000/svg">
<circle cx="15" cy="15" r="15" fill="#1D1D1B"/>
<path fill-rule="evenodd" clip-rule="evenodd" d="M7.7085 8.3335C7.7085 7.98832 7.98832 7.7085 8.3335 7.7085H21.6668C22.012 7.7085 22.2918 7.98832 22.2918 8.3335V16.6668C22.2918 17.012 22.012 17.2918 21.6668 17.2918H8.3335C7.98832 17.2918 7.7085 17.012 7.7085 16.6668V8.3335ZM8.9585 8.9585V16.0418H21.0418V8.9585H8.9585Z" fill="white"/>
<path fill-rule="evenodd" clip-rule="evenodd" d="M8.51698 16.0693C8.84689 16.1708 9.03205 16.5206 8.93054 16.8505L7.51273 21.4583H22.4869L21.0691 16.8505C20.9676 16.5206 21.1528 16.1708 21.4827 16.0693C21.8126 15.9678 22.1624 16.153 22.2639 16.4829L23.9305 21.8995C23.9889 22.0891 23.9538 22.2951 23.8359 22.4547C23.7181 22.6142 23.5315 22.7083 23.3332 22.7083H6.66651C6.46817 22.7083 6.2816 22.6142 6.16377 22.4547C6.04593 22.2951 6.01082 22.0891 6.06915 21.8995L7.73581 16.4829C7.83733 16.153 8.18707 15.9678 8.51698 16.0693Z" fill="white"/>
<path fill-rule="evenodd" clip-rule="evenodd" d="M12.6958 19.3948C12.7781 19.135 13.0192 18.9585 13.2917 18.9585H16.7083C16.9808 18.9585 17.2219 19.135 17.3042 19.3948L18.0958 21.8948C18.156 22.0848 18.122 22.292 18.0043 22.4528C17.8865 22.6135 17.6992 22.7085 17.5 22.7085H12.5C12.3008 22.7085 12.1135 22.6135 11.9957 22.4528C11.878 22.292 11.844 22.0848 11.9042 21.8948L12.6958 19.3948ZM13.7493 20.2085L13.3535 21.4585H16.6465L16.2507 20.2085H13.7493Z" fill="white"/>
</svg>
