<svg width="30" height="30" viewBox="0 0 30 30" fill="none" xmlns="http://www.w3.org/2000/svg">
<circle cx="15" cy="15" r="15" fill="#1D1D1B"/>
<path d="M21.25 7.5H8.75C8.05965 7.5 7.5 8.05965 7.5 8.75V21.25C7.5 21.9404 8.05965 22.5 8.75 22.5H21.25C21.9404 22.5 22.5 21.9404 22.5 21.25V8.75C22.5 8.05965 21.9404 7.5 21.25 7.5Z" fill="#1D1D1B"/>
<path d="M21.25 6.75H8.75V8.25H21.25V6.75ZM8.75 6.75C7.64543 6.75 6.75 7.64543 6.75 8.75H8.25C8.25 8.47386 8.47386 8.25 8.75 8.25V6.75ZM6.75 8.75V21.25H8.25V8.75H6.75ZM6.75 21.25C6.75 22.3546 7.64544 23.25 8.75 23.25V21.75C8.47385 21.75 8.25 21.5262 8.25 21.25H6.75ZM8.75 23.25H21.25V21.75H8.75V23.25ZM21.25 23.25C22.3546 23.25 23.25 22.3546 23.25 21.25H21.75C21.75 21.5262 21.5262 21.75 21.25 21.75V23.25ZM23.25 21.25V8.75H21.75V21.25H23.25ZM23.25 8.75C23.25 7.64544 22.3546 6.75 21.25 6.75V8.25C21.5262 8.25 21.75 8.47385 21.75 8.75H23.25Z" fill="white"/>
<path d="M10.8335 11.25V18.75V11.25Z" fill="#1D1D1B"/>
<path d="M11.5835 11.25C11.5835 10.8358 11.2477 10.5 10.8335 10.5C10.4193 10.5 10.0835 10.8358 10.0835 11.25H11.5835ZM10.0835 18.75C10.0835 19.1642 10.4193 19.5 10.8335 19.5C11.2477 19.5 11.5835 19.1642 11.5835 18.75H10.0835ZM10.0835 11.25V18.75H11.5835V11.25H10.0835Z" fill="white"/>
<path fill-rule="evenodd" clip-rule="evenodd" d="M11.6668 15.4167C12.9168 15.4167 14.5835 15.0833 14.5835 13.3333C14.5835 11.5833 12.9168 11.25 11.6668 11.25H10.8335V15.4167H11.6668Z" fill="#1D1D1B"/>
<path d="M10.8335 11.25V10.5C10.4193 10.5 10.0835 10.8358 10.0835 11.25H10.8335ZM10.8335 15.4167H10.0835C10.0835 15.8309 10.4193 16.1667 10.8335 16.1667V15.4167ZM11.6668 16.1667C12.3342 16.1667 13.2096 16.0818 13.9437 15.6947C14.3217 15.4954 14.6778 15.2076 14.937 14.7986C15.1981 14.3867 15.3335 13.8948 15.3335 13.3333H13.8335C13.8335 13.6469 13.7606 13.8529 13.6701 13.9956C13.5777 14.1414 13.439 14.2651 13.2441 14.3678C12.8324 14.5849 12.2495 14.6667 11.6668 14.6667V16.1667ZM15.3335 13.3333C15.3335 12.7719 15.1981 12.28 14.937 11.868C14.6778 11.4591 14.3217 11.1713 13.9437 10.972C13.2096 10.5849 12.3342 10.5 11.6668 10.5V12C12.2495 12 12.8324 12.0818 13.2441 12.2988C13.439 12.4016 13.5777 12.5253 13.6701 12.671C13.7606 12.8138 13.8335 13.0198 13.8335 13.3333H15.3335ZM11.6668 10.5H10.8335V12H11.6668V10.5ZM10.0835 11.25V15.4167H11.5835V11.25H10.0835ZM10.8335 16.1667H11.6668V14.6667H10.8335V16.1667Z" fill="white"/>
<path d="M19.1665 13.7602C18.7498 13.7602 16.6665 13.5527 16.6665 15.0051C16.6665 16.4575 19.1665 16.0425 19.1665 17.4949C19.1665 18.9472 16.6665 18.7397 16.6665 18.7397" fill="#1D1D1B"/>
<path d="M19.1665 14.5102C19.5807 14.5102 19.9165 14.1745 19.9165 13.7602C19.9165 13.346 19.5807 13.0102 19.1665 13.0102V14.5102ZM16.7285 17.9923C16.3157 17.9581 15.9533 18.2649 15.9191 18.6777C15.8848 19.0905 16.1917 19.4529 16.6045 19.4872L16.7285 17.9923ZM19.1665 13.0102C19.0451 13.0102 18.2759 12.9524 17.5947 13.1065C17.2431 13.1861 16.8281 13.337 16.4921 13.6447C16.1305 13.9758 15.9165 14.438 15.9165 15.0051H17.4165C17.4165 14.8461 17.463 14.7895 17.505 14.7511C17.5726 14.6892 17.7045 14.6196 17.9258 14.5695C18.3905 14.4644 18.8712 14.5102 19.1665 14.5102V13.0102ZM15.9165 15.0051C15.9165 15.6333 16.2076 16.0826 16.5878 16.3876C16.9217 16.6555 17.3426 16.8238 17.629 16.9427C17.9676 17.0832 18.1717 17.1742 18.3066 17.2824C18.3951 17.3534 18.4165 17.3969 18.4165 17.4949H19.9165C19.9165 16.8667 19.6254 16.4174 19.2452 16.1124C18.9113 15.8445 18.4904 15.6762 18.204 15.5573C17.8654 15.4168 17.6613 15.3258 17.5265 15.2176C17.4379 15.1466 17.4165 15.1031 17.4165 15.0051H15.9165ZM18.4165 17.4949C18.4165 17.6041 18.3853 17.6549 18.3115 17.7131C18.2074 17.7952 18.0241 17.8737 17.7641 17.9276C17.5145 17.9794 17.2534 17.9967 17.0468 17.9995C16.9455 18.0009 16.8618 17.9988 16.805 17.9965C16.7767 17.9953 16.7554 17.9941 16.7422 17.9932C16.7356 17.9928 16.7311 17.9925 16.7287 17.9923C16.7276 17.9922 16.727 17.9922 16.7269 17.9922C16.7269 17.9922 16.727 17.9922 16.7273 17.9922C16.7274 17.9922 16.7276 17.9922 16.7278 17.9923C16.7279 17.9923 16.7281 17.9923 16.7281 17.9923C16.7283 17.9923 16.7285 17.9923 16.6665 18.7397C16.6045 19.4872 16.6047 19.4872 16.6049 19.4872C16.605 19.4872 16.6052 19.4872 16.6054 19.4873C16.6058 19.4873 16.6062 19.4873 16.6066 19.4874C16.6075 19.4874 16.6085 19.4875 16.6097 19.4876C16.6121 19.4878 16.615 19.488 16.6186 19.4883C16.6257 19.4888 16.6352 19.4895 16.647 19.4902C16.6704 19.4917 16.7028 19.4935 16.7428 19.4952C16.8228 19.4985 16.9344 19.5012 17.0675 19.4994C17.3296 19.4958 17.6935 19.4742 18.0689 19.3963C18.4339 19.3206 18.8756 19.1786 19.2402 18.8911C19.6352 18.5797 19.9165 18.1118 19.9165 17.4949H18.4165Z" fill="white"/>
</svg>
