<svg width="28" height="16" viewBox="0 0 28 16" fill="none" xmlns="http://www.w3.org/2000/svg">
<path d="M10.391 15.2021C10.8077 15.2021 11 15.0208 11 14.628C11 14.2352 10.8077 14.0538 10.391 14.0538H2.21795V8.58453H7.60256C8.01923 8.58453 8.21154 8.40323 8.21154 8.0104C8.21154 7.61758 8.01923 7.43627 7.60256 7.43627H2.21795V2.14826H10.391C10.8077 2.14826 11 1.96695 11 1.57413C11 1.1813 10.8077 1 10.391 1H1.60897C1.19231 1 1 1.1813 1 1.57413V14.628C1 15.0208 1.19231 15.2021 1.60897 15.2021H10.391V15.2021Z" stroke="#E21633" stroke-miterlimit="10"/>
<path d="M16.2381 14.599V2.86949H15.9524L25.7937 14.8704C25.9841 15.0815 26.2063 15.2021 26.4286 15.2021C26.8095 15.172 27 14.991 27 14.599V1.57291C27 1.18092 26.8095 1 26.3968 1C25.9841 1 25.7937 1.18092 25.7937 1.57291V13.3326H26.0794L16.2381 1.33168C16.0476 1.09046 15.8254 1 15.6032 1C15.1905 1 15 1.18092 15 1.57291V14.599C15 14.991 15.2222 15.172 15.6032 15.172C16.0159 15.172 16.2381 14.991 16.2381 14.599Z" stroke="#E21633" stroke-miterlimit="10"/>
</svg>
